<svg width="175" height="58" viewBox="0 0 175 58" fill="none" xmlns="http://www.w3.org/2000/svg">
<path d="M138.144 9.30422C137.56 9.30422 137.086 8.84698 137.086 8.28297C137.086 7.71895 137.56 7.26172 138.144 7.26172C138.729 7.26172 139.203 7.71895 139.203 8.28297C139.203 8.84698 138.729 9.30422 138.144 9.30422Z" fill="#5F5959" fill-opacity="0.3" stroke="black" stroke-width="1.35241"/>
<path d="M131.68 8.28297C131.68 8.8474 131.206 9.30422 130.621 9.30422C130.036 9.30422 129.562 8.8474 129.562 8.28297C129.562 7.71853 130.036 7.26172 130.621 7.26172C131.206 7.26172 131.68 7.71853 131.68 8.28297Z" fill="#5F5959" fill-opacity="0.3" stroke="black" stroke-width="1.35241"/>
<path d="M124.582 8.28297C124.582 8.8474 124.108 9.30422 123.523 9.30422C122.938 9.30422 122.464 8.8474 122.464 8.28297C122.464 7.71853 122.938 7.26172 123.523 7.26172C124.108 7.26172 124.582 7.71853 124.582 8.28297Z" fill="#5F5959" fill-opacity="0.3" stroke="black" stroke-width="1.35241"/>
<path d="M1.11969 56.912L167.088 56.8091L167.073 35.9753L174.289 35.9609V0.927734L8.29314 0.927734L1.10977 8.07641L1.00314 23.9188L6.3045 23.9021L6.29706 27.083L1.00563 27.0878L1.11969 56.9168V56.912ZM164.968 54.7666L3.22981 54.867L3.13065 29.1231L8.40967 29.1183L8.42455 21.8453L3.13312 21.862L3.21989 8.90392L9.18826 2.96544L172.171 2.96544V33.916L164.956 33.9304L164.971 54.7618L164.968 54.7666Z" fill="#5F5959" fill-opacity="0.3"/>
<path d="M164.968 54.7666L3.22981 54.867L3.13065 29.1231L8.40967 29.1183L8.42455 21.8453L3.13312 21.862L3.21989 8.90392L9.18826 2.96544L172.171 2.96544V33.916L164.956 33.9304L164.971 54.7618L164.968 54.7666Z" fill="#5F5959" fill-opacity="0.3"/>
<path d="M1.11969 56.912L167.088 56.8091L167.073 35.9753L174.289 35.9609V0.927734L8.29314 0.927734L1.10977 8.07641L1.00314 23.9188L6.3045 23.9021L6.29706 27.083L1.00563 27.0878L1.11969 56.9168V56.912ZM164.968 54.7666L3.22981 54.867L3.13065 29.1231L8.40967 29.1183L8.42455 21.8453L3.13312 21.862L3.21989 8.90392L9.18826 2.96544L172.171 2.96544V33.916L164.956 33.9304L164.971 54.7618L164.968 54.7666Z" stroke="black" stroke-width="1.35241"/>
<path d="M164.968 54.7666L3.22981 54.867L3.13065 29.1231L8.40967 29.1183L8.42455 21.8453L3.13312 21.862L3.21989 8.90392L9.18826 2.96544L172.171 2.96544V33.916L164.956 33.9304L164.971 54.7618L164.968 54.7666Z" stroke="black" stroke-width="1.35241"/>
<path d="M35.5254 45.1758L41.165 50.6136H42.3203V49.8141L37.5097 45.1758H35.5254Z" fill="#5F5959" fill-opacity="0.3" stroke="black" stroke-width="1.02293"/>
<path d="M39.4733 45.1758L42.3203 47.92V46.0061L41.4595 45.1758H39.4733Z" fill="#5F5959" fill-opacity="0.3" stroke="black" stroke-width="1.02293"/>
<path d="M31.5655 45.1758L37.2032 50.6136H39.1875L33.5498 45.1758H31.5655Z" fill="#5F5959" fill-opacity="0.3" stroke="black" stroke-width="1.02293"/>
<path d="M27.628 45.1758L33.2657 50.6136H35.25L29.6123 45.1758H27.628Z" fill="#5F5959" fill-opacity="0.3" stroke="black" stroke-width="1.02293"/>
<path d="M23.6671 45.1758L29.3048 50.6136H31.2891L25.6495 45.1758H23.6671Z" fill="#5F5959" fill-opacity="0.3" stroke="black" stroke-width="1.02293"/>
<path d="M19.6905 45.1758L25.3282 50.6136H27.3125L21.6748 45.1758H19.6905Z" fill="#5F5959" fill-opacity="0.3" stroke="black" stroke-width="1.02293"/>
<path d="M15.7277 45.1758L21.3654 50.6136H23.3516L17.712 45.1758H15.7277Z" fill="#5F5959" fill-opacity="0.3" stroke="black" stroke-width="1.02293"/>
<path d="M11.7921 45.1758L17.4317 50.6136H19.4141L13.7764 45.1758H11.7921Z" fill="#5F5959" fill-opacity="0.3" stroke="black" stroke-width="1.02293"/>
<path d="M8.69012 45.1758V46.0043L13.4689 50.6136H15.4531L9.81541 45.1758H8.69012Z" fill="#5F5959" fill-opacity="0.3" stroke="black" stroke-width="1.02293"/>
<path d="M8.69271 47.8965V49.8123L9.52354 50.6118H11.5078L8.69271 47.8965Z" fill="#5F5959" fill-opacity="0.3" stroke="black" stroke-width="1.02293"/>
<path d="M166.051 28.9167H167.109V7.76953L145.185 7.76953V8.79078L166.051 8.79078V28.9167Z" fill="#5F5959" fill-opacity="0.3" stroke="black" stroke-width="1.35241"/>
<path d="M8.6882 39.6152H12.2266V43.0282H8.6882V39.6152Z" fill="#5F5959" fill-opacity="0.3" stroke="black" stroke-width="1.35241"/>
<path d="M169.322 38.1934H174.301V56.8388H169.322V38.1934Z" fill="#5F5959" fill-opacity="0.3" stroke="black" stroke-width="1.35241"/>
<mask id="path-18-outside-1_123_237" maskUnits="userSpaceOnUse" x="49.7852" y="21.4688" width="70" height="18" fill="black">
<rect fill="white" x="49.7852" y="21.4688" width="70" height="18"/>
<path d="M59.2012 37.4688H50.8222V22.4747H59.2012V24.1337H52.7122V28.8167H58.8232V30.4547H52.7122V35.8097H59.2012V37.4688ZM65.7671 37.4688L61.5041 26.2127H63.4781L65.8721 32.8487C65.9841 33.1567 66.1031 33.4997 66.2291 33.8777C66.3551 34.2557 66.4671 34.6197 66.5651 34.9697C66.6631 35.3057 66.7331 35.5927 66.7751 35.8307H66.8591C66.9151 35.5927 66.9921 35.2987 67.0901 34.9487C67.2021 34.5987 67.3211 34.2347 67.4471 33.8567C67.5871 33.4787 67.7061 33.1427 67.8041 32.8487L70.1981 26.2127H72.1721L67.8881 37.4688H65.7671ZM79.3502 26.0027C80.3162 26.0027 81.1422 26.2127 81.8282 26.6327C82.5282 27.0527 83.0602 27.6477 83.4242 28.4177C83.8022 29.1737 83.9912 30.0627 83.9912 31.0847V32.1977H76.2842C76.3122 33.4717 76.6342 34.4447 77.2502 35.1167C77.8802 35.7747 78.7552 36.1037 79.8752 36.1037C80.5892 36.1037 81.2192 36.0407 81.7652 35.9147C82.3252 35.7747 82.8992 35.5787 83.4872 35.3267V36.9437C82.9132 37.1957 82.3462 37.3777 81.7862 37.4898C81.2262 37.6158 80.5612 37.6788 79.7912 37.6788C78.7272 37.6788 77.7822 37.4617 76.9562 37.0277C76.1442 36.5937 75.5072 35.9497 75.0452 35.0957C74.5972 34.2277 74.3732 33.1707 74.3732 31.9248C74.3732 30.6927 74.5762 29.6357 74.9822 28.7537C75.4022 27.8717 75.9832 27.1927 76.7252 26.7167C77.4812 26.2407 78.3562 26.0027 79.3502 26.0027ZM79.3292 27.5147C78.4472 27.5147 77.7472 27.8017 77.2292 28.3757C76.7252 28.9357 76.4242 29.7197 76.3262 30.7277H82.0592C82.0592 30.0837 81.9612 29.5237 81.7652 29.0477C81.5692 28.5717 81.2682 28.2007 80.8622 27.9347C80.4702 27.6547 79.9592 27.5147 79.3292 27.5147ZM93.3247 26.0027C94.6687 26.0027 95.6837 26.3317 96.3697 26.9897C97.0557 27.6337 97.3987 28.6837 97.3987 30.1397V37.4688H95.5717V30.2657C95.5717 29.3557 95.3687 28.6767 94.9627 28.2287C94.5567 27.7807 93.9197 27.5567 93.0517 27.5567C91.8057 27.5567 90.9447 27.9067 90.4687 28.6067C89.9927 29.3067 89.7547 30.3147 89.7547 31.6307V37.4688H87.9067V26.2127H89.3977L89.6707 27.7457H89.7757C90.0277 27.3537 90.3357 27.0317 90.6997 26.7797C91.0777 26.5138 91.4907 26.3178 91.9387 26.1917C92.3867 26.0657 92.8487 26.0027 93.3247 26.0027ZM105.697 36.1667C105.977 36.1667 106.264 36.1457 106.558 36.1037C106.852 36.0477 107.09 35.9917 107.272 35.9357V37.3427C107.076 37.4408 106.796 37.5178 106.432 37.5738C106.068 37.6438 105.718 37.6788 105.382 37.6788C104.794 37.6788 104.248 37.5808 103.744 37.3847C103.254 37.1747 102.855 36.8177 102.547 36.3137C102.239 35.8097 102.085 35.1027 102.085 34.1927V27.6407H100.489V26.7587L102.106 26.0237L102.841 23.6297H103.933V26.2127H107.188V27.6407H103.933V34.1507C103.933 34.8367 104.094 35.3477 104.416 35.6837C104.752 36.0057 105.179 36.1667 105.697 36.1667ZM117.905 34.3607C117.905 35.0887 117.723 35.6977 117.359 36.1877C116.995 36.6777 116.477 37.0487 115.805 37.3007C115.133 37.5528 114.335 37.6788 113.411 37.6788C112.627 37.6788 111.948 37.6158 111.374 37.4898C110.814 37.3637 110.317 37.1887 109.883 36.9647V35.2847C110.331 35.5087 110.87 35.7187 111.5 35.9147C112.144 36.0967 112.795 36.1877 113.453 36.1877C114.391 36.1877 115.07 36.0407 115.49 35.7467C115.91 35.4387 116.12 35.0327 116.12 34.5287C116.12 34.2487 116.043 33.9967 115.889 33.7727C115.735 33.5487 115.455 33.3247 115.049 33.1007C114.657 32.8767 114.09 32.6247 113.348 32.3447C112.62 32.0647 111.997 31.7847 111.479 31.5047C110.961 31.2247 110.562 30.8887 110.282 30.4967C110.002 30.1047 109.862 29.6007 109.862 28.9847C109.862 28.0327 110.247 27.2977 111.017 26.7797C111.801 26.2617 112.823 26.0027 114.083 26.0027C114.769 26.0027 115.406 26.0727 115.994 26.2127C116.596 26.3387 117.156 26.5207 117.674 26.7587L117.044 28.2287C116.736 28.0887 116.407 27.9697 116.057 27.8717C115.721 27.7597 115.378 27.6757 115.028 27.6197C114.678 27.5497 114.321 27.5147 113.957 27.5147C113.201 27.5147 112.62 27.6407 112.214 27.8927C111.822 28.1307 111.626 28.4597 111.626 28.8797C111.626 29.1877 111.717 29.4537 111.899 29.6777C112.081 29.8877 112.382 30.0977 112.802 30.3077C113.236 30.5037 113.81 30.7417 114.524 31.0217C115.238 31.2877 115.847 31.5607 116.351 31.8407C116.855 32.1207 117.24 32.4637 117.506 32.8697C117.772 33.2617 117.905 33.7587 117.905 34.3607Z"/>
</mask>
<path d="M59.2012 37.4688H50.8222V22.4747H59.2012V24.1337H52.7122V28.8167H58.8232V30.4547H52.7122V35.8097H59.2012V37.4688ZM65.7671 37.4688L61.5041 26.2127H63.4781L65.8721 32.8487C65.9841 33.1567 66.1031 33.4997 66.2291 33.8777C66.3551 34.2557 66.4671 34.6197 66.5651 34.9697C66.6631 35.3057 66.7331 35.5927 66.7751 35.8307H66.8591C66.9151 35.5927 66.9921 35.2987 67.0901 34.9487C67.2021 34.5987 67.3211 34.2347 67.4471 33.8567C67.5871 33.4787 67.7061 33.1427 67.8041 32.8487L70.1981 26.2127H72.1721L67.8881 37.4688H65.7671ZM79.3502 26.0027C80.3162 26.0027 81.1422 26.2127 81.8282 26.6327C82.5282 27.0527 83.0602 27.6477 83.4242 28.4177C83.8022 29.1737 83.9912 30.0627 83.9912 31.0847V32.1977H76.2842C76.3122 33.4717 76.6342 34.4447 77.2502 35.1167C77.8802 35.7747 78.7552 36.1037 79.8752 36.1037C80.5892 36.1037 81.2192 36.0407 81.7652 35.9147C82.3252 35.7747 82.8992 35.5787 83.4872 35.3267V36.9437C82.9132 37.1957 82.3462 37.3777 81.7862 37.4898C81.2262 37.6158 80.5612 37.6788 79.7912 37.6788C78.7272 37.6788 77.7822 37.4617 76.9562 37.0277C76.1442 36.5937 75.5072 35.9497 75.0452 35.0957C74.5972 34.2277 74.3732 33.1707 74.3732 31.9248C74.3732 30.6927 74.5762 29.6357 74.9822 28.7537C75.4022 27.8717 75.9832 27.1927 76.7252 26.7167C77.4812 26.2407 78.3562 26.0027 79.3502 26.0027ZM79.3292 27.5147C78.4472 27.5147 77.7472 27.8017 77.2292 28.3757C76.7252 28.9357 76.4242 29.7197 76.3262 30.7277H82.0592C82.0592 30.0837 81.9612 29.5237 81.7652 29.0477C81.5692 28.5717 81.2682 28.2007 80.8622 27.9347C80.4702 27.6547 79.9592 27.5147 79.3292 27.5147ZM93.3247 26.0027C94.6687 26.0027 95.6837 26.3317 96.3697 26.9897C97.0557 27.6337 97.3987 28.6837 97.3987 30.1397V37.4688H95.5717V30.2657C95.5717 29.3557 95.3687 28.6767 94.9627 28.2287C94.5567 27.7807 93.9197 27.5567 93.0517 27.5567C91.8057 27.5567 90.9447 27.9067 90.4687 28.6067C89.9927 29.3067 89.7547 30.3147 89.7547 31.6307V37.4688H87.9067V26.2127H89.3977L89.6707 27.7457H89.7757C90.0277 27.3537 90.3357 27.0317 90.6997 26.7797C91.0777 26.5138 91.4907 26.3178 91.9387 26.1917C92.3867 26.0657 92.8487 26.0027 93.3247 26.0027ZM105.697 36.1667C105.977 36.1667 106.264 36.1457 106.558 36.1037C106.852 36.0477 107.09 35.9917 107.272 35.9357V37.3427C107.076 37.4408 106.796 37.5178 106.432 37.5738C106.068 37.6438 105.718 37.6788 105.382 37.6788C104.794 37.6788 104.248 37.5808 103.744 37.3847C103.254 37.1747 102.855 36.8177 102.547 36.3137C102.239 35.8097 102.085 35.1027 102.085 34.1927V27.6407H100.489V26.7587L102.106 26.0237L102.841 23.6297H103.933V26.2127H107.188V27.6407H103.933V34.1507C103.933 34.8367 104.094 35.3477 104.416 35.6837C104.752 36.0057 105.179 36.1667 105.697 36.1667ZM117.905 34.3607C117.905 35.0887 117.723 35.6977 117.359 36.1877C116.995 36.6777 116.477 37.0487 115.805 37.3007C115.133 37.5528 114.335 37.6788 113.411 37.6788C112.627 37.6788 111.948 37.6158 111.374 37.4898C110.814 37.3637 110.317 37.1887 109.883 36.9647V35.2847C110.331 35.5087 110.87 35.7187 111.5 35.9147C112.144 36.0967 112.795 36.1877 113.453 36.1877C114.391 36.1877 115.07 36.0407 115.49 35.7467C115.91 35.4387 116.12 35.0327 116.12 34.5287C116.12 34.2487 116.043 33.9967 115.889 33.7727C115.735 33.5487 115.455 33.3247 115.049 33.1007C114.657 32.8767 114.09 32.6247 113.348 32.3447C112.62 32.0647 111.997 31.7847 111.479 31.5047C110.961 31.2247 110.562 30.8887 110.282 30.4967C110.002 30.1047 109.862 29.6007 109.862 28.9847C109.862 28.0327 110.247 27.2977 111.017 26.7797C111.801 26.2617 112.823 26.0027 114.083 26.0027C114.769 26.0027 115.406 26.0727 115.994 26.2127C116.596 26.3387 117.156 26.5207 117.674 26.7587L117.044 28.2287C116.736 28.0887 116.407 27.9697 116.057 27.8717C115.721 27.7597 115.378 27.6757 115.028 27.6197C114.678 27.5497 114.321 27.5147 113.957 27.5147C113.201 27.5147 112.62 27.6407 112.214 27.8927C111.822 28.1307 111.626 28.4597 111.626 28.8797C111.626 29.1877 111.717 29.4537 111.899 29.6777C112.081 29.8877 112.382 30.0977 112.802 30.3077C113.236 30.5037 113.81 30.7417 114.524 31.0217C115.238 31.2877 115.847 31.5607 116.351 31.8407C116.855 32.1207 117.24 32.4637 117.506 32.8697C117.772 33.2617 117.905 33.7587 117.905 34.3607Z" fill="black"/>
<path d="M59.2012 37.4688V38.4688H60.2012V37.4688H59.2012ZM50.8222 37.4688H49.8222V38.4688H50.8222V37.4688ZM50.8222 22.4747V21.4747H49.8222V22.4747H50.8222ZM59.2012 22.4747H60.2012V21.4747H59.2012V22.4747ZM59.2012 24.1337V25.1337H60.2012V24.1337H59.2012ZM52.7122 24.1337V23.1337H51.7122V24.1337H52.7122ZM52.7122 28.8167H51.7122V29.8167H52.7122V28.8167ZM58.8232 28.8167H59.8232V27.8167H58.8232V28.8167ZM58.8232 30.4547V31.4548H59.8232V30.4547H58.8232ZM52.7122 30.4547V29.4547H51.7122V30.4547H52.7122ZM52.7122 35.8097H51.7122V36.8097H52.7122V35.8097ZM59.2012 35.8097H60.2012V34.8097H59.2012V35.8097ZM59.2012 36.4688H50.8222V38.4688H59.2012V36.4688ZM51.8222 37.4688V22.4747H49.8222V37.4688H51.8222ZM50.8222 23.4747H59.2012V21.4747H50.8222V23.4747ZM58.2012 22.4747V24.1337H60.2012V22.4747H58.2012ZM59.2012 23.1337H52.7122V25.1337H59.2012V23.1337ZM51.7122 24.1337V28.8167H53.7122V24.1337H51.7122ZM52.7122 29.8167H58.8232V27.8167H52.7122V29.8167ZM57.8232 28.8167V30.4547H59.8232V28.8167H57.8232ZM58.8232 29.4547H52.7122V31.4548H58.8232V29.4547ZM51.7122 30.4547V35.8097H53.7122V30.4547H51.7122ZM52.7122 36.8097H59.2012V34.8097H52.7122V36.8097ZM58.2012 35.8097V37.4688H60.2012V35.8097H58.2012ZM65.7671 37.4688L64.8319 37.8229L65.0765 38.4688H65.7671V37.4688ZM61.5041 26.2127V25.2127H60.0561L60.5689 26.5669L61.5041 26.2127ZM63.4781 26.2127L64.4188 25.8734L64.1804 25.2127H63.4781V26.2127ZM65.8721 32.8487L64.9314 33.1881L64.9323 33.1905L65.8721 32.8487ZM66.2291 33.8778L65.2804 34.194L66.2291 33.8778ZM66.5651 34.9697L65.6021 35.2394L65.6051 35.2498L66.5651 34.9697ZM66.7751 35.8307L65.7903 36.0045L65.9361 36.8307H66.7751V35.8307ZM66.8591 35.8307V36.8307H67.6511L67.8325 36.0598L66.8591 35.8307ZM67.0901 34.9487L66.1377 34.644L66.1321 34.6614L66.1271 34.6791L67.0901 34.9487ZM67.4471 33.8568L66.5094 33.5094L66.5036 33.5249L66.4984 33.5405L67.4471 33.8568ZM67.8041 32.8487L66.8634 32.5094L66.8593 32.5209L66.8554 32.5325L67.8041 32.8487ZM70.1981 26.2127V25.2127H69.4958L69.2574 25.8734L70.1981 26.2127ZM72.1721 26.2127L73.1067 26.5685L73.6227 25.2127H72.1721V26.2127ZM67.8881 37.4688V38.4688H68.5775L68.8227 37.8245L67.8881 37.4688ZM66.7023 37.1146L62.4393 25.8586L60.5689 26.5669L64.8319 37.8229L66.7023 37.1146ZM61.5041 27.2127H63.4781V25.2127H61.5041V27.2127ZM62.5374 26.5521L64.9314 33.1881L66.8128 32.5094L64.4188 25.8734L62.5374 26.5521ZM64.9323 33.1905C65.0407 33.4885 65.1567 33.8228 65.2804 34.194L67.1778 33.5615C67.0495 33.1767 66.9275 32.825 66.8119 32.507L64.9323 33.1905ZM65.2804 34.194C65.4018 34.558 65.5089 34.9064 65.6021 35.2394L67.5281 34.7001C67.4253 34.3331 67.3084 33.9535 67.1778 33.5615L65.2804 34.194ZM65.6051 35.2498C65.697 35.5648 65.7567 35.8143 65.7903 36.0045L67.7599 35.657C67.7095 35.3712 67.6292 35.0467 67.5251 34.6898L65.6051 35.2498ZM66.7751 36.8307H66.8591V34.8307H66.7751V36.8307ZM67.8325 36.0598C67.8842 35.8402 67.9572 35.5607 68.0531 35.2184L66.1271 34.6791C66.027 35.0368 65.946 35.3453 65.8857 35.6017L67.8325 36.0598ZM68.0425 35.2535C68.1532 34.9077 68.271 34.5475 68.3958 34.173L66.4984 33.5405C66.3713 33.922 66.251 34.2898 66.1377 34.644L68.0425 35.2535ZM68.3849 34.2041C68.5276 33.8186 68.6505 33.4719 68.7528 33.165L66.8554 32.5325C66.7617 32.8136 66.6466 33.1389 66.5094 33.5094L68.3849 34.2041ZM68.7448 33.1881L71.1388 26.5521L69.2574 25.8734L66.8634 32.5094L68.7448 33.1881ZM70.1981 27.2127H72.1721V25.2127H70.1981V27.2127ZM71.2375 25.857L66.9535 37.113L68.8227 37.8245L73.1067 26.5685L71.2375 25.857ZM67.8881 36.4688H65.7671V38.4688H67.8881V36.4688ZM81.8282 26.6327L81.306 27.4856L81.3137 27.4902L81.8282 26.6327ZM83.4242 28.4177L82.5201 28.8451L82.5248 28.8551L82.5297 28.865L83.4242 28.4177ZM83.9912 32.1978V33.1978H84.9912V32.1978H83.9912ZM76.2842 32.1978V31.1978H75.2619L75.2844 32.2197L76.2842 32.1978ZM77.2502 35.1168L76.513 35.7925L76.5203 35.8005L76.5279 35.8083L77.2502 35.1168ZM81.7652 35.9147L81.99 36.8891L81.9989 36.8871L82.0077 36.8849L81.7652 35.9147ZM83.4872 35.3267H84.4872V33.8102L83.0932 34.4076L83.4872 35.3267ZM83.4872 36.9438L83.8892 37.8594L84.4872 37.5969V36.9438H83.4872ZM81.7862 37.4897L81.59 36.5092L81.5783 36.5115L81.5667 36.5141L81.7862 37.4897ZM76.9562 37.0278L76.4848 37.9097L76.491 37.913L76.9562 37.0278ZM75.0452 35.0958L74.1565 35.5544L74.161 35.563L74.1656 35.5716L75.0452 35.0958ZM74.9822 28.7537L74.0792 28.3238L74.0738 28.3356L74.9822 28.7537ZM76.7252 26.7167L76.1923 25.8705L76.1852 25.8751L76.7252 26.7167ZM77.2292 28.3757L76.4868 27.7058L76.4859 27.7068L77.2292 28.3757ZM76.3262 30.7277L75.3309 30.631L75.2242 31.7277H76.3262V30.7277ZM82.0592 30.7277V31.7277H83.0592V30.7277H82.0592ZM81.7652 29.0477L80.8405 29.4285L80.8405 29.4285L81.7652 29.0477ZM80.8622 27.9347L80.2809 28.7485L80.2973 28.7602L80.3141 28.7712L80.8622 27.9347ZM79.3502 27.0028C80.1691 27.0028 80.8062 27.1796 81.306 27.4856L82.3503 25.7799C81.4781 25.2459 80.4632 25.0028 79.3502 25.0028V27.0028ZM81.3137 27.4902C81.8366 27.804 82.2367 28.2457 82.5201 28.8451L84.3282 27.9904C83.8836 27.0498 83.2198 26.3015 82.3427 25.7753L81.3137 27.4902ZM82.5297 28.865C82.8253 29.456 82.9912 30.1859 82.9912 31.0847H84.9912C84.9912 29.9396 84.7791 28.8915 84.3186 27.9705L82.5297 28.865ZM82.9912 31.0847V32.1978H84.9912V31.0847H82.9912ZM83.9912 31.1978H76.2842V33.1978H83.9912V31.1978ZM75.2844 32.2197C75.3156 33.6401 75.678 34.8816 76.513 35.7925L77.9873 34.441C77.5903 34.0079 77.3087 33.3034 77.2839 32.1758L75.2844 32.2197ZM76.5279 35.8083C77.3882 36.7069 78.5493 37.1038 79.8752 37.1038V35.1038C78.961 35.1038 78.3721 34.8426 77.9725 34.4252L76.5279 35.8083ZM79.8752 37.1038C80.6453 37.1038 81.3534 37.0361 81.99 36.8891L81.5403 34.9404C81.0849 35.0454 80.533 35.1038 79.8752 35.1038V37.1038ZM82.0077 36.8849C82.6246 36.7307 83.2493 36.5167 83.8811 36.2459L83.0932 34.4076C82.5491 34.6408 82.0257 34.8188 81.5226 34.9446L82.0077 36.8849ZM82.4872 35.3267V36.9438H84.4872V35.3267H82.4872ZM83.0852 36.0281C82.5709 36.2539 82.0728 36.4126 81.59 36.5092L81.9823 38.4703C82.6195 38.3429 83.2554 38.1376 83.8892 37.8594L83.0852 36.0281ZM81.5667 36.5141C81.0984 36.6195 80.5106 36.6787 79.7912 36.6787V38.6787C80.6117 38.6787 81.354 38.612 82.0057 38.4654L81.5667 36.5141ZM79.7912 36.6787C78.8663 36.6787 78.0848 36.4911 77.4213 36.1425L76.491 37.913C77.4795 38.4324 78.5881 38.6787 79.7912 38.6787V36.6787ZM77.4275 36.1458C76.7981 35.8094 76.2988 35.3114 75.9247 34.6199L74.1656 35.5716C74.7156 36.5881 75.4902 37.3781 76.4848 37.9097L77.4275 36.1458ZM75.9338 34.6371C75.5764 33.9446 75.3732 33.054 75.3732 31.9247H73.3732C73.3732 33.2875 73.618 34.5109 74.1565 35.5544L75.9338 34.6371ZM75.3732 31.9247C75.3732 30.7996 75.5588 29.8925 75.8905 29.1719L74.0738 28.3356C73.5935 29.379 73.3732 30.5859 73.3732 31.9247H75.3732ZM75.885 29.1837C76.2338 28.4513 76.6968 27.923 77.2651 27.5584L76.1852 25.8751C75.2696 26.4625 74.5706 27.2922 74.0793 28.3238L75.885 29.1837ZM77.258 27.563C77.8368 27.1985 78.5228 27.0028 79.3502 27.0028V25.0028C78.1895 25.0028 77.1255 25.283 76.1924 25.8705L77.258 27.563ZM79.3292 26.5147C78.2082 26.5147 77.222 26.8911 76.4868 27.7058L77.9716 29.0457C78.2723 28.7124 78.6861 28.5147 79.3292 28.5147V26.5147ZM76.4859 27.7068C75.7969 28.4723 75.4425 29.4826 75.3309 30.631L77.3215 30.8245C77.4058 29.9569 77.6535 29.3992 77.9725 29.0447L76.4859 27.7068ZM76.3262 31.7277H82.0592V29.7277H76.3262V31.7277ZM83.0592 30.7277C83.0592 29.9848 82.9464 29.29 82.6898 28.667L80.8405 29.4285C80.976 29.7575 81.0592 30.1827 81.0592 30.7277H83.0592ZM82.6898 28.667C82.422 28.0165 81.9953 27.4816 81.4102 27.0983L80.3141 28.7712C80.5411 28.9199 80.7163 29.127 80.8405 29.4285L82.6898 28.667ZM81.4434 27.121C80.8364 26.6874 80.1038 26.5147 79.3292 26.5147V28.5147C79.8145 28.5147 80.1039 28.6221 80.2809 28.7485L81.4434 27.121ZM96.3697 26.9897L95.6774 27.7115L95.6852 27.7188L96.3697 26.9897ZM97.3987 37.4688V38.4688H98.3987V37.4688H97.3987ZM95.5717 37.4688H94.5717V38.4688H95.5717V37.4688ZM94.9627 28.2287L95.7037 27.5572L94.9627 28.2287ZM90.4687 28.6067L91.2956 29.1691L90.4687 28.6067ZM89.7547 37.4688V38.4688H90.7547V37.4688H89.7547ZM87.9067 37.4688H86.9067V38.4688H87.9067V37.4688ZM87.9067 26.2127V25.2127H86.9067V26.2127H87.9067ZM89.3977 26.2127L90.3822 26.0374L90.2353 25.2127H89.3977V26.2127ZM89.6707 27.7457L88.6862 27.9211L88.833 28.7457H89.6707V27.7457ZM89.7757 27.7457V28.7457H90.3216L90.6169 28.2865L89.7757 27.7457ZM90.6997 26.7797L91.2689 27.602L91.2752 27.5976L90.6997 26.7797ZM93.3247 27.0028C94.518 27.0028 95.2429 27.2946 95.6775 27.7114L97.0619 26.2681C96.1245 25.3689 94.8194 25.0028 93.3247 25.0028V27.0028ZM95.6852 27.7188C96.0823 28.0916 96.3987 28.8109 96.3987 30.1397H98.3987C98.3987 28.5566 98.029 27.1759 97.0541 26.2607L95.6852 27.7188ZM96.3987 30.1397V37.4688H98.3987V30.1397H96.3987ZM97.3987 36.4688H95.5717V38.4688H97.3987V36.4688ZM96.5717 37.4688V30.2657H94.5717V37.4688H96.5717ZM96.5717 30.2657C96.5717 29.2295 96.3433 28.263 95.7037 27.5572L94.2217 28.9003C94.3941 29.0905 94.5717 29.482 94.5717 30.2657H96.5717ZM95.7037 27.5572C95.0376 26.8223 94.0764 26.5567 93.0517 26.5567V28.5567C93.763 28.5567 94.0758 28.7392 94.2217 28.9003L95.7037 27.5572ZM93.0517 26.5567C91.6407 26.5567 90.3811 26.9572 89.6418 28.0444L91.2956 29.1691C91.5083 28.8563 91.9707 28.5567 93.0517 28.5567V26.5567ZM89.6418 28.0444C89.0064 28.9789 88.7547 30.2173 88.7547 31.6307H90.7547C90.7547 30.4122 90.979 29.6346 91.2956 29.1691L89.6418 28.0444ZM88.7547 31.6307V37.4688H90.7547V31.6307H88.7547ZM89.7547 36.4688H87.9067V38.4688H89.7547V36.4688ZM88.9067 37.4688V26.2127H86.9067V37.4688H88.9067ZM87.9067 27.2127H89.3977V25.2127H87.9067V27.2127ZM88.4132 26.3881L88.6862 27.9211L90.6552 27.5704L90.3822 26.0374L88.4132 26.3881ZM89.6707 28.7457H89.7757V26.7457H89.6707V28.7457ZM90.6169 28.2865C90.8014 27.9994 91.0188 27.7751 91.2689 27.6019L90.1305 25.9576C89.6525 26.2884 89.2539 26.7081 88.9345 27.205L90.6169 28.2865ZM91.2752 27.5976C91.5599 27.3972 91.8697 27.2499 92.2094 27.1544L91.6679 25.2291C91.1116 25.3856 90.5955 25.6303 90.1242 25.9619L91.2752 27.5976ZM92.2094 27.1544C92.5673 27.0537 92.9381 27.0028 93.3247 27.0028V25.0028C92.7593 25.0028 92.2061 25.0778 91.6679 25.2291L92.2094 27.1544ZM106.558 36.1038L106.7 37.0937L106.722 37.0904L106.745 37.0861L106.558 36.1038ZM107.272 35.9357H108.272V34.5818L106.978 34.98L107.272 35.9357ZM107.272 37.3428L107.719 38.2372L108.272 37.9608V37.3428H107.272ZM106.432 37.5737L106.28 36.5854L106.262 36.5882L106.243 36.5917L106.432 37.5737ZM103.744 37.3848L103.35 38.3039L103.366 38.3106L103.382 38.3168L103.744 37.3848ZM102.085 27.6407H103.085V26.6407H102.085V27.6407ZM100.489 27.6407H99.4891V28.6407H100.489V27.6407ZM100.489 26.7587L100.075 25.8484L99.4891 26.1148V26.7587H100.489ZM102.106 26.0237L102.52 26.9341L102.93 26.7478L103.062 26.3172L102.106 26.0237ZM102.841 23.6297V22.6297H102.102L101.885 23.3363L102.841 23.6297ZM103.933 23.6297H104.933V22.6297H103.933V23.6297ZM103.933 26.2127H102.933V27.2127H103.933V26.2127ZM107.188 26.2127H108.188V25.2127H107.188V26.2127ZM107.188 27.6407V28.6407H108.188V27.6407H107.188ZM103.933 27.6407V26.6407H102.933V27.6407H103.933ZM104.416 35.6838L103.694 36.3757L103.709 36.391L103.724 36.4057L104.416 35.6838ZM105.697 37.1667C106.027 37.1667 106.362 37.142 106.7 37.0937L106.417 35.1138C106.167 35.1495 105.927 35.1667 105.697 35.1667V37.1667ZM106.745 37.0861C107.057 37.0266 107.335 36.9626 107.566 36.8915L106.978 34.98C106.845 35.0209 106.647 35.0689 106.371 35.1214L106.745 37.0861ZM106.272 35.9357V37.3428H108.272V35.9357H106.272ZM106.825 36.4483C106.764 36.4789 106.601 36.536 106.28 36.5854L106.584 38.5621C106.991 38.4995 107.389 38.4026 107.719 38.2372L106.825 36.4483ZM106.243 36.5917C105.935 36.651 105.649 36.6787 105.382 36.6787V38.6787C105.788 38.6787 106.201 38.6365 106.621 38.5558L106.243 36.5917ZM105.382 36.6787C104.907 36.6787 104.485 36.6 104.107 36.4527L103.382 38.3168C104.011 38.5615 104.681 38.6787 105.382 38.6787V36.6787ZM104.138 36.4656C103.859 36.3461 103.612 36.1393 103.4 35.7923L101.694 36.8352C102.098 37.4962 102.649 38.0034 103.35 38.3039L104.138 36.4656ZM103.4 35.7923C103.227 35.5084 103.085 35.0103 103.085 34.1927H101.085C101.085 35.1952 101.251 36.1111 101.694 36.8352L103.4 35.7923ZM103.085 34.1927V27.6407H101.085V34.1927H103.085ZM102.085 26.6407H100.489V28.6407H102.085V26.6407ZM101.489 27.6407V26.7587H99.4891V27.6407H101.489ZM100.903 27.6691L102.52 26.9341L101.692 25.1134L100.075 25.8484L100.903 27.6691ZM103.062 26.3172L103.797 23.9232L101.885 23.3363L101.15 25.7303L103.062 26.3172ZM102.841 24.6297H103.933V22.6297H102.841V24.6297ZM102.933 23.6297V26.2127H104.933V23.6297H102.933ZM103.933 27.2127H107.188V25.2127H103.933V27.2127ZM106.188 26.2127V27.6407H108.188V26.2127H106.188ZM107.188 26.6407H103.933V28.6407H107.188V26.6407ZM102.933 27.6407V34.1507H104.933V27.6407H102.933ZM102.933 34.1507C102.933 34.9737 103.125 35.7815 103.694 36.3757L105.138 34.9918C105.064 34.914 104.933 34.6998 104.933 34.1507H102.933ZM103.724 36.4057C104.268 36.9269 104.953 37.1667 105.697 37.1667V35.1667C105.405 35.1667 105.236 35.0846 105.108 34.9618L103.724 36.4057ZM117.359 36.1877L116.556 35.5914L117.359 36.1877ZM115.805 37.3008L115.454 36.3644L115.805 37.3008ZM111.374 37.4897L111.154 38.4654L111.16 38.4665L111.374 37.4897ZM109.883 36.9648H108.883V37.574L109.424 37.8534L109.883 36.9648ZM109.883 35.2847L110.33 34.3903L108.883 33.6667V35.2847H109.883ZM111.5 35.9147L111.203 36.8696L111.215 36.8735L111.228 36.8771L111.5 35.9147ZM115.49 35.7467L116.063 36.566L116.073 36.5597L116.081 36.5532L115.49 35.7467ZM115.889 33.7727L116.713 33.2062V33.2062L115.889 33.7727ZM115.049 33.1007L114.553 33.969L114.559 33.9727L114.566 33.9763L115.049 33.1007ZM113.348 32.3447L112.989 33.2781L112.995 33.2804L113.348 32.3447ZM110.282 30.4967L109.468 31.078L110.282 30.4967ZM111.017 26.7797L110.466 25.9454L110.459 25.95L111.017 26.7797ZM115.994 26.2127L115.762 27.1856L115.776 27.1887L115.789 27.1915L115.994 26.2127ZM117.674 26.7587L118.593 27.1527L118.977 26.2569L118.092 25.8501L117.674 26.7587ZM117.044 28.2287L116.63 29.1391L117.561 29.562L117.963 28.6227L117.044 28.2287ZM116.057 27.8717L115.741 28.8204L115.764 28.8281L115.787 28.8347L116.057 27.8717ZM115.028 27.6198L114.832 28.6003L114.851 28.6041L114.87 28.6072L115.028 27.6198ZM112.214 27.8927L112.733 28.7476L112.741 28.7424L112.214 27.8927ZM111.899 29.6777L111.123 30.3083L111.133 30.3207L111.143 30.3327L111.899 29.6777ZM112.802 30.3077L112.355 31.2022L112.372 31.211L112.39 31.2191L112.802 30.3077ZM114.524 31.0217L114.159 31.9527L114.167 31.9558L114.175 31.9588L114.524 31.0217ZM116.351 31.8407L115.865 32.7149L116.351 31.8407ZM117.506 32.8697L116.67 33.4178L116.674 33.4245L116.679 33.4313L117.506 32.8697ZM116.905 34.3608C116.905 34.9165 116.769 35.3052 116.556 35.5914L118.162 36.7841C118.677 36.0903 118.905 35.261 118.905 34.3608H116.905ZM116.556 35.5914C116.326 35.9015 115.978 36.1679 115.454 36.3644L116.156 38.2371C116.976 37.9296 117.664 37.454 118.162 36.7841L116.556 35.5914ZM115.454 36.3644C114.921 36.5642 114.248 36.6787 113.411 36.6787V38.6787C114.422 38.6787 115.345 38.5413 116.156 38.2371L115.454 36.3644ZM113.411 36.6787C112.677 36.6787 112.073 36.6194 111.588 36.513L111.16 38.4665C111.823 38.6121 112.577 38.6787 113.411 38.6787V36.6787ZM111.594 36.5141C111.103 36.4037 110.688 36.255 110.342 36.0761L109.424 37.8534C109.946 38.1225 110.526 38.3238 111.155 38.4654L111.594 36.5141ZM110.883 36.9648V35.2847H108.883V36.9648H110.883ZM109.436 36.1792C109.945 36.4335 110.537 36.6623 111.203 36.8696L111.797 34.9599C111.204 34.7752 110.718 34.584 110.33 34.3903L109.436 36.1792ZM111.228 36.8771C111.959 37.0836 112.701 37.1877 113.453 37.1877V35.1877C112.889 35.1877 112.329 35.1099 111.772 34.9524L111.228 36.8771ZM113.453 37.1877C114.449 37.1877 115.385 37.0406 116.063 36.566L114.917 34.9275C114.755 35.0409 114.333 35.1877 113.453 35.1877V37.1877ZM116.081 36.5532C116.748 36.0642 117.12 35.3636 117.12 34.5287H115.12C115.12 34.7019 115.072 34.8133 114.899 34.9403L116.081 36.5532ZM117.12 34.5287C117.12 34.0529 116.985 33.6022 116.713 33.2062L115.065 34.3393C115.101 34.3913 115.12 34.4446 115.12 34.5287H117.12ZM116.713 33.2062C116.429 32.7937 115.991 32.4782 115.532 32.2252L114.566 33.9763C114.919 34.1713 115.041 34.3038 115.065 34.3393L116.713 33.2062ZM115.545 32.2325C115.086 31.9699 114.461 31.6961 113.701 31.4091L112.995 33.2804C113.719 33.5534 114.229 33.7836 114.553 33.969L115.545 32.2325ZM113.707 31.4114C113.007 31.1422 112.425 30.8794 111.955 30.625L111.003 32.3845C111.569 32.6901 112.233 32.9873 112.989 33.2781L113.707 31.4114ZM111.955 30.625C111.541 30.4017 111.27 30.1591 111.096 29.9155L109.468 31.078C109.854 31.6184 110.381 32.0478 111.003 32.3845L111.955 30.625ZM111.096 29.9155C110.967 29.735 110.862 29.4505 110.862 28.9847H108.862C108.862 29.751 109.037 30.4745 109.468 31.078L111.096 29.9155ZM110.862 28.9847C110.862 28.3553 111.09 27.936 111.575 27.6095L110.459 25.95C109.404 26.6595 108.862 27.7102 108.862 28.9847H110.862ZM111.568 27.6141C112.142 27.2353 112.954 27.0028 114.083 27.0028V25.0028C112.692 25.0028 111.46 25.2882 110.466 25.9454L111.568 27.6141ZM114.083 27.0028C114.701 27.0028 115.26 27.0659 115.762 27.1856L116.226 25.2399C115.552 25.0796 114.837 25.0028 114.083 25.0028V27.0028ZM115.789 27.1915C116.324 27.3034 116.812 27.463 117.257 27.6674L118.092 25.8501C117.5 25.5785 116.868 25.3741 116.199 25.234L115.789 27.1915ZM116.755 26.3648L116.125 27.8348L117.963 28.6227L118.593 27.1527L116.755 26.3648ZM117.458 27.3184C117.1 27.1557 116.722 27.0196 116.327 26.9088L115.787 28.8347C116.092 28.9199 116.372 29.0218 116.63 29.1391L117.458 27.3184ZM116.373 26.9231C115.986 26.7939 115.59 26.6969 115.186 26.6323L114.87 28.6072C115.166 28.6546 115.456 28.7256 115.741 28.8204L116.373 26.9231ZM115.224 26.6392C114.808 26.556 114.386 26.5147 113.957 26.5147V28.5147C114.256 28.5147 114.548 28.5435 114.832 28.6003L115.224 26.6392ZM113.957 26.5147C113.114 26.5147 112.318 26.6512 111.687 27.0431L112.741 28.7424C112.922 28.6303 113.288 28.5147 113.957 28.5147V26.5147ZM111.695 27.038C111.037 27.4372 110.626 28.0734 110.626 28.8798H112.626C112.626 28.853 112.629 28.8393 112.63 28.835C112.631 28.8312 112.632 28.8305 112.632 28.8298C112.633 28.8288 112.637 28.8214 112.651 28.8082C112.665 28.7944 112.691 28.7733 112.733 28.7475L111.695 27.038ZM110.626 28.8798C110.626 29.4008 110.786 29.8936 111.123 30.3083L112.675 29.0472C112.648 29.0139 112.626 28.9747 112.626 28.8798H110.626ZM111.143 30.3327C111.451 30.6877 111.887 30.9684 112.355 31.2022L113.249 29.4133C112.877 29.2271 112.711 29.0878 112.655 29.0228L111.143 30.3327ZM112.39 31.2191C112.846 31.4249 113.437 31.6698 114.159 31.9527L114.889 30.0908C114.183 29.8137 113.626 29.5826 113.214 29.3964L112.39 31.2191ZM114.175 31.9588C114.856 32.2125 115.417 32.4656 115.865 32.7149L116.837 30.9666C116.277 30.6559 115.62 30.363 114.873 30.0847L114.175 31.9588ZM115.865 32.7149C116.254 32.931 116.508 33.1706 116.67 33.4178L118.342 32.3217C117.972 31.7569 117.456 31.3105 116.837 30.9666L115.865 32.7149ZM116.679 33.4313C116.805 33.6178 116.905 33.9049 116.905 34.3608H118.905C118.905 33.6126 118.739 32.9057 118.333 32.3082L116.679 33.4313Z" fill="black" mask="url(#path-18-outside-1_123_237)"/>
</svg>
