<svg width="175" height="58" viewBox="0 0 175 58" fill="none" xmlns="http://www.w3.org/2000/svg">
<path d="M138.144 9.30422C137.56 9.30422 137.086 8.84698 137.086 8.28297C137.086 7.71895 137.56 7.26172 138.144 7.26172C138.729 7.26172 139.203 7.71895 139.203 8.28297C139.203 8.84698 138.729 9.30422 138.144 9.30422Z" fill="black" stroke="black" stroke-width="1.35241"/>
<path d="M131.68 8.28297C131.68 8.8474 131.206 9.30422 130.621 9.30422C130.036 9.30422 129.562 8.8474 129.562 8.28297C129.562 7.71853 130.036 7.26172 130.621 7.26172C131.206 7.26172 131.68 7.71853 131.68 8.28297Z" fill="black" stroke="black" stroke-width="1.35241"/>
<path d="M124.582 8.28297C124.582 8.8474 124.108 9.30422 123.523 9.30422C122.938 9.30422 122.464 8.8474 122.464 8.28297C122.464 7.71853 122.938 7.26172 123.523 7.26172C124.108 7.26172 124.582 7.71853 124.582 8.28297Z" fill="black" stroke="black" stroke-width="1.35241"/>
<path d="M1.11758 56.912L167.088 56.8091L167.073 35.9753L174.289 35.9609V0.927734L8.29111 0.927734L1.10765 8.07641L1.00104 23.9188L6.30246 23.9021L6.29501 27.083L1.00351 27.0878L1.11758 56.9168V56.912ZM164.968 54.7666L3.22772 54.867L3.12856 29.1231L8.40765 29.1183L8.42253 21.8453L3.13103 21.862L3.21782 8.90392L9.18625 2.96544L172.171 2.96544V33.916L164.956 33.9304L164.971 54.7618L164.968 54.7666Z" fill="#5F5959" fill-opacity="0.3"/>
<path d="M164.968 54.7666L3.22772 54.867L3.12856 29.1231L8.40765 29.1183L8.42253 21.8453L3.13103 21.862L3.21782 8.90392L9.18625 2.96544L172.171 2.96544V33.916L164.956 33.9304L164.971 54.7618L164.968 54.7666Z" fill="#5F5959" fill-opacity="0.3"/>
<path d="M1.11758 56.912L167.088 56.8091L167.073 35.9753L174.289 35.9609V0.927734L8.29111 0.927734L1.10765 8.07641L1.00104 23.9188L6.30246 23.9021L6.29501 27.083L1.00351 27.0878L1.11758 56.9168V56.912ZM164.968 54.7666L3.22772 54.867L3.12856 29.1231L8.40765 29.1183L8.42253 21.8453L3.13103 21.862L3.21782 8.90392L9.18625 2.96544L172.171 2.96544V33.916L164.956 33.9304L164.971 54.7618L164.968 54.7666Z" stroke="black" stroke-width="1.35241"/>
<path d="M164.968 54.7666L3.22772 54.867L3.12856 29.1231L8.40765 29.1183L8.42253 21.8453L3.13103 21.862L3.21782 8.90392L9.18625 2.96544L172.171 2.96544V33.916L164.956 33.9304L164.971 54.7618L164.968 54.7666Z" stroke="black" stroke-width="1.35241"/>
<path d="M35.5253 45.1758L41.165 50.6136H42.3203V49.8141L37.5096 45.1758H35.5253Z" fill="black" stroke="black" stroke-width="1.02293"/>
<path d="M39.4733 45.1758L42.3203 47.92V46.0061L41.4594 45.1758H39.4733Z" fill="black" stroke="black" stroke-width="1.02293"/>
<path d="M31.5654 45.1758L37.2032 50.6136H39.1875L33.5497 45.1758H31.5654Z" fill="black" stroke="black" stroke-width="1.02293"/>
<path d="M27.6279 45.1758L33.2657 50.6136H35.25L29.6122 45.1758H27.6279Z" fill="black" stroke="black" stroke-width="1.02293"/>
<path d="M23.667 45.1758L29.3048 50.6136H31.2891L25.6494 45.1758H23.667Z" fill="black" stroke="black" stroke-width="1.02293"/>
<path d="M19.6904 45.1758L25.3282 50.6136H27.3125L21.6747 45.1758H19.6904Z" fill="black" stroke="black" stroke-width="1.02293"/>
<path d="M15.7276 45.1758L21.3654 50.6136H23.3516L17.7119 45.1758H15.7276Z" fill="black" stroke="black" stroke-width="1.02293"/>
<path d="M11.792 45.1758L17.4317 50.6136H19.4141L13.7763 45.1758H11.792Z" fill="black" stroke="black" stroke-width="1.02293"/>
<path d="M8.69004 45.1758V46.0043L13.4688 50.6136H15.4531L9.81534 45.1758H8.69004Z" fill="black" stroke="black" stroke-width="1.02293"/>
<path d="M8.69267 47.8965V49.8123L9.52352 50.6118H11.5078L8.69267 47.8965Z" fill="black" stroke="black" stroke-width="1.02293"/>
<path d="M166.051 28.9167H167.109V7.76953L145.185 7.76953V8.79078L166.051 8.79078V28.9167Z" fill="black" stroke="black" stroke-width="1.35241"/>
<path d="M8.68816 39.6152H12.2266V43.0282H8.68816V39.6152Z" fill="black" stroke="black" stroke-width="1.35241"/>
<path d="M169.322 38.1934H174.301V56.8388H169.322V38.1934Z" fill="black" stroke="black" stroke-width="1.35241"/>
<mask id="path-18-outside-1_120_197" maskUnits="userSpaceOnUse" x="57.0664" y="20.4688" width="60" height="18" fill="black">
<rect fill="white" x="57.0664" y="20.4688" width="60" height="18"/>
<path d="M69.9264 36.4688H68.1264V29.8087H60.8064V36.4688H59.0064V22.1887H60.8064V28.2287H68.1264V22.1887H69.9264V36.4688ZM83.9106 31.0887C83.9106 31.9821 83.7906 32.7754 83.5506 33.4687C83.324 34.1487 82.9906 34.7287 82.5506 35.2087C82.124 35.6887 81.5973 36.0554 80.9706 36.3087C80.3573 36.5488 79.6706 36.6688 78.9106 36.6688C78.204 36.6688 77.5506 36.5488 76.9506 36.3087C76.3506 36.0554 75.8306 35.6887 75.3906 35.2087C74.9506 34.7287 74.604 34.1487 74.3506 33.4687C74.1106 32.7754 73.9906 31.9821 73.9906 31.0887C73.9906 29.9021 74.1906 28.9021 74.5906 28.0887C74.9906 27.2621 75.564 26.6354 76.3106 26.2087C77.0573 25.7687 77.944 25.5487 78.9706 25.5487C79.944 25.5487 80.7973 25.7687 81.5306 26.2087C82.2773 26.6354 82.8573 27.2621 83.2706 28.0887C83.6973 28.9021 83.9106 29.9021 83.9106 31.0887ZM75.8106 31.0887C75.8106 31.9287 75.9173 32.6621 76.1306 33.2887C76.3573 33.9021 76.704 34.3754 77.1706 34.7087C77.6373 35.0421 78.2306 35.2087 78.9506 35.2087C79.6706 35.2087 80.264 35.0421 80.7306 34.7087C81.1973 34.3754 81.5373 33.9021 81.7506 33.2887C81.9773 32.6621 82.0906 31.9287 82.0906 31.0887C82.0906 30.2354 81.9773 29.5087 81.7506 28.9087C81.524 28.3087 81.1773 27.8487 80.7106 27.5287C80.2573 27.1954 79.664 27.0287 78.9306 27.0287C77.8373 27.0287 77.044 27.3887 76.5506 28.1087C76.0573 28.8287 75.8106 29.8221 75.8106 31.0887ZM99.46 25.5487C100.673 25.5487 101.58 25.8621 102.18 26.4887C102.78 27.1021 103.08 28.1021 103.08 29.4887V36.4688H101.34V29.5687C101.34 28.7287 101.16 28.0954 100.8 27.6687C100.453 27.2421 99.9067 27.0287 99.16 27.0287C98.12 27.0287 97.3733 27.3287 96.92 27.9287C96.48 28.5287 96.26 29.4021 96.26 30.5487V36.4688H94.52V29.5687C94.52 29.0087 94.44 28.5421 94.28 28.1687C94.12 27.7821 93.88 27.4954 93.56 27.3087C93.24 27.1221 92.8267 27.0287 92.32 27.0287C91.6 27.0287 91.0333 27.1821 90.62 27.4887C90.2067 27.7821 89.9067 28.2154 89.72 28.7887C89.5467 29.3621 89.46 30.0687 89.46 30.9087V36.4688H87.7V25.7487H89.12L89.38 27.2087H89.48C89.7067 26.8354 89.98 26.5287 90.3 26.2887C90.6333 26.0354 91 25.8488 91.4 25.7287C91.8 25.6087 92.2133 25.5487 92.64 25.5487C93.4667 25.5487 94.1533 25.6954 94.7 25.9887C95.26 26.2821 95.6667 26.7354 95.92 27.3487H96.02C96.38 26.7354 96.8667 26.2821 97.48 25.9887C98.1067 25.6954 98.7667 25.5487 99.46 25.5487ZM111.531 25.5487C112.451 25.5487 113.238 25.7487 113.891 26.1487C114.558 26.5487 115.065 27.1154 115.411 27.8487C115.771 28.5687 115.951 29.4154 115.951 30.3887V31.4487H108.611C108.638 32.6621 108.945 33.5887 109.531 34.2287C110.131 34.8554 110.965 35.1687 112.031 35.1687C112.711 35.1687 113.311 35.1087 113.831 34.9887C114.365 34.8554 114.911 34.6687 115.471 34.4287V35.9687C114.925 36.2087 114.385 36.3821 113.851 36.4888C113.318 36.6088 112.685 36.6688 111.951 36.6688C110.938 36.6688 110.038 36.4621 109.251 36.0487C108.478 35.6354 107.871 35.0221 107.431 34.2087C107.005 33.3821 106.791 32.3754 106.791 31.1888C106.791 30.0154 106.985 29.0087 107.371 28.1687C107.771 27.3287 108.325 26.6821 109.031 26.2287C109.751 25.7754 110.585 25.5487 111.531 25.5487ZM111.511 26.9887C110.671 26.9887 110.005 27.2621 109.511 27.8087C109.031 28.3421 108.745 29.0887 108.651 30.0487H114.111C114.111 29.4354 114.018 28.9021 113.831 28.4487C113.645 27.9954 113.358 27.6421 112.971 27.3887C112.598 27.1221 112.111 26.9887 111.511 26.9887Z"/>
</mask>
<path d="M69.9264 36.4688H68.1264V29.8087H60.8064V36.4688H59.0064V22.1887H60.8064V28.2287H68.1264V22.1887H69.9264V36.4688ZM83.9106 31.0887C83.9106 31.9821 83.7906 32.7754 83.5506 33.4687C83.324 34.1487 82.9906 34.7287 82.5506 35.2087C82.124 35.6887 81.5973 36.0554 80.9706 36.3087C80.3573 36.5488 79.6706 36.6688 78.9106 36.6688C78.204 36.6688 77.5506 36.5488 76.9506 36.3087C76.3506 36.0554 75.8306 35.6887 75.3906 35.2087C74.9506 34.7287 74.604 34.1487 74.3506 33.4687C74.1106 32.7754 73.9906 31.9821 73.9906 31.0887C73.9906 29.9021 74.1906 28.9021 74.5906 28.0887C74.9906 27.2621 75.564 26.6354 76.3106 26.2087C77.0573 25.7687 77.944 25.5487 78.9706 25.5487C79.944 25.5487 80.7973 25.7687 81.5306 26.2087C82.2773 26.6354 82.8573 27.2621 83.2706 28.0887C83.6973 28.9021 83.9106 29.9021 83.9106 31.0887ZM75.8106 31.0887C75.8106 31.9287 75.9173 32.6621 76.1306 33.2887C76.3573 33.9021 76.704 34.3754 77.1706 34.7087C77.6373 35.0421 78.2306 35.2087 78.9506 35.2087C79.6706 35.2087 80.264 35.0421 80.7306 34.7087C81.1973 34.3754 81.5373 33.9021 81.7506 33.2887C81.9773 32.6621 82.0906 31.9287 82.0906 31.0887C82.0906 30.2354 81.9773 29.5087 81.7506 28.9087C81.524 28.3087 81.1773 27.8487 80.7106 27.5287C80.2573 27.1954 79.664 27.0287 78.9306 27.0287C77.8373 27.0287 77.044 27.3887 76.5506 28.1087C76.0573 28.8287 75.8106 29.8221 75.8106 31.0887ZM99.46 25.5487C100.673 25.5487 101.58 25.8621 102.18 26.4887C102.78 27.1021 103.08 28.1021 103.08 29.4887V36.4688H101.34V29.5687C101.34 28.7287 101.16 28.0954 100.8 27.6687C100.453 27.2421 99.9067 27.0287 99.16 27.0287C98.12 27.0287 97.3733 27.3287 96.92 27.9287C96.48 28.5287 96.26 29.4021 96.26 30.5487V36.4688H94.52V29.5687C94.52 29.0087 94.44 28.5421 94.28 28.1687C94.12 27.7821 93.88 27.4954 93.56 27.3087C93.24 27.1221 92.8267 27.0287 92.32 27.0287C91.6 27.0287 91.0333 27.1821 90.62 27.4887C90.2067 27.7821 89.9067 28.2154 89.72 28.7887C89.5467 29.3621 89.46 30.0687 89.46 30.9087V36.4688H87.7V25.7487H89.12L89.38 27.2087H89.48C89.7067 26.8354 89.98 26.5287 90.3 26.2887C90.6333 26.0354 91 25.8488 91.4 25.7287C91.8 25.6087 92.2133 25.5487 92.64 25.5487C93.4667 25.5487 94.1533 25.6954 94.7 25.9887C95.26 26.2821 95.6667 26.7354 95.92 27.3487H96.02C96.38 26.7354 96.8667 26.2821 97.48 25.9887C98.1067 25.6954 98.7667 25.5487 99.46 25.5487ZM111.531 25.5487C112.451 25.5487 113.238 25.7487 113.891 26.1487C114.558 26.5487 115.065 27.1154 115.411 27.8487C115.771 28.5687 115.951 29.4154 115.951 30.3887V31.4487H108.611C108.638 32.6621 108.945 33.5887 109.531 34.2287C110.131 34.8554 110.965 35.1687 112.031 35.1687C112.711 35.1687 113.311 35.1087 113.831 34.9887C114.365 34.8554 114.911 34.6687 115.471 34.4287V35.9687C114.925 36.2087 114.385 36.3821 113.851 36.4888C113.318 36.6088 112.685 36.6688 111.951 36.6688C110.938 36.6688 110.038 36.4621 109.251 36.0487C108.478 35.6354 107.871 35.0221 107.431 34.2087C107.005 33.3821 106.791 32.3754 106.791 31.1888C106.791 30.0154 106.985 29.0087 107.371 28.1687C107.771 27.3287 108.325 26.6821 109.031 26.2287C109.751 25.7754 110.585 25.5487 111.531 25.5487ZM111.511 26.9887C110.671 26.9887 110.005 27.2621 109.511 27.8087C109.031 28.3421 108.745 29.0887 108.651 30.0487H114.111C114.111 29.4354 114.018 28.9021 113.831 28.4487C113.645 27.9954 113.358 27.6421 112.971 27.3887C112.598 27.1221 112.111 26.9887 111.511 26.9887Z" fill="black"/>
<path d="M69.9264 36.4688V37.4688H70.9264V36.4688H69.9264ZM68.1264 36.4688H67.1264V37.4688H68.1264V36.4688ZM68.1264 29.8088H69.1264V28.8088H68.1264V29.8088ZM60.8064 29.8088V28.8088H59.8064V29.8088H60.8064ZM60.8064 36.4688V37.4688H61.8064V36.4688H60.8064ZM59.0064 36.4688H58.0064V37.4688H59.0064V36.4688ZM59.0064 22.1887V21.1887H58.0064V22.1887H59.0064ZM60.8064 22.1887H61.8064V21.1887H60.8064V22.1887ZM60.8064 28.2287H59.8064V29.2287H60.8064V28.2287ZM68.1264 28.2287V29.2287H69.1264V28.2287H68.1264ZM68.1264 22.1887V21.1887H67.1264V22.1887H68.1264ZM69.9264 22.1887H70.9264V21.1887H69.9264V22.1887ZM69.9264 35.4688H68.1264V37.4688H69.9264V35.4688ZM69.1264 36.4688V29.8088H67.1264V36.4688H69.1264ZM68.1264 28.8088H60.8064V30.8088H68.1264V28.8088ZM59.8064 29.8088V36.4688H61.8064V29.8088H59.8064ZM60.8064 35.4688H59.0064V37.4688H60.8064V35.4688ZM60.0064 36.4688V22.1887H58.0064V36.4688H60.0064ZM59.0064 23.1887H60.8064V21.1887H59.0064V23.1887ZM59.8064 22.1887V28.2287H61.8064V22.1887H59.8064ZM60.8064 29.2287H68.1264V27.2287H60.8064V29.2287ZM69.1264 28.2287V22.1887H67.1264V28.2287H69.1264ZM68.1264 23.1887H69.9264V21.1887H68.1264V23.1887ZM68.9264 22.1887V36.4688H70.9264V22.1887H68.9264ZM83.5506 33.4688L82.6056 33.1416L82.6019 33.1525L83.5506 33.4688ZM82.5506 35.2087L81.8135 34.533L81.8083 34.5387L81.8032 34.5444L82.5506 35.2087ZM80.9706 36.3088L81.335 37.2401L81.3454 37.2359L80.9706 36.3088ZM76.9506 36.3088L76.5617 37.23L76.5704 37.2337L76.5792 37.2372L76.9506 36.3088ZM75.3906 35.2087L74.6535 35.8845L75.3906 35.2087ZM74.3506 33.4688L73.4056 33.7959L73.4095 33.8069L73.4135 33.8179L74.3506 33.4688ZM74.5906 28.0887L75.488 28.5301L75.4908 28.5243L74.5906 28.0887ZM76.3106 26.2087L76.8068 27.0771L76.8183 27.0703L76.3106 26.2087ZM81.5306 26.2087L81.0161 27.0662L81.0253 27.0717L81.0345 27.077L81.5306 26.2087ZM83.2706 28.0887L82.3762 28.536L82.3806 28.5447L82.3851 28.5533L83.2706 28.0887ZM76.1306 33.2887L75.184 33.611L75.1881 33.6233L75.1926 33.6354L76.1306 33.2887ZM77.1706 34.7087L77.7519 33.895L77.1706 34.7087ZM80.7306 34.7087L80.1494 33.895L80.7306 34.7087ZM81.7506 33.2887L80.8102 32.9486L80.8061 32.9602L81.7506 33.2887ZM81.7506 28.9087L82.6861 28.5553L81.7506 28.9087ZM80.7106 27.5287L80.1182 28.3344L80.1315 28.3442L80.1451 28.3535L80.7106 27.5287ZM76.5506 28.1087L77.3756 28.674V28.674L76.5506 28.1087ZM82.9106 31.0887C82.9106 31.8941 82.8023 32.5736 82.6056 33.1416L84.4956 33.7959C84.779 32.9773 84.9106 32.07 84.9106 31.0887H82.9106ZM82.6019 33.1525C82.4152 33.7127 82.1493 34.1667 81.8135 34.533L83.2878 35.8845C83.832 35.2908 84.2327 34.5848 84.4993 33.785L82.6019 33.1525ZM81.8032 34.5444C81.4842 34.9032 81.0874 35.1829 80.5958 35.3816L81.3454 37.2359C82.1072 36.9279 82.7637 36.4743 83.298 35.8731L81.8032 34.5444ZM80.6062 35.3775C80.1254 35.5656 79.5649 35.6688 78.9106 35.6688V37.6688C79.7764 37.6688 80.5891 37.5319 81.335 37.24L80.6062 35.3775ZM78.9106 35.6688C78.3192 35.6688 77.7933 35.5688 77.322 35.3803L76.5792 37.2372C77.308 37.5287 78.0887 37.6688 78.9106 37.6688V35.6688ZM77.3396 35.3875C76.8719 35.19 76.4707 34.9071 76.1278 34.533L74.6535 35.8845C75.1906 36.4704 75.8293 36.9208 76.5617 37.23L77.3396 35.3875ZM76.1278 34.533C75.7843 34.1583 75.5012 33.6927 75.2877 33.1196L73.4135 33.8179C73.7067 34.6048 74.117 35.2992 74.6535 35.8845L76.1278 34.533ZM75.2956 33.1416C75.099 32.5736 74.9906 31.8941 74.9906 31.0887H72.9906C72.9906 32.07 73.1223 32.9773 73.4056 33.7959L75.2956 33.1416ZM74.9906 31.0887C74.9906 30.0096 75.1731 29.1704 75.488 28.5301L73.6933 27.6474C73.2082 28.6338 72.9906 29.7945 72.9906 31.0887H74.9906ZM75.4908 28.5243C75.8092 27.8663 76.2475 27.3966 76.8068 27.077L75.8145 25.3405C74.8804 25.8742 74.1721 26.6578 73.6905 27.6532L75.4908 28.5243ZM76.8183 27.0703C77.3849 26.7364 78.0893 26.5487 78.9706 26.5487V24.5487C77.7986 24.5487 76.7297 24.8011 75.8029 25.3472L76.8183 27.0703ZM78.9706 26.5487C79.7883 26.5487 80.4588 26.7318 81.0161 27.0662L82.0451 25.3513C81.1358 24.8057 80.0997 24.5487 78.9706 24.5487V26.5487ZM81.0345 27.077C81.5968 27.3983 82.0442 27.872 82.3762 28.536L84.1651 27.6415C83.6703 26.6521 82.9578 25.8725 82.0268 25.3405L81.0345 27.077ZM82.3851 28.5533C82.7178 29.1876 82.9106 30.0181 82.9106 31.0887H84.9106C84.9106 29.7861 84.6768 28.6166 84.1562 27.6242L82.3851 28.5533ZM74.8106 31.0887C74.8106 32.0103 74.9273 32.857 75.184 33.611L77.0773 32.9665C76.9073 32.4672 76.8106 31.8472 76.8106 31.0887H74.8106ZM75.1926 33.6354C75.4787 34.4094 75.9376 35.0569 76.5894 35.5225L77.7519 33.895C77.4703 33.6939 77.2359 33.3947 77.0686 32.9421L75.1926 33.6354ZM76.5894 35.5225C77.2646 36.0048 78.0759 36.2087 78.9506 36.2087V34.2087C78.3854 34.2087 78.0099 34.0794 77.7519 33.895L76.5894 35.5225ZM78.9506 36.2087C79.8254 36.2087 80.6366 36.0048 81.3119 35.5225L80.1494 33.895C79.8913 34.0794 79.5159 34.2087 78.9506 34.2087V36.2087ZM81.3119 35.5225C81.9687 35.0533 82.4232 34.3991 82.6951 33.6173L80.8061 32.9602C80.6514 33.405 80.4259 33.6975 80.1494 33.895L81.3119 35.5225ZM82.691 33.6289C82.9659 32.8689 83.0906 32.0158 83.0906 31.0887H81.0906C81.0906 31.8417 80.9887 32.4552 80.8102 32.9486L82.691 33.6289ZM83.0906 31.0887C83.0906 30.1523 82.9669 29.2988 82.6861 28.5553L80.8152 29.2621C80.9876 29.7187 81.0906 30.3186 81.0906 31.0887H83.0906ZM82.6861 28.5553C82.3972 27.7906 81.9333 27.1547 81.2762 26.704L80.1451 28.3535C80.4212 28.5428 80.6507 28.8269 80.8152 29.2621L82.6861 28.5553ZM81.303 26.7231C80.6324 26.23 79.8125 26.0287 78.9306 26.0287V28.0287C79.5154 28.0287 79.8822 28.1608 80.1182 28.3344L81.303 26.7231ZM78.9306 26.0287C77.6014 26.0287 76.4529 26.4822 75.7257 27.5435L77.3756 28.674C77.635 28.2953 78.0732 28.0287 78.9306 28.0287V26.0287ZM75.7257 27.5435C75.0775 28.4895 74.8106 29.7071 74.8106 31.0887H76.8106C76.8106 29.9371 77.037 29.168 77.3756 28.674L75.7257 27.5435ZM102.18 26.4887L101.458 27.1804L101.465 27.188L102.18 26.4887ZM103.08 36.4688V37.4688H104.08V36.4688H103.08ZM101.34 36.4688H100.34V37.4688H101.34V36.4688ZM100.8 27.6687L100.024 28.2993L100.03 28.3065L100.036 28.3136L100.8 27.6687ZM96.92 27.9288L96.1221 27.3259L96.1178 27.3316L96.1136 27.3374L96.92 27.9288ZM96.26 36.4688V37.4688H97.26V36.4688H96.26ZM94.52 36.4688H93.52V37.4688H94.52V36.4688ZM94.28 28.1687L93.3559 28.5511L93.3609 28.5627L94.28 28.1687ZM93.56 27.3087L94.0639 26.445H94.0639L93.56 27.3087ZM90.62 27.4887L91.1987 28.3043L91.2074 28.2981L91.2158 28.2918L90.62 27.4887ZM89.72 28.7887L88.7691 28.4792L88.7659 28.4892L88.7628 28.4994L89.72 28.7887ZM89.46 36.4688V37.4688H90.46V36.4688H89.46ZM87.7 36.4688H86.7V37.4688H87.7V36.4688ZM87.7 25.7487V24.7487H86.7V25.7487H87.7ZM89.12 25.7487L90.1045 25.5734L89.9576 24.7487H89.12V25.7487ZM89.38 27.2087L88.3955 27.3841L88.5423 28.2087H89.38V27.2087ZM89.48 27.2087V28.2087H90.0427L90.3348 27.7277L89.48 27.2087ZM90.3 26.2887L90.9 27.0888L90.9051 27.0849L90.3 26.2887ZM94.7 25.9887L94.2272 26.87L94.236 26.8746L94.7 25.9887ZM95.92 27.3487L94.9957 27.7305L95.2511 28.3487H95.92V27.3487ZM96.02 27.3487V28.3487H96.5926L96.8824 27.8549L96.02 27.3487ZM97.48 25.9887L97.056 25.083L97.0485 25.0866L97.48 25.9887ZM99.46 26.5487C100.512 26.5487 101.111 26.8186 101.458 27.1803L102.902 25.7972C102.049 24.9055 100.835 24.5487 99.46 24.5487V26.5487ZM101.465 27.188C101.797 27.5277 102.08 28.2097 102.08 29.4887H104.08C104.08 27.9945 103.763 26.6765 102.895 25.7895L101.465 27.188ZM102.08 29.4887V36.4688H104.08V29.4887H102.08ZM103.08 35.4688H101.34V37.4688H103.08V35.4688ZM102.34 36.4688V29.5687H100.34V36.4688H102.34ZM102.34 29.5687C102.34 28.6075 102.137 27.7026 101.564 27.0239L100.036 28.3136C100.183 28.4882 100.34 28.85 100.34 29.5687H102.34ZM101.576 27.0382C100.978 26.3014 100.093 26.0287 99.16 26.0287V28.0287C99.7201 28.0287 99.9292 28.1828 100.024 28.2993L101.576 27.0382ZM99.16 26.0287C97.9348 26.0287 96.8303 26.3886 96.1221 27.3259L97.7179 28.5316C97.9164 28.2689 98.3052 28.0287 99.16 28.0287V26.0287ZM96.1136 27.3374C95.4963 28.1792 95.26 29.2973 95.26 30.5487H97.26C97.26 29.5068 97.4637 28.8783 97.7264 28.5201L96.1136 27.3374ZM95.26 30.5487V36.4688H97.26V30.5487H95.26ZM96.26 35.4688H94.52V37.4688H96.26V35.4688ZM95.52 36.4688V29.5687H93.52V36.4688H95.52ZM95.52 29.5687C95.52 28.9213 95.4286 28.3103 95.1991 27.7748L93.3609 28.5627C93.4514 28.7739 93.52 29.0962 93.52 29.5687H95.52ZM95.204 27.7864C94.9718 27.2251 94.597 26.7559 94.0639 26.445L93.0561 28.1725C93.163 28.2349 93.2682 28.3391 93.356 28.5511L95.204 27.7864ZM94.0639 26.445C93.5448 26.1422 92.9413 26.0287 92.32 26.0287V28.0287C92.712 28.0287 92.9352 28.102 93.0561 28.1725L94.0639 26.445ZM92.32 26.0287C91.4689 26.0287 90.6666 26.209 90.0242 26.6857L91.2158 28.2918C91.4001 28.1551 91.7311 28.0287 92.32 28.0287V26.0287ZM90.0413 26.6732C89.4214 27.1131 89.0093 27.7415 88.7691 28.4792L90.6709 29.0983C90.804 28.6893 90.9919 28.451 91.1987 28.3043L90.0413 26.6732ZM88.7628 28.4994C88.5522 29.1958 88.46 30.0069 88.46 30.9087H90.46C90.46 30.1306 90.5411 29.5284 90.6772 29.0781L88.7628 28.4994ZM88.46 30.9087V36.4688H90.46V30.9087H88.46ZM89.46 35.4688H87.7V37.4688H89.46V35.4688ZM88.7 36.4688V25.7487H86.7V36.4688H88.7ZM87.7 26.7487H89.12V24.7487H87.7V26.7487ZM88.1355 25.9241L88.3955 27.3841L90.3645 27.0334L90.1045 25.5734L88.1355 25.9241ZM89.38 28.2087H89.48V26.2087H89.38V28.2087ZM90.3348 27.7277C90.5013 27.4534 90.6911 27.2454 90.9 27.0887L89.7 25.4887C89.2689 25.8121 88.912 26.2174 88.6252 26.6898L90.3348 27.7277ZM90.9051 27.0849C91.1433 26.9039 91.4024 26.7721 91.6873 26.6866L91.1127 24.7709C90.5976 24.9254 90.1234 25.167 89.6949 25.4926L90.9051 27.0849ZM91.6873 26.6866C91.9921 26.5951 92.3085 26.5487 92.64 26.5487V24.5487C92.1181 24.5487 91.6079 24.6224 91.1127 24.7709L91.6873 26.6866ZM92.64 26.5487C93.3544 26.5487 93.8662 26.6762 94.2272 26.8699L95.1728 25.1076C94.4405 24.7146 93.5789 24.5487 92.64 24.5487V26.5487ZM94.236 26.8746C94.5773 27.0533 94.8271 27.3223 94.9957 27.7305L96.8443 26.967C96.5062 26.1485 95.9427 25.5108 95.164 25.1029L94.236 26.8746ZM95.92 28.3487H96.02V26.3487H95.92V28.3487ZM96.8824 27.8549C97.1464 27.4052 97.4866 27.0941 97.9115 26.8909L97.0485 25.0866C96.2467 25.4701 95.6136 26.0656 95.1576 26.8425L96.8824 27.8549ZM97.9039 26.8944C98.3976 26.6634 98.9129 26.5487 99.46 26.5487V24.5487C98.6205 24.5487 97.8157 24.7275 97.0561 25.0831L97.9039 26.8944ZM113.891 26.1487L113.369 27.0016L113.377 27.0062L113.891 26.1487ZM115.411 27.8487L114.507 28.2761L114.512 28.2861L114.517 28.296L115.411 27.8487ZM115.951 31.4487V32.4487H116.951V31.4487H115.951ZM108.611 31.4487V30.4487H107.589L107.612 31.4707L108.611 31.4487ZM109.531 34.2288L108.794 34.9045L108.802 34.9125L108.809 34.9203L109.531 34.2288ZM113.831 34.9888L114.056 35.9631L114.065 35.9611L114.074 35.9589L113.831 34.9888ZM115.471 34.4287H116.471V32.9122L115.077 33.5096L115.471 34.4287ZM115.471 35.9688L115.873 36.8844L116.471 36.6219V35.9688H115.471ZM113.851 36.4888L113.655 35.5082L113.644 35.5105L113.632 35.5131L113.851 36.4888ZM109.251 36.0487L108.78 36.9307L108.786 36.934L109.251 36.0487ZM107.431 34.2087L106.543 34.6674L106.547 34.676L106.552 34.6846L107.431 34.2087ZM107.371 28.1687L106.468 27.7388L106.463 27.7506L107.371 28.1687ZM109.031 26.2287L108.499 25.3825L108.491 25.3871L109.031 26.2287ZM109.511 27.8087L108.769 27.1388L108.768 27.1398L109.511 27.8087ZM108.651 30.0487L107.656 29.952L107.549 31.0487H108.651V30.0487ZM114.111 30.0487V31.0487H115.111V30.0487H114.111ZM113.831 28.4487L112.907 28.8295V28.8295L113.831 28.4487ZM112.971 27.3887L112.39 28.2025L112.407 28.2142L112.423 28.2252L112.971 27.3887ZM111.531 26.5487C112.304 26.5487 112.902 26.7156 113.369 27.0016L114.414 25.2959C113.574 24.7819 112.598 24.5487 111.531 24.5487V26.5487ZM113.377 27.0062C113.866 27.3 114.241 27.7133 114.507 28.2761L116.315 27.4214C115.888 26.5175 115.25 25.7975 114.406 25.2913L113.377 27.0062ZM114.517 28.296C114.795 28.851 114.951 29.5386 114.951 30.3888H116.951C116.951 29.2922 116.748 28.2865 116.306 27.4015L114.517 28.296ZM114.951 30.3888V31.4487H116.951V30.3888H114.951ZM115.951 30.4487H108.611V32.4487H115.951V30.4487ZM107.612 31.4707C107.642 32.8305 107.989 34.0256 108.794 34.9045L110.269 33.553C109.901 33.1519 109.635 32.4937 109.611 31.4268L107.612 31.4707ZM108.809 34.9203C109.639 35.7876 110.759 36.1688 112.031 36.1688V34.1688C111.171 34.1688 110.623 33.9232 110.254 33.5372L108.809 34.9203ZM112.031 36.1688C112.768 36.1688 113.446 36.1041 114.056 35.9631L113.607 34.0144C113.177 34.1134 112.655 34.1688 112.031 34.1688V36.1688ZM114.074 35.9589C114.664 35.8113 115.261 35.6067 115.865 35.3479L115.077 33.5096C114.561 33.7308 114.065 33.8995 113.589 34.0186L114.074 35.9589ZM114.471 34.4287V35.9688H116.471V34.4287H114.471ZM115.069 35.0531C114.582 35.2669 114.111 35.417 113.655 35.5082L114.048 37.4693C114.658 37.3472 115.267 37.1506 115.873 36.8844L115.069 35.0531ZM113.632 35.5131C113.19 35.6125 112.634 35.6688 111.951 35.6688V37.6688C112.735 37.6688 113.446 37.605 114.071 37.4644L113.632 35.5131ZM111.951 35.6688C111.077 35.6688 110.341 35.4915 109.717 35.1635L108.786 36.934C109.735 37.4327 110.799 37.6688 111.951 37.6688V35.6688ZM109.723 35.1668C109.132 34.8511 108.663 34.3837 108.311 33.7329L106.552 34.6846C107.08 35.6605 107.824 36.4198 108.78 36.9307L109.723 35.1668ZM108.32 33.7501C107.984 33.0989 107.791 32.2586 107.791 31.1888H105.791C105.791 32.4922 106.026 33.6652 106.543 34.6674L108.32 33.7501ZM107.791 31.1888C107.791 30.1223 107.967 29.2655 108.28 28.5869L106.463 27.7506C106.002 28.752 105.791 29.9086 105.791 31.1888H107.791ZM108.274 28.5987C108.603 27.9083 109.038 27.4124 109.571 27.0704L108.491 25.3871C107.611 25.9518 106.94 26.7492 106.469 27.7388L108.274 28.5987ZM109.564 27.075C110.107 26.7332 110.751 26.5487 111.531 26.5487V24.5487C110.418 24.5487 109.396 24.8176 108.499 25.3825L109.564 27.075ZM111.511 25.9887C110.432 25.9887 109.48 26.3514 108.769 27.1388L110.254 28.4787C110.53 28.1728 110.91 27.9887 111.511 27.9887V25.9887ZM108.768 27.1398C108.103 27.8787 107.763 28.8516 107.656 29.952L109.647 30.1455C109.726 29.3259 109.96 28.8055 110.255 28.4777L108.768 27.1398ZM108.651 31.0487H114.111V29.0487H108.651V31.0487ZM115.111 30.0487C115.111 29.3364 115.003 28.6683 114.756 28.068L112.907 28.8295C113.033 29.1359 113.111 29.5344 113.111 30.0487H115.111ZM114.756 28.068C114.498 27.4402 114.085 26.9229 113.519 26.5523L112.423 28.2252C112.631 28.3612 112.792 28.5507 112.907 28.8295L114.756 28.068ZM113.553 26.575C112.964 26.1548 112.256 25.9887 111.511 25.9887V27.9887C111.967 27.9887 112.232 28.0894 112.39 28.2025L113.553 26.575Z" fill="black" mask="url(#path-18-outside-1_120_197)"/>
</svg>
