<svg width="175" height="58" viewBox="0 0 175 58" fill="none" xmlns="http://www.w3.org/2000/svg">
<path d="M138.144 9.37648C137.56 9.37648 137.086 8.91925 137.086 8.35523C137.086 7.79122 137.56 7.33398 138.144 7.33398C138.729 7.33398 139.203 7.79122 139.203 8.35523C139.203 8.91925 138.729 9.37648 138.144 9.37648Z" fill="#5F5959" fill-opacity="0.3" stroke="black" stroke-width="1.35241"/>
<path d="M131.68 8.35523C131.68 8.91967 131.206 9.37648 130.621 9.37648C130.036 9.37648 129.562 8.91967 129.562 8.35523C129.562 7.7908 130.036 7.33398 130.621 7.33398C131.206 7.33398 131.68 7.7908 131.68 8.35523Z" fill="#5F5959" fill-opacity="0.3" stroke="black" stroke-width="1.35241"/>
<path d="M124.582 8.35523C124.582 8.91967 124.108 9.37648 123.523 9.37648C122.938 9.37648 122.464 8.91967 122.464 8.35523C122.464 7.7908 122.938 7.33398 123.523 7.33398C124.108 7.33398 124.582 7.7908 124.582 8.35523Z" fill="#5F5959" fill-opacity="0.3" stroke="black" stroke-width="1.35241"/>
<path d="M1.11969 56.9843L167.088 56.8814L167.073 36.0476L174.289 36.0332V1L8.29314 1L1.10977 8.14868L1.00314 23.9911L6.3045 23.9744L6.29706 27.1553L1.00563 27.1601L1.11969 56.989V56.9843ZM164.968 54.8389L3.22981 54.9393L3.13065 29.1954L8.40967 29.1906L8.42455 21.9175L3.13312 21.9343L3.21989 8.97619L9.18826 3.03771L172.171 3.03771V33.9883L164.956 34.0027L164.971 54.8341L164.968 54.8389Z" fill="#5F5959" fill-opacity="0.3"/>
<path d="M164.968 54.8389L3.22981 54.9393L3.13065 29.1954L8.40967 29.1906L8.42455 21.9175L3.13312 21.9343L3.21989 8.97619L9.18826 3.03771L172.171 3.03771V33.9883L164.956 34.0027L164.971 54.8341L164.968 54.8389Z" fill="#5F5959" fill-opacity="0.3"/>
<path d="M1.11969 56.9843L167.088 56.8814L167.073 36.0476L174.289 36.0332V1L8.29314 1L1.10977 8.14868L1.00314 23.9911L6.3045 23.9744L6.29706 27.1553L1.00563 27.1601L1.11969 56.989V56.9843ZM164.968 54.8389L3.22981 54.9393L3.13065 29.1954L8.40967 29.1906L8.42455 21.9175L3.13312 21.9343L3.21989 8.97619L9.18826 3.03771L172.171 3.03771V33.9883L164.956 34.0027L164.971 54.8341L164.968 54.8389Z" stroke="black" stroke-width="1.35241"/>
<path d="M164.968 54.8389L3.22981 54.9393L3.13065 29.1954L8.40967 29.1906L8.42455 21.9175L3.13312 21.9343L3.21989 8.97619L9.18826 3.03771L172.171 3.03771V33.9883L164.956 34.0027L164.971 54.8341L164.968 54.8389Z" stroke="black" stroke-width="1.35241"/>
<path d="M35.5254 45.248L41.165 50.6859H42.3203V49.8863L37.5097 45.248H35.5254Z" fill="#5F5959" fill-opacity="0.3" stroke="black" stroke-width="1.02293"/>
<path d="M39.4733 45.248L42.3203 47.9923V46.0783L41.4595 45.248H39.4733Z" fill="#5F5959" fill-opacity="0.3" stroke="black" stroke-width="1.02293"/>
<path d="M31.5655 45.248L37.2032 50.6859H39.1875L33.5498 45.248H31.5655Z" fill="#5F5959" fill-opacity="0.3" stroke="black" stroke-width="1.02293"/>
<path d="M27.628 45.248L33.2657 50.6859H35.25L29.6123 45.248H27.628Z" fill="#5F5959" fill-opacity="0.3" stroke="black" stroke-width="1.02293"/>
<path d="M23.6671 45.248L29.3048 50.6859H31.2891L25.6495 45.248H23.6671Z" fill="#5F5959" fill-opacity="0.3" stroke="black" stroke-width="1.02293"/>
<path d="M19.6905 45.248L25.3282 50.6859H27.3125L21.6748 45.248H19.6905Z" fill="#5F5959" fill-opacity="0.3" stroke="black" stroke-width="1.02293"/>
<path d="M15.7277 45.248L21.3654 50.6859H23.3516L17.712 45.248H15.7277Z" fill="#5F5959" fill-opacity="0.3" stroke="black" stroke-width="1.02293"/>
<path d="M11.7921 45.248L17.4317 50.6859H19.4141L13.7764 45.248H11.7921Z" fill="#5F5959" fill-opacity="0.3" stroke="black" stroke-width="1.02293"/>
<path d="M8.69012 45.248V46.0766L13.4689 50.6859H15.4531L9.81541 45.248H8.69012Z" fill="#5F5959" fill-opacity="0.3" stroke="black" stroke-width="1.02293"/>
<path d="M8.69271 47.9688V49.8845L9.52354 50.6841H11.5078L8.69271 47.9688Z" fill="#5F5959" fill-opacity="0.3" stroke="black" stroke-width="1.02293"/>
<path d="M166.051 28.989H167.109V7.8418L145.185 7.8418V8.86305L166.051 8.86305V28.989Z" fill="#5F5959" fill-opacity="0.3" stroke="black" stroke-width="1.35241"/>
<path d="M8.6882 39.6875H12.2266V43.1004H8.6882V39.6875Z" fill="#5F5959" fill-opacity="0.3" stroke="black" stroke-width="1.35241"/>
<path d="M169.322 38.2656H174.301V56.9111H169.322V38.2656Z" fill="#5F5959" fill-opacity="0.3" stroke="black" stroke-width="1.35241"/>
<mask id="path-18-outside-1_123_216" maskUnits="userSpaceOnUse" x="37.5078" y="20.4688" width="98" height="18" fill="black">
<rect fill="white" x="37.5078" y="20.4688" width="98" height="18"/>
<path d="M51.9078 29.3087C51.9078 30.4154 51.7678 31.4221 51.4878 32.3287C51.2078 33.2221 50.7878 33.9954 50.2278 34.6487C49.6811 35.3021 48.9945 35.8021 48.1678 36.1487C47.3545 36.4954 46.4078 36.6688 45.3278 36.6688C44.2078 36.6688 43.2345 36.4954 42.4078 36.1487C41.5811 35.7887 40.8945 35.2887 40.3478 34.6487C39.8011 33.9954 39.3945 33.2154 39.1278 32.3087C38.8611 31.4021 38.7278 30.3954 38.7278 29.2887C38.7278 27.8221 38.9678 26.5421 39.4478 25.4488C39.9278 24.3554 40.6545 23.5021 41.6278 22.8887C42.6145 22.2754 43.8545 21.9687 45.3478 21.9687C46.7745 21.9687 47.9745 22.2754 48.9478 22.8887C49.9211 23.4887 50.6545 24.3421 51.1478 25.4488C51.6545 26.5421 51.9078 27.8287 51.9078 29.3087ZM40.6278 29.3087C40.6278 30.5087 40.7945 31.5421 41.1278 32.4087C41.4611 33.2754 41.9745 33.9421 42.6678 34.4087C43.3745 34.8754 44.2611 35.1087 45.3278 35.1087C46.4078 35.1087 47.2878 34.8754 47.9678 34.4087C48.6611 33.9421 49.1745 33.2754 49.5078 32.4087C49.8411 31.5421 50.0078 30.5087 50.0078 29.3087C50.0078 27.5087 49.6345 26.1021 48.8878 25.0887C48.1411 24.0621 46.9611 23.5487 45.3478 23.5487C44.2678 23.5487 43.3745 23.7821 42.6678 24.2487C41.9745 24.7021 41.4611 25.3621 41.1278 26.2287C40.7945 27.0821 40.6278 28.1087 40.6278 29.3087ZM64.7928 25.7487V36.4688H63.3528L63.0928 35.0487H63.0128C62.7861 35.4221 62.4928 35.7287 62.1328 35.9687C61.7728 36.2087 61.3795 36.3821 60.9528 36.4888C60.5261 36.6088 60.0795 36.6688 59.6128 36.6688C58.7595 36.6688 58.0395 36.5354 57.4528 36.2687C56.8795 35.9887 56.4461 35.5621 56.1528 34.9887C55.8595 34.4154 55.7128 33.6754 55.7128 32.7687V25.7487H57.4928V32.6487C57.4928 33.5021 57.6861 34.1421 58.0728 34.5687C58.4595 34.9954 59.0595 35.2087 59.8728 35.2087C60.6728 35.2087 61.2995 35.0621 61.7528 34.7687C62.2195 34.4621 62.5461 34.0221 62.7328 33.4487C62.9328 32.8621 63.0328 32.1554 63.0328 31.3288V25.7487H64.7928ZM74.1961 25.5487C74.3961 25.5487 74.6094 25.5621 74.8361 25.5887C75.0761 25.6021 75.2828 25.6287 75.4561 25.6687L75.2361 27.2887C75.0628 27.2487 74.8694 27.2154 74.6561 27.1887C74.4561 27.1621 74.2628 27.1487 74.0761 27.1487C73.6628 27.1487 73.2694 27.2354 72.8961 27.4087C72.5228 27.5821 72.1894 27.8287 71.8961 28.1487C71.6028 28.4554 71.3694 28.8287 71.1961 29.2687C71.0361 29.7087 70.9561 30.2021 70.9561 30.7487V36.4688H69.1961V25.7487H70.6361L70.8361 27.7087H70.9161C71.1428 27.3087 71.4161 26.9487 71.7361 26.6287C72.0561 26.2954 72.4228 26.0354 72.8361 25.8487C73.2494 25.6487 73.7028 25.5487 74.1961 25.5487ZM87.8116 36.4688H86.0116V23.7687H81.5516V22.1887H92.2516V23.7687H87.8116V36.4688ZM97.8986 25.5487C98.8186 25.5487 99.6053 25.7487 100.259 26.1487C100.925 26.5487 101.432 27.1154 101.779 27.8487C102.139 28.5687 102.319 29.4154 102.319 30.3887V31.4487H94.9786C95.0053 32.6621 95.3119 33.5887 95.8986 34.2287C96.4986 34.8554 97.3319 35.1687 98.3986 35.1687C99.0786 35.1687 99.6786 35.1087 100.199 34.9887C100.732 34.8554 101.279 34.6687 101.839 34.4287V35.9687C101.292 36.2087 100.752 36.3821 100.219 36.4888C99.6853 36.6088 99.0519 36.6688 98.3186 36.6688C97.3053 36.6688 96.4053 36.4621 95.6186 36.0487C94.8453 35.6354 94.2386 35.0221 93.7986 34.2087C93.3719 33.3821 93.1586 32.3754 93.1586 31.1888C93.1586 30.0154 93.3519 29.0087 93.7386 28.1687C94.1386 27.3287 94.6919 26.6821 95.3986 26.2287C96.1186 25.7754 96.9519 25.5487 97.8986 25.5487ZM97.8786 26.9887C97.0386 26.9887 96.3719 27.2621 95.8786 27.8087C95.3986 28.3421 95.1119 29.0887 95.0186 30.0487H100.479C100.479 29.4354 100.385 28.9021 100.199 28.4487C100.012 27.9954 99.7253 27.6421 99.3386 27.3887C98.9653 27.1221 98.4786 26.9887 97.8786 26.9887ZM110.108 25.5687C111.414 25.5687 112.381 25.8554 113.008 26.4287C113.634 27.0021 113.948 27.9154 113.948 29.1687V36.4688H112.668L112.328 34.9487H112.248C111.941 35.3354 111.621 35.6621 111.288 35.9287C110.968 36.1821 110.594 36.3687 110.168 36.4888C109.754 36.6088 109.248 36.6688 108.648 36.6688C108.008 36.6688 107.428 36.5554 106.908 36.3287C106.401 36.1021 106.001 35.7554 105.708 35.2887C105.414 34.8087 105.268 34.2087 105.268 33.4887C105.268 32.4221 105.688 31.6021 106.528 31.0287C107.368 30.4421 108.661 30.1221 110.408 30.0687L112.228 30.0087V29.3687C112.228 28.4754 112.034 27.8554 111.648 27.5087C111.261 27.1621 110.714 26.9887 110.008 26.9887C109.448 26.9887 108.914 27.0754 108.408 27.2487C107.901 27.4087 107.428 27.5954 106.988 27.8087L106.448 26.4887C106.914 26.2354 107.468 26.0221 108.108 25.8487C108.748 25.6621 109.414 25.5687 110.108 25.5687ZM110.628 31.2887C109.294 31.3421 108.368 31.5554 107.848 31.9287C107.341 32.3021 107.088 32.8287 107.088 33.5087C107.088 34.1087 107.268 34.5487 107.628 34.8287C108.001 35.1087 108.474 35.2487 109.048 35.2487C109.954 35.2487 110.708 35.0021 111.308 34.5087C111.908 34.0021 112.208 33.2287 112.208 32.1887V31.2287L110.628 31.2887ZM130.019 25.5487C131.232 25.5487 132.139 25.8621 132.739 26.4887C133.339 27.1021 133.639 28.1021 133.639 29.4887V36.4688H131.899V29.5687C131.899 28.7287 131.719 28.0954 131.359 27.6687C131.012 27.2421 130.465 27.0287 129.719 27.0287C128.679 27.0287 127.932 27.3287 127.479 27.9287C127.039 28.5287 126.819 29.4021 126.819 30.5487V36.4688H125.079V29.5687C125.079 29.0087 124.999 28.5421 124.839 28.1687C124.679 27.7821 124.439 27.4954 124.119 27.3087C123.799 27.1221 123.385 27.0287 122.879 27.0287C122.159 27.0287 121.592 27.1821 121.179 27.4887C120.765 27.7821 120.465 28.2154 120.279 28.7887C120.105 29.3621 120.019 30.0687 120.019 30.9087V36.4688H118.259V25.7487H119.679L119.939 27.2087H120.039C120.265 26.8354 120.539 26.5287 120.859 26.2887C121.192 26.0354 121.559 25.8488 121.959 25.7287C122.359 25.6087 122.772 25.5487 123.199 25.5487C124.025 25.5487 124.712 25.6954 125.259 25.9887C125.819 26.2821 126.225 26.7354 126.479 27.3487H126.579C126.939 26.7354 127.425 26.2821 128.039 25.9887C128.665 25.6954 129.325 25.5487 130.019 25.5487Z"/>
</mask>
<path d="M51.9078 29.3087C51.9078 30.4154 51.7678 31.4221 51.4878 32.3287C51.2078 33.2221 50.7878 33.9954 50.2278 34.6487C49.6811 35.3021 48.9945 35.8021 48.1678 36.1487C47.3545 36.4954 46.4078 36.6688 45.3278 36.6688C44.2078 36.6688 43.2345 36.4954 42.4078 36.1487C41.5811 35.7887 40.8945 35.2887 40.3478 34.6487C39.8011 33.9954 39.3945 33.2154 39.1278 32.3087C38.8611 31.4021 38.7278 30.3954 38.7278 29.2887C38.7278 27.8221 38.9678 26.5421 39.4478 25.4488C39.9278 24.3554 40.6545 23.5021 41.6278 22.8887C42.6145 22.2754 43.8545 21.9687 45.3478 21.9687C46.7745 21.9687 47.9745 22.2754 48.9478 22.8887C49.9211 23.4887 50.6545 24.3421 51.1478 25.4488C51.6545 26.5421 51.9078 27.8287 51.9078 29.3087ZM40.6278 29.3087C40.6278 30.5087 40.7945 31.5421 41.1278 32.4087C41.4611 33.2754 41.9745 33.9421 42.6678 34.4087C43.3745 34.8754 44.2611 35.1087 45.3278 35.1087C46.4078 35.1087 47.2878 34.8754 47.9678 34.4087C48.6611 33.9421 49.1745 33.2754 49.5078 32.4087C49.8411 31.5421 50.0078 30.5087 50.0078 29.3087C50.0078 27.5087 49.6345 26.1021 48.8878 25.0887C48.1411 24.0621 46.9611 23.5487 45.3478 23.5487C44.2678 23.5487 43.3745 23.7821 42.6678 24.2487C41.9745 24.7021 41.4611 25.3621 41.1278 26.2287C40.7945 27.0821 40.6278 28.1087 40.6278 29.3087ZM64.7928 25.7487V36.4688H63.3528L63.0928 35.0487H63.0128C62.7861 35.4221 62.4928 35.7287 62.1328 35.9687C61.7728 36.2087 61.3795 36.3821 60.9528 36.4888C60.5261 36.6088 60.0795 36.6688 59.6128 36.6688C58.7595 36.6688 58.0395 36.5354 57.4528 36.2687C56.8795 35.9887 56.4461 35.5621 56.1528 34.9887C55.8595 34.4154 55.7128 33.6754 55.7128 32.7687V25.7487H57.4928V32.6487C57.4928 33.5021 57.6861 34.1421 58.0728 34.5687C58.4595 34.9954 59.0595 35.2087 59.8728 35.2087C60.6728 35.2087 61.2995 35.0621 61.7528 34.7687C62.2195 34.4621 62.5461 34.0221 62.7328 33.4487C62.9328 32.8621 63.0328 32.1554 63.0328 31.3288V25.7487H64.7928ZM74.1961 25.5487C74.3961 25.5487 74.6094 25.5621 74.8361 25.5887C75.0761 25.6021 75.2828 25.6287 75.4561 25.6687L75.2361 27.2887C75.0628 27.2487 74.8694 27.2154 74.6561 27.1887C74.4561 27.1621 74.2628 27.1487 74.0761 27.1487C73.6628 27.1487 73.2694 27.2354 72.8961 27.4087C72.5228 27.5821 72.1894 27.8287 71.8961 28.1487C71.6028 28.4554 71.3694 28.8287 71.1961 29.2687C71.0361 29.7087 70.9561 30.2021 70.9561 30.7487V36.4688H69.1961V25.7487H70.6361L70.8361 27.7087H70.9161C71.1428 27.3087 71.4161 26.9487 71.7361 26.6287C72.0561 26.2954 72.4228 26.0354 72.8361 25.8487C73.2494 25.6487 73.7028 25.5487 74.1961 25.5487ZM87.8116 36.4688H86.0116V23.7687H81.5516V22.1887H92.2516V23.7687H87.8116V36.4688ZM97.8986 25.5487C98.8186 25.5487 99.6053 25.7487 100.259 26.1487C100.925 26.5487 101.432 27.1154 101.779 27.8487C102.139 28.5687 102.319 29.4154 102.319 30.3887V31.4487H94.9786C95.0053 32.6621 95.3119 33.5887 95.8986 34.2287C96.4986 34.8554 97.3319 35.1687 98.3986 35.1687C99.0786 35.1687 99.6786 35.1087 100.199 34.9887C100.732 34.8554 101.279 34.6687 101.839 34.4287V35.9687C101.292 36.2087 100.752 36.3821 100.219 36.4888C99.6853 36.6088 99.0519 36.6688 98.3186 36.6688C97.3053 36.6688 96.4053 36.4621 95.6186 36.0487C94.8453 35.6354 94.2386 35.0221 93.7986 34.2087C93.3719 33.3821 93.1586 32.3754 93.1586 31.1888C93.1586 30.0154 93.3519 29.0087 93.7386 28.1687C94.1386 27.3287 94.6919 26.6821 95.3986 26.2287C96.1186 25.7754 96.9519 25.5487 97.8986 25.5487ZM97.8786 26.9887C97.0386 26.9887 96.3719 27.2621 95.8786 27.8087C95.3986 28.3421 95.1119 29.0887 95.0186 30.0487H100.479C100.479 29.4354 100.385 28.9021 100.199 28.4487C100.012 27.9954 99.7253 27.6421 99.3386 27.3887C98.9653 27.1221 98.4786 26.9887 97.8786 26.9887ZM110.108 25.5687C111.414 25.5687 112.381 25.8554 113.008 26.4287C113.634 27.0021 113.948 27.9154 113.948 29.1687V36.4688H112.668L112.328 34.9487H112.248C111.941 35.3354 111.621 35.6621 111.288 35.9287C110.968 36.1821 110.594 36.3687 110.168 36.4888C109.754 36.6088 109.248 36.6688 108.648 36.6688C108.008 36.6688 107.428 36.5554 106.908 36.3287C106.401 36.1021 106.001 35.7554 105.708 35.2887C105.414 34.8087 105.268 34.2087 105.268 33.4887C105.268 32.4221 105.688 31.6021 106.528 31.0287C107.368 30.4421 108.661 30.1221 110.408 30.0687L112.228 30.0087V29.3687C112.228 28.4754 112.034 27.8554 111.648 27.5087C111.261 27.1621 110.714 26.9887 110.008 26.9887C109.448 26.9887 108.914 27.0754 108.408 27.2487C107.901 27.4087 107.428 27.5954 106.988 27.8087L106.448 26.4887C106.914 26.2354 107.468 26.0221 108.108 25.8487C108.748 25.6621 109.414 25.5687 110.108 25.5687ZM110.628 31.2887C109.294 31.3421 108.368 31.5554 107.848 31.9287C107.341 32.3021 107.088 32.8287 107.088 33.5087C107.088 34.1087 107.268 34.5487 107.628 34.8287C108.001 35.1087 108.474 35.2487 109.048 35.2487C109.954 35.2487 110.708 35.0021 111.308 34.5087C111.908 34.0021 112.208 33.2287 112.208 32.1887V31.2287L110.628 31.2887ZM130.019 25.5487C131.232 25.5487 132.139 25.8621 132.739 26.4887C133.339 27.1021 133.639 28.1021 133.639 29.4887V36.4688H131.899V29.5687C131.899 28.7287 131.719 28.0954 131.359 27.6687C131.012 27.2421 130.465 27.0287 129.719 27.0287C128.679 27.0287 127.932 27.3287 127.479 27.9287C127.039 28.5287 126.819 29.4021 126.819 30.5487V36.4688H125.079V29.5687C125.079 29.0087 124.999 28.5421 124.839 28.1687C124.679 27.7821 124.439 27.4954 124.119 27.3087C123.799 27.1221 123.385 27.0287 122.879 27.0287C122.159 27.0287 121.592 27.1821 121.179 27.4887C120.765 27.7821 120.465 28.2154 120.279 28.7887C120.105 29.3621 120.019 30.0687 120.019 30.9087V36.4688H118.259V25.7487H119.679L119.939 27.2087H120.039C120.265 26.8354 120.539 26.5287 120.859 26.2887C121.192 26.0354 121.559 25.8488 121.959 25.7287C122.359 25.6087 122.772 25.5487 123.199 25.5487C124.025 25.5487 124.712 25.6954 125.259 25.9887C125.819 26.2821 126.225 26.7354 126.479 27.3487H126.579C126.939 26.7354 127.425 26.2821 128.039 25.9887C128.665 25.6954 129.325 25.5487 130.019 25.5487Z" fill="black"/>
<path d="M51.4878 32.3288L52.442 32.6278L52.4433 32.6238L51.4878 32.3288ZM50.2278 34.6488L49.4685 33.9979L49.4609 34.007L50.2278 34.6488ZM48.1678 36.1488L47.7811 35.2265L47.7757 35.2288L48.1678 36.1488ZM42.4078 36.1488L42.0085 37.0657L42.0211 37.0709L42.4078 36.1488ZM40.3478 34.6488L39.5808 35.2905L39.5874 35.2982L40.3478 34.6488ZM39.1278 32.3088L38.1684 32.5909H38.1684L39.1278 32.3088ZM39.4478 25.4487L40.3635 25.8507H40.3635L39.4478 25.4487ZM41.6278 22.8887L41.0999 22.0394L41.0947 22.0427L41.6278 22.8887ZM48.9478 22.8887L48.4147 23.7348L48.4231 23.74L48.9478 22.8887ZM51.1478 25.4487L50.2345 25.8559L50.2374 25.8626L50.2405 25.8692L51.1478 25.4487ZM42.6678 34.4088L42.1094 35.2384L42.1168 35.2432L42.6678 34.4088ZM47.9678 34.4088L47.4094 33.5791L47.402 33.5842L47.9678 34.4088ZM48.8878 25.0887L48.0791 25.6769L48.0828 25.6819L48.8878 25.0887ZM42.6678 24.2487L43.2151 25.0857L43.2189 25.0832L42.6678 24.2487ZM41.1278 26.2287L42.0593 26.5926L42.0612 26.5877L41.1278 26.2287ZM50.9078 29.3088C50.9078 30.3316 50.7784 31.2369 50.5323 32.0337L52.4433 32.6238C52.7572 31.6072 52.9078 30.4992 52.9078 29.3088H50.9078ZM50.5336 32.0297C50.2905 32.8052 49.9329 33.4562 49.4686 33.998L50.9871 35.2995C51.6427 34.5346 52.1251 33.6389 52.442 32.6278L50.5336 32.0297ZM49.4609 34.007C49.0221 34.5314 48.4684 34.9383 47.7811 35.2266L48.5545 37.0709C49.5206 36.6658 50.3402 36.0728 50.9948 35.2905L49.4609 34.007ZM47.7757 35.2288C47.1106 35.5123 46.3021 35.6688 45.3278 35.6688V37.6688C46.5135 37.6688 47.5984 37.4785 48.5599 37.0687L47.7757 35.2288ZM45.3278 35.6688C44.3086 35.6688 43.4723 35.5108 42.7945 35.2266L42.0211 37.0709C42.9966 37.48 44.107 37.6688 45.3278 37.6688V35.6688ZM42.8071 35.2319C42.1094 34.9281 41.5494 34.5158 41.1082 33.9993L39.5874 35.2982C40.2396 36.0617 41.0529 36.6494 42.0085 37.0656L42.8071 35.2319ZM41.1147 34.007C40.6654 33.47 40.3193 32.8159 40.0872 32.0266L38.1684 32.5909C38.4696 33.6149 38.9369 34.5208 39.5809 35.2905L41.1147 34.007ZM40.0872 32.0266C39.8516 31.2256 39.7278 30.3158 39.7278 29.2887H37.7278C37.7278 30.475 37.8707 31.5785 38.1684 32.5909L40.0872 32.0266ZM39.7278 29.2887C39.7278 27.9297 39.9503 26.7919 40.3635 25.8507L38.5322 25.0468C37.9854 26.2922 37.7278 27.7145 37.7278 29.2887H39.7278ZM40.3635 25.8507C40.7664 24.933 41.3633 24.2374 42.1609 23.7348L41.0947 22.0427C39.9457 22.7667 39.0892 23.7779 38.5322 25.0468L40.3635 25.8507ZM42.1557 23.738C42.9446 23.2477 43.9886 22.9687 45.3478 22.9687V20.9687C43.7204 20.9687 42.2844 21.3032 41.0999 22.0395L42.1557 23.738ZM45.3478 22.9687C46.631 22.9687 47.6354 23.2437 48.4147 23.7348L49.4809 22.0427C48.3136 21.3071 46.9179 20.9687 45.3478 20.9687V22.9687ZM48.4231 23.74C49.2147 24.228 49.8179 24.9214 50.2345 25.8559L52.0612 25.0416C51.4911 23.7627 50.6276 22.7495 49.4726 22.0375L48.4231 23.74ZM50.2405 25.8692C50.6738 26.8043 50.9078 27.9416 50.9078 29.3088H52.9078C52.9078 27.7159 52.6351 26.2799 52.0551 25.0283L50.2405 25.8692ZM39.6278 29.3088C39.6278 30.5973 39.8063 31.7585 40.1945 32.7677L42.0612 32.0498C41.7827 31.3257 41.6278 30.4202 41.6278 29.3088H39.6278ZM40.1945 32.7677C40.593 33.8038 41.227 34.6444 42.1094 35.2383L43.2262 33.5792C42.7219 33.2398 42.3293 32.747 42.0612 32.0498L40.1945 32.7677ZM42.1168 35.2432C43.0247 35.8428 44.116 36.1087 45.3278 36.1087V34.1087C44.4063 34.1087 43.7243 33.908 43.2189 33.5743L42.1168 35.2432ZM45.3278 36.1087C46.548 36.1087 47.6425 35.8448 48.5337 35.2333L47.402 33.5842C46.9331 33.906 46.2677 34.1087 45.3278 34.1087V36.1087ZM48.5262 35.2383C49.4086 34.6444 50.0427 33.8038 50.4412 32.7677L48.5745 32.0498C48.3063 32.747 47.9137 33.2398 47.4094 33.5792L48.5262 35.2383ZM50.4412 32.7677C50.8293 31.7585 51.0078 30.5973 51.0078 29.3088H49.0078C49.0078 30.4202 48.853 31.3257 48.5745 32.0498L50.4412 32.7677ZM51.0078 29.3088C51.0078 27.384 50.6102 25.7405 49.6929 24.4956L48.0828 25.6819C48.6587 26.4636 49.0078 27.6335 49.0078 29.3088H51.0078ZM49.6965 24.5006C48.7115 23.1462 47.185 22.5487 45.3478 22.5487V24.5487C46.7373 24.5487 47.5708 24.978 48.0791 25.6769L49.6965 24.5006ZM45.3478 22.5487C44.1255 22.5487 43.0266 22.8135 42.1168 23.4143L43.2189 25.0832C43.7224 24.7507 44.4101 24.5487 45.3478 24.5487V22.5487ZM42.1206 23.4118C41.2306 23.9937 40.5936 24.832 40.1945 25.8698L42.0612 26.5877C42.3287 25.8922 42.7184 25.4105 43.2151 25.0857L42.1206 23.4118ZM40.1964 25.8649C39.8061 26.864 39.6278 28.0208 39.6278 29.3088H41.6278C41.6278 28.1967 41.7829 27.3002 42.0593 26.5926L40.1964 25.8649ZM64.7928 25.7487H65.7928V24.7487H64.7928V25.7487ZM64.7928 36.4688V37.4688H65.7928V36.4688H64.7928ZM63.3528 36.4688L62.3692 36.6489L62.5193 37.4688H63.3528V36.4688ZM63.0928 35.0487L64.0765 34.8686L63.9263 34.0487H63.0928V35.0487ZM63.0128 35.0487V34.0487H62.4501L62.158 34.5298L63.0128 35.0487ZM62.1328 35.9688L61.5781 35.1367L62.1328 35.9688ZM60.9528 36.4888L60.7103 35.5186L60.6961 35.5221L60.6821 35.5261L60.9528 36.4888ZM57.4528 36.2687L57.014 37.1673L57.0264 37.1734L57.039 37.1791L57.4528 36.2687ZM56.1528 34.9888L55.2626 35.4442L56.1528 34.9888ZM55.7128 25.7487V24.7487H54.7128V25.7487H55.7128ZM57.4928 25.7487H58.4928V24.7487H57.4928V25.7487ZM58.0728 34.5688L58.8138 33.8972L58.0728 34.5688ZM61.7528 34.7687L62.2961 35.6083L62.302 35.6045L61.7528 34.7687ZM62.7328 33.4487L61.7862 33.126L61.7819 33.1392L62.7328 33.4487ZM63.0328 25.7487V24.7487H62.0328V25.7487H63.0328ZM63.7928 25.7487V36.4688H65.7928V25.7487H63.7928ZM64.7928 35.4688H63.3528V37.4688H64.7928V35.4688ZM64.3365 36.2886L64.0765 34.8686L62.1092 35.2289L62.3692 36.6489L64.3365 36.2886ZM63.0928 34.0487H63.0128V36.0487H63.0928V34.0487ZM62.158 34.5298C62.0065 34.7793 61.8152 34.9786 61.5781 35.1367L62.6875 36.8008C63.1704 36.4789 63.5658 36.0649 63.8676 35.5677L62.158 34.5298ZM61.5781 35.1367C61.3151 35.3121 61.0276 35.4393 60.7103 35.5186L61.1953 37.4589C61.7313 37.3249 62.2306 37.1054 62.6875 36.8008L61.5781 35.1367ZM60.6821 35.5261C60.3481 35.62 59.9928 35.6688 59.6128 35.6688V37.6688C60.1662 37.6688 60.7042 37.5975 61.2236 37.4514L60.6821 35.5261ZM59.6128 35.6688C58.8582 35.6688 58.2884 35.5501 57.8666 35.3584L57.039 37.1791C57.7905 37.5207 58.6608 37.6688 59.6128 37.6688V35.6688ZM57.8916 35.3702C57.5147 35.1861 57.2388 34.9159 57.0431 34.5333L55.2626 35.4442C55.6535 36.2083 56.2442 36.7914 57.014 37.1673L57.8916 35.3702ZM57.0431 34.5333C56.8452 34.1465 56.7128 33.5777 56.7128 32.7687H54.7128C54.7128 33.7731 54.8738 34.6843 55.2626 35.4442L57.0431 34.5333ZM56.7128 32.7687V25.7487H54.7128V32.7687H56.7128ZM55.7128 26.7487H57.4928V24.7487H55.7128V26.7487ZM56.4928 25.7487V32.6488H58.4928V25.7487H56.4928ZM56.4928 32.6488C56.4928 33.6332 56.7137 34.5582 57.3318 35.2403L58.8138 33.8972C58.6586 33.7259 58.4928 33.3709 58.4928 32.6488H56.4928ZM57.3318 35.2403C57.9758 35.9508 58.8968 36.2087 59.8728 36.2087V34.2087C59.2221 34.2087 58.9432 34.04 58.8138 33.8972L57.3318 35.2403ZM59.8728 36.2087C60.7783 36.2087 61.6206 36.0454 62.2961 35.6083L61.2096 33.9292C60.9784 34.0788 60.5673 34.2087 59.8728 34.2087V36.2087ZM62.302 35.6045C62.974 35.1629 63.4327 34.5291 63.6837 33.7583L61.7819 33.1392C61.6596 33.515 61.465 33.7613 61.2036 33.933L62.302 35.6045ZM63.6793 33.7714C63.9243 33.0527 64.0328 32.2309 64.0328 31.3287H62.0328C62.0328 32.08 61.9413 32.6715 61.7863 33.1261L63.6793 33.7714ZM64.0328 31.3287V25.7487H62.0328V31.3287H64.0328ZM63.0328 26.7487H64.7928V24.7487H63.0328V26.7487ZM74.8361 25.5887L74.7193 26.5819L74.7499 26.5855L74.7806 26.5872L74.8361 25.5887ZM75.4561 25.6687L76.447 25.8033L76.5697 24.8995L75.681 24.6944L75.4561 25.6687ZM75.2361 27.2887L75.0112 28.2631L76.0795 28.5097L76.227 27.4233L75.2361 27.2887ZM74.6561 27.1887L74.5239 28.18L74.5321 28.181L74.6561 27.1887ZM72.8961 27.4087L73.3172 28.3158H73.3172L72.8961 27.4087ZM71.8961 28.1488L72.6187 28.84L72.6261 28.8323L72.6332 28.8245L71.8961 28.1488ZM71.1961 29.2687L70.2657 28.9022L70.2608 28.9146L70.2563 28.927L71.1961 29.2687ZM70.9561 36.4688V37.4688H71.9561V36.4688H70.9561ZM69.1961 36.4688H68.1961V37.4688H69.1961V36.4688ZM69.1961 25.7487V24.7487H68.1961V25.7487H69.1961ZM70.6361 25.7487L71.6309 25.6472L71.5392 24.7487H70.6361V25.7487ZM70.8361 27.7087L69.8413 27.8103L69.9329 28.7087H70.8361V27.7087ZM70.9161 27.7087V28.7087H71.4988L71.7861 28.2018L70.9161 27.7087ZM71.7361 26.6287L72.4432 27.3359L72.4504 27.3286L72.4575 27.3213L71.7361 26.6287ZM72.8361 25.8487L73.2477 26.7601L73.2597 26.7547L73.2717 26.7489L72.8361 25.8487ZM74.1961 26.5487C74.3521 26.5487 74.5261 26.5592 74.7193 26.5819L74.9529 24.5956C74.6928 24.565 74.4401 24.5487 74.1961 24.5487V26.5487ZM74.7806 26.5872C74.982 26.5984 75.129 26.6196 75.2312 26.6431L75.681 24.6944C75.4365 24.6379 75.1702 24.6058 74.8916 24.5903L74.7806 26.5872ZM74.4652 25.5342L74.2452 27.1542L76.227 27.4233L76.447 25.8033L74.4652 25.5342ZM75.461 26.3144C75.2483 26.2653 75.0206 26.2265 74.7801 26.1965L74.5321 28.181C74.7182 28.2043 74.8772 28.2322 75.0112 28.2631L75.461 26.3144ZM74.7883 26.1975C74.5479 26.1655 74.3103 26.1487 74.0761 26.1487V28.1487C74.2152 28.1487 74.3643 28.1587 74.5239 28.18L74.7883 26.1975ZM74.0761 26.1487C73.5179 26.1487 72.9808 26.2669 72.475 26.5017L73.3172 28.3158C73.558 28.2039 73.8076 28.1487 74.0761 28.1487V26.1487ZM72.475 26.5017C71.9756 26.7336 71.5364 27.0612 71.1589 27.473L72.6332 28.8245C72.8425 28.5963 73.0699 28.4306 73.3172 28.3158L72.475 26.5017ZM71.1735 27.4575C70.7808 27.8681 70.4811 28.3553 70.2657 28.9022L72.1265 29.6353C72.2577 29.3022 72.4248 29.0428 72.6187 28.84L71.1735 27.4575ZM70.2563 28.927C70.0504 29.4932 69.9561 30.1047 69.9561 30.7487H71.9561C71.9561 30.2995 72.0218 29.9243 72.1359 29.6105L70.2563 28.927ZM69.9561 30.7487V36.4688H71.9561V30.7487H69.9561ZM70.9561 35.4688H69.1961V37.4688H70.9561V35.4688ZM70.1961 36.4688V25.7487H68.1961V36.4688H70.1961ZM69.1961 26.7487H70.6361V24.7487H69.1961V26.7487ZM69.6413 25.8503L69.8413 27.8103L71.8309 27.6072L71.6309 25.6472L69.6413 25.8503ZM70.8361 28.7087H70.9161V26.7087H70.8361V28.7087ZM71.7861 28.2018C71.9691 27.8789 72.1879 27.5911 72.4432 27.3359L71.029 25.9216C70.6443 26.3064 70.3164 26.7386 70.0461 27.2157L71.7861 28.2018ZM72.4575 27.3213C72.6908 27.0782 72.9529 26.8933 73.2477 26.7601L72.4245 24.9374C71.8927 25.1776 71.4214 25.5126 71.0147 25.9362L72.4575 27.3213ZM73.2717 26.7489C73.5393 26.6194 73.8422 26.5487 74.1961 26.5487V24.5487C73.5633 24.5487 72.9596 24.6781 72.4005 24.9486L73.2717 26.7489ZM87.8116 36.4688V37.4688H88.8116V36.4688H87.8116ZM86.0116 36.4688H85.0116V37.4688H86.0116V36.4688ZM86.0116 23.7687H87.0116V22.7687H86.0116V23.7687ZM81.5516 23.7687H80.5516V24.7687H81.5516V23.7687ZM81.5516 22.1887V21.1887H80.5516V22.1887H81.5516ZM92.2516 22.1887H93.2516V21.1887H92.2516V22.1887ZM92.2516 23.7687V24.7687H93.2516V23.7687H92.2516ZM87.8116 23.7687V22.7687H86.8116V23.7687H87.8116ZM87.8116 35.4688H86.0116V37.4688H87.8116V35.4688ZM87.0116 36.4688V23.7687H85.0116V36.4688H87.0116ZM86.0116 22.7687H81.5516V24.7687H86.0116V22.7687ZM82.5516 23.7687V22.1887H80.5516V23.7687H82.5516ZM81.5516 23.1887H92.2516V21.1887H81.5516V23.1887ZM91.2516 22.1887V23.7687H93.2516V22.1887H91.2516ZM92.2516 22.7687H87.8116V24.7687H92.2516V22.7687ZM86.8116 23.7687V36.4688H88.8116V23.7687H86.8116ZM100.259 26.1487L99.7364 27.0016L99.7441 27.0062L100.259 26.1487ZM101.779 27.8487L100.875 28.2761L100.879 28.2861L100.884 28.296L101.779 27.8487ZM102.319 31.4487V32.4487H103.319V31.4487H102.319ZM94.9786 31.4487V30.4487H93.9564L93.9788 31.4707L94.9786 31.4487ZM95.8986 34.2288L95.1614 34.9045L95.1688 34.9125L95.1763 34.9203L95.8986 34.2288ZM100.199 34.9888L100.423 35.9631L100.432 35.9611L100.441 35.9589L100.199 34.9888ZM101.839 34.4287H102.839V32.9122L101.445 33.5096L101.839 34.4287ZM101.839 35.9688L102.241 36.8844L102.839 36.6219V35.9688H101.839ZM100.219 36.4888L100.022 35.5082L100.011 35.5105L99.9991 35.5131L100.219 36.4888ZM95.6186 36.0487L95.1472 36.9307L95.1535 36.934L95.6186 36.0487ZM93.7986 34.2087L92.91 34.6674L92.9144 34.676L92.9191 34.6846L93.7986 34.2087ZM93.7386 28.1687L92.8357 27.7388L92.8302 27.7506L93.7386 28.1687ZM95.3986 26.2287L94.8658 25.3825L94.8586 25.3871L95.3986 26.2287ZM95.8786 27.8087L95.1362 27.1388L95.1353 27.1398L95.8786 27.8087ZM95.0186 30.0487L94.0233 29.952L93.9167 31.0487H95.0186V30.0487ZM100.479 30.0487V31.0487H101.479V30.0487H100.479ZM100.199 28.4487L99.2739 28.8295V28.8295L100.199 28.4487ZM99.3386 27.3887L98.7574 28.2025L98.7737 28.2142L98.7906 28.2252L99.3386 27.3887ZM97.8986 26.5487C98.6716 26.5487 99.2693 26.7156 99.7364 27.0016L100.781 25.2959C99.9412 24.7819 98.9656 24.5487 97.8986 24.5487V26.5487ZM99.7441 27.0062C100.234 27.3 100.608 27.7133 100.875 28.2761L102.683 27.4214C102.255 26.5175 101.617 25.7975 100.773 25.2913L99.7441 27.0062ZM100.884 28.296C101.162 28.851 101.319 29.5386 101.319 30.3888H103.319C103.319 29.2922 103.115 28.2865 102.673 27.4015L100.884 28.296ZM101.319 30.3888V31.4487H103.319V30.3888H101.319ZM102.319 30.4487H94.9786V32.4487H102.319V30.4487ZM93.9788 31.4707C94.0087 32.8305 94.3558 34.0256 95.1614 34.9045L96.6357 33.553C96.2681 33.1519 96.0018 32.4937 95.9784 31.4268L93.9788 31.4707ZM95.1763 34.9203C96.0067 35.7876 97.1261 36.1688 98.3986 36.1688V34.1688C97.5378 34.1688 96.9905 33.9232 96.6209 33.5372L95.1763 34.9203ZM98.3986 36.1688C99.1347 36.1688 99.8128 36.1041 100.423 35.9631L99.9737 34.0144C99.5443 34.1134 99.0224 34.1688 98.3986 34.1688V36.1688ZM100.441 35.9589C101.031 35.8113 101.629 35.6067 102.233 35.3479L101.445 33.5096C100.929 33.7308 100.432 33.8995 99.9561 34.0186L100.441 35.9589ZM100.839 34.4287V35.9688H102.839V34.4287H100.839ZM101.437 35.0531C100.95 35.2669 100.479 35.417 100.022 35.5082L100.415 37.4693C101.025 37.3472 101.634 37.1506 102.241 36.8844L101.437 35.0531ZM99.9991 35.5131C99.5575 35.6125 99.0014 35.6688 98.3186 35.6688V37.6688C99.1025 37.6688 99.8131 37.605 100.438 37.4644L99.9991 35.5131ZM98.3186 35.6688C97.4444 35.6688 96.7079 35.4915 96.0837 35.1635L95.1535 36.934C96.1026 37.4327 97.1661 37.6688 98.3186 37.6688V35.6688ZM96.09 35.1668C95.4992 34.8511 95.0302 34.3837 94.6781 33.7329L92.9191 34.6846C93.447 35.6605 94.1913 36.4198 95.1472 36.9307L96.09 35.1668ZM94.6872 33.7501C94.3511 33.0989 94.1586 32.2586 94.1586 31.1888H92.1586C92.1586 32.4922 92.3927 33.6652 92.91 34.6674L94.6872 33.7501ZM94.1586 31.1888C94.1586 30.1223 94.3346 29.2655 94.647 28.5869L92.8302 27.7506C92.3692 28.752 92.1586 29.9086 92.1586 31.1888H94.1586ZM94.6415 28.5987C94.9702 27.9083 95.4055 27.4124 95.9385 27.0704L94.8586 25.3871C93.9783 25.9518 93.307 26.7492 92.8357 27.7388L94.6415 28.5987ZM95.9314 27.075C96.4743 26.7332 97.1186 26.5487 97.8986 26.5487V24.5487C96.7853 24.5487 95.7629 24.8176 94.8658 25.3825L95.9314 27.075ZM97.8786 25.9887C96.7996 25.9887 95.8468 26.3514 95.1362 27.1388L96.621 28.4787C96.8971 28.1728 97.2776 27.9887 97.8786 27.9887V25.9887ZM95.1353 27.1398C94.4703 27.8787 94.1303 28.8516 94.0233 29.952L96.0139 30.1455C96.0936 29.3259 96.3269 28.8055 96.6219 28.4777L95.1353 27.1398ZM95.0186 31.0487H100.479V29.0487H95.0186V31.0487ZM101.479 30.0487C101.479 29.3364 101.37 28.6683 101.123 28.068L99.2739 28.8295C99.4001 29.1359 99.4786 29.5344 99.4786 30.0487H101.479ZM101.123 28.068C100.865 27.4402 100.452 26.9229 99.8866 26.5523L98.7906 28.2252C98.9982 28.3612 99.1591 28.5507 99.2739 28.8295L101.123 28.068ZM99.9198 26.575C99.3315 26.1548 98.6232 25.9887 97.8786 25.9887V27.9887C98.3339 27.9887 98.599 28.0894 98.7574 28.2025L99.9198 26.575ZM113.008 26.4287L113.683 25.6909L113.008 26.4287ZM113.948 36.4688V37.4688H114.948V36.4688H113.948ZM112.668 36.4688L111.692 36.687L111.867 37.4688H112.668V36.4688ZM112.328 34.9487L113.304 34.7305L113.129 33.9487H112.328V34.9487ZM112.248 34.9487V33.9487H111.764L111.464 34.3274L112.248 34.9487ZM111.288 35.9287L111.908 36.7128L111.912 36.7096L111.288 35.9287ZM110.168 36.4888L109.897 35.5261L109.889 35.5284L110.168 36.4888ZM106.908 36.3288L106.499 37.2416L106.508 37.2454L106.908 36.3288ZM105.708 35.2887L104.854 35.8102L104.861 35.8209L105.708 35.2887ZM106.528 31.0287L107.091 31.8547L107.1 31.8486L106.528 31.0287ZM110.408 30.0687L110.438 31.0683L110.441 31.0682L110.408 30.0687ZM112.228 30.0087L112.261 31.0082L113.228 30.9763V30.0087H112.228ZM111.648 27.5087L110.98 28.2533V28.2533L111.648 27.5087ZM108.408 27.2487L108.709 28.2023L108.72 28.1988L108.731 28.1949L108.408 27.2487ZM106.988 27.8087L106.062 28.1874L106.465 29.1733L107.424 28.7086L106.988 27.8087ZM106.448 26.4887L105.971 25.6099L105.183 26.0376L105.522 26.8674L106.448 26.4887ZM108.108 25.8487L108.369 26.814L108.378 26.8115L108.388 26.8087L108.108 25.8487ZM110.628 31.2887L110.59 30.2895L110.588 30.2895L110.628 31.2887ZM107.848 31.9287L107.264 31.1164L107.254 31.1237L107.848 31.9287ZM107.628 34.8288L107.014 35.6181L107.021 35.6235L107.028 35.6287L107.628 34.8288ZM111.308 34.5087L111.943 35.2812L111.953 35.2728L111.308 34.5087ZM112.208 31.2287H113.208V30.1901L112.17 30.2295L112.208 31.2287ZM110.108 26.5687C111.294 26.5687 111.968 26.8328 112.333 27.1666L113.683 25.6909C112.794 24.8781 111.534 24.5687 110.108 24.5687V26.5687ZM112.333 27.1666C112.67 27.4755 112.948 28.0614 112.948 29.1687H114.948C114.948 27.7694 114.598 26.5287 113.683 25.6909L112.333 27.1666ZM112.948 29.1687V36.4688H114.948V29.1687H112.948ZM113.948 35.4688H112.668V37.4688H113.948V35.4688ZM113.644 36.2505L113.304 34.7305L111.352 35.167L111.692 36.687L113.644 36.2505ZM112.328 33.9487H112.248V35.9487H112.328V33.9487ZM111.464 34.3274C111.197 34.664 110.929 34.9349 110.663 35.1479L111.912 36.7096C112.313 36.3893 112.685 36.0068 113.031 35.5701L111.464 34.3274ZM110.667 35.1447C110.459 35.3091 110.207 35.4388 109.897 35.5261L110.438 37.4514C110.981 37.2987 111.476 37.055 111.908 36.7128L110.667 35.1447ZM109.889 35.5284C109.594 35.614 109.187 35.6688 108.648 35.6688V37.6688C109.308 37.6688 109.915 37.6035 110.446 37.4491L109.889 35.5284ZM108.648 35.6688C108.128 35.6688 107.686 35.5771 107.307 35.4121L106.508 37.2454C107.169 37.5337 107.888 37.6688 108.648 37.6688V35.6688ZM107.316 35.4159C106.989 35.2694 106.742 35.0546 106.554 34.7566L104.861 35.8209C105.26 36.4563 105.813 36.9347 106.499 37.2416L107.316 35.4159ZM106.561 34.7673C106.387 34.4826 106.268 34.0755 106.268 33.4888H104.268C104.268 34.342 104.442 35.1349 104.854 35.8102L106.561 34.7673ZM106.268 33.4888C106.268 32.7334 106.54 32.2311 107.091 31.8547L105.964 30.2028C104.835 30.973 104.268 32.1108 104.268 33.4888H106.268ZM107.1 31.8486C107.704 31.4269 108.764 31.1194 110.438 31.0683L110.377 29.0692C108.558 29.1248 107.031 29.4573 105.955 30.2089L107.1 31.8486ZM110.441 31.0682L112.261 31.0082L112.195 29.0093L110.375 29.0693L110.441 31.0682ZM113.228 30.0087V29.3687H111.228V30.0087H113.228ZM113.228 29.3687C113.228 28.3853 113.024 27.3999 112.315 26.7642L110.98 28.2533C111.044 28.311 111.228 28.5655 111.228 29.3687H113.228ZM112.315 26.7642C111.688 26.2017 110.871 25.9887 110.008 25.9887V27.9887C110.558 27.9887 110.834 28.1225 110.98 28.2533L112.315 26.7642ZM110.008 25.9887C109.343 25.9887 108.7 26.092 108.084 26.3026L108.731 28.1949C109.129 28.0588 109.553 27.9887 110.008 27.9887V25.9887ZM108.107 26.2952C107.558 26.4685 107.039 26.6727 106.551 26.9089L107.424 28.7086C107.817 28.5181 108.244 28.349 108.709 28.2023L108.107 26.2952ZM107.913 27.4301L107.373 26.1101L105.522 26.8674L106.062 28.1874L107.913 27.4301ZM106.925 27.3676C107.309 27.1592 107.786 26.9718 108.369 26.814L107.846 24.8835C107.149 25.0724 106.52 25.3117 105.971 25.6099L106.925 27.3676ZM108.388 26.8087C108.933 26.6497 109.505 26.5687 110.108 26.5687V24.5687C109.323 24.5687 108.562 24.6745 107.828 24.8888L108.388 26.8087ZM110.588 30.2895C109.23 30.3438 108.041 30.5588 107.264 31.1164L108.431 32.7411C108.694 32.552 109.358 32.3403 110.668 32.288L110.588 30.2895ZM107.254 31.1237C106.469 31.7025 106.088 32.5408 106.088 33.5088H108.088C108.088 33.1167 108.213 32.9017 108.441 32.7338L107.254 31.1237ZM106.088 33.5088C106.088 34.3119 106.338 35.0922 107.014 35.6181L108.242 34.0394C108.198 34.0053 108.088 33.9056 108.088 33.5088H106.088ZM107.028 35.6287C107.611 36.0659 108.308 36.2488 109.048 36.2488V34.2488C108.64 34.2488 108.391 34.1516 108.228 34.0287L107.028 35.6287ZM109.048 36.2488C110.145 36.2488 111.135 35.9455 111.943 35.2812L110.673 33.7363C110.281 34.0586 109.763 34.2488 109.048 34.2488V36.2488ZM111.953 35.2728C112.845 34.5191 113.208 33.4216 113.208 32.1887H111.208C111.208 33.0359 110.97 33.4851 110.662 33.7447L111.953 35.2728ZM113.208 32.1887V31.2287H111.208V32.1887H113.208ZM112.17 30.2295L110.59 30.2895L110.666 32.288L112.246 32.228L112.17 30.2295ZM132.739 26.4887L132.016 27.1804L132.024 27.188L132.739 26.4887ZM133.639 36.4688V37.4688H134.639V36.4688H133.639ZM131.899 36.4688H130.899V37.4688H131.899V36.4688ZM131.359 27.6687L130.582 28.2993L130.588 28.3065L130.594 28.3136L131.359 27.6687ZM127.479 27.9288L126.681 27.3259L126.676 27.3316L126.672 27.3374L127.479 27.9288ZM126.819 36.4688V37.4688H127.819V36.4688H126.819ZM125.079 36.4688H124.079V37.4688H125.079V36.4688ZM124.839 28.1687L123.915 28.5511L123.919 28.5627L124.839 28.1687ZM124.119 27.3087L124.622 26.445L124.119 27.3087ZM121.179 27.4887L121.757 28.3043L121.766 28.2981L121.774 28.2918L121.179 27.4887ZM120.279 28.7887L119.328 28.4792L119.324 28.4892L119.321 28.4994L120.279 28.7887ZM120.019 36.4688V37.4688H121.019V36.4688H120.019ZM118.259 36.4688H117.259V37.4688H118.259V36.4688ZM118.259 25.7487V24.7487H117.259V25.7487H118.259ZM119.679 25.7487L120.663 25.5734L120.516 24.7487H119.679V25.7487ZM119.939 27.2087L118.954 27.3841L119.101 28.2087H119.939V27.2087ZM120.039 27.2087V28.2087H120.601L120.893 27.7277L120.039 27.2087ZM120.859 26.2887L121.459 27.0888L121.464 27.0849L120.859 26.2887ZM125.259 25.9887L124.786 26.87L124.795 26.8746L125.259 25.9887ZM126.479 27.3487L125.554 27.7305L125.81 28.3487H126.479V27.3487ZM126.579 27.3487V28.3487H127.151L127.441 27.8549L126.579 27.3487ZM128.039 25.9887L127.615 25.083L127.607 25.0866L128.039 25.9887ZM130.019 26.5487C131.07 26.5487 131.67 26.8186 132.016 27.1803L133.461 25.7972C132.607 24.9055 131.394 24.5487 130.019 24.5487V26.5487ZM132.024 27.188C132.356 27.5277 132.639 28.2097 132.639 29.4887H134.639C134.639 27.9945 134.321 26.6765 133.453 25.7895L132.024 27.188ZM132.639 29.4887V36.4688H134.639V29.4887H132.639ZM133.639 35.4688H131.899V37.4688H133.639V35.4688ZM132.899 36.4688V29.5687H130.899V36.4688H132.899ZM132.899 29.5687C132.899 28.6075 132.696 27.7026 132.123 27.0239L130.594 28.3136C130.742 28.4882 130.899 28.85 130.899 29.5687H132.899ZM132.135 27.0382C131.536 26.3014 130.652 26.0287 129.719 26.0287V28.0287C130.279 28.0287 130.488 28.1828 130.582 28.2993L132.135 27.0382ZM129.719 26.0287C128.493 26.0287 127.389 26.3886 126.681 27.3259L128.276 28.5316C128.475 28.2689 128.864 28.0287 129.719 28.0287V26.0287ZM126.672 27.3374C126.055 28.1792 125.819 29.2973 125.819 30.5487H127.819C127.819 29.5068 128.022 28.8783 128.285 28.5201L126.672 27.3374ZM125.819 30.5487V36.4688H127.819V30.5487H125.819ZM126.819 35.4688H125.079V37.4688H126.819V35.4688ZM126.079 36.4688V29.5687H124.079V36.4688H126.079ZM126.079 29.5687C126.079 28.9213 125.987 28.3103 125.758 27.7748L123.919 28.5627C124.01 28.7739 124.079 29.0962 124.079 29.5687H126.079ZM125.763 27.7864C125.53 27.2251 125.156 26.7559 124.622 26.445L123.615 28.1725C123.722 28.2349 123.827 28.3391 123.915 28.5511L125.763 27.7864ZM124.622 26.445C124.103 26.1422 123.5 26.0287 122.879 26.0287V28.0287C123.271 28.0287 123.494 28.102 123.615 28.1725L124.622 26.445ZM122.879 26.0287C122.027 26.0287 121.225 26.209 120.583 26.6857L121.774 28.2918C121.959 28.1551 122.29 28.0287 122.879 28.0287V26.0287ZM120.6 26.6732C119.98 27.1131 119.568 27.7415 119.328 28.4792L121.229 29.0983C121.363 28.6893 121.551 28.451 121.757 28.3043L120.6 26.6732ZM119.321 28.4994C119.111 29.1958 119.019 30.0069 119.019 30.9087H121.019C121.019 30.1306 121.1 29.5284 121.236 29.0781L119.321 28.4994ZM119.019 30.9087V36.4688H121.019V30.9087H119.019ZM120.019 35.4688H118.259V37.4688H120.019V35.4688ZM119.259 36.4688V25.7487H117.259V36.4688H119.259ZM118.259 26.7487H119.679V24.7487H118.259V26.7487ZM118.694 25.9241L118.954 27.3841L120.923 27.0334L120.663 25.5734L118.694 25.9241ZM119.939 28.2087H120.039V26.2087H119.939V28.2087ZM120.893 27.7277C121.06 27.4534 121.25 27.2454 121.459 27.0887L120.259 25.4887C119.827 25.8121 119.471 26.2174 119.184 26.6898L120.893 27.7277ZM121.464 27.0849C121.702 26.9039 121.961 26.7721 122.246 26.6866L121.671 24.7709C121.156 24.9254 120.682 25.167 120.254 25.4926L121.464 27.0849ZM122.246 26.6866C122.551 26.5951 122.867 26.5487 123.199 26.5487V24.5487C122.677 24.5487 122.166 24.6224 121.671 24.7709L122.246 26.6866ZM123.199 26.5487C123.913 26.5487 124.425 26.6762 124.786 26.8699L125.731 25.1076C124.999 24.7146 124.138 24.5487 123.199 24.5487V26.5487ZM124.795 26.8746C125.136 27.0533 125.386 27.3223 125.554 27.7305L127.403 26.967C127.065 26.1485 126.501 25.5108 125.723 25.1029L124.795 26.8746ZM126.479 28.3487H126.579V26.3487H126.479V28.3487ZM127.441 27.8549C127.705 27.4052 128.045 27.0941 128.47 26.8909L127.607 25.0866C126.805 25.4701 126.172 26.0656 125.716 26.8425L127.441 27.8549ZM128.463 26.8944C128.956 26.6634 129.471 26.5487 130.019 26.5487V24.5487C129.179 24.5487 128.374 24.7275 127.615 25.0831L128.463 26.8944Z" fill="black" mask="url(#path-18-outside-1_123_216)"/>
</svg>
