<svg width="175" height="58" viewBox="0 0 175 58" fill="none" xmlns="http://www.w3.org/2000/svg">
<path d="M138.144 9.37648C137.56 9.37648 137.086 8.91925 137.086 8.35523C137.086 7.79122 137.56 7.33398 138.144 7.33398C138.729 7.33398 139.203 7.79122 139.203 8.35523C139.203 8.91925 138.729 9.37648 138.144 9.37648Z" fill="black" stroke="black" stroke-width="1.35241"/>
<path d="M131.68 8.35523C131.68 8.91967 131.206 9.37648 130.621 9.37648C130.036 9.37648 129.562 8.91967 129.562 8.35523C129.562 7.7908 130.036 7.33398 130.621 7.33398C131.206 7.33398 131.68 7.7908 131.68 8.35523Z" fill="black" stroke="black" stroke-width="1.35241"/>
<path d="M124.582 8.35523C124.582 8.91967 124.108 9.37648 123.523 9.37648C122.938 9.37648 122.464 8.91967 122.464 8.35523C122.464 7.7908 122.938 7.33398 123.523 7.33398C124.108 7.33398 124.582 7.7908 124.582 8.35523Z" fill="black" stroke="black" stroke-width="1.35241"/>
<path d="M1.11969 56.9843L167.088 56.8814L167.073 36.0476L174.289 36.0332V1L8.29314 1L1.10977 8.14868L1.00314 23.9911L6.3045 23.9744L6.29706 27.1553L1.00563 27.1601L1.11969 56.989V56.9843ZM164.968 54.8389L3.22981 54.9393L3.13065 29.1954L8.40967 29.1906L8.42455 21.9175L3.13312 21.9343L3.21989 8.97619L9.18826 3.03771L172.171 3.03771V33.9883L164.956 34.0027L164.971 54.8341L164.968 54.8389Z" fill="#5F5959" fill-opacity="0.3"/>
<path d="M164.968 54.8389L3.22981 54.9393L3.13065 29.1954L8.40967 29.1906L8.42455 21.9175L3.13312 21.9343L3.21989 8.97619L9.18826 3.03771L172.171 3.03771V33.9883L164.956 34.0027L164.971 54.8341L164.968 54.8389Z" fill="#5F5959" fill-opacity="0.3"/>
<path d="M1.11969 56.9843L167.088 56.8814L167.073 36.0476L174.289 36.0332V1L8.29314 1L1.10977 8.14868L1.00314 23.9911L6.3045 23.9744L6.29706 27.1553L1.00563 27.1601L1.11969 56.989V56.9843ZM164.968 54.8389L3.22981 54.9393L3.13065 29.1954L8.40967 29.1906L8.42455 21.9175L3.13312 21.9343L3.21989 8.97619L9.18826 3.03771L172.171 3.03771V33.9883L164.956 34.0027L164.971 54.8341L164.968 54.8389Z" stroke="black" stroke-width="1.35241"/>
<path d="M164.968 54.8389L3.22981 54.9393L3.13065 29.1954L8.40967 29.1906L8.42455 21.9175L3.13312 21.9343L3.21989 8.97619L9.18826 3.03771L172.171 3.03771V33.9883L164.956 34.0027L164.971 54.8341L164.968 54.8389Z" stroke="black" stroke-width="1.35241"/>
<path d="M35.5254 45.248L41.165 50.6859H42.3203V49.8863L37.5097 45.248H35.5254Z" fill="black" stroke="black" stroke-width="1.02293"/>
<path d="M39.4733 45.248L42.3203 47.9923V46.0783L41.4595 45.248H39.4733Z" fill="black" stroke="black" stroke-width="1.02293"/>
<path d="M31.5655 45.248L37.2032 50.6859H39.1875L33.5498 45.248H31.5655Z" fill="black" stroke="black" stroke-width="1.02293"/>
<path d="M27.628 45.248L33.2657 50.6859H35.25L29.6123 45.248H27.628Z" fill="black" stroke="black" stroke-width="1.02293"/>
<path d="M23.6671 45.248L29.3048 50.6859H31.2891L25.6495 45.248H23.6671Z" fill="black" stroke="black" stroke-width="1.02293"/>
<path d="M19.6905 45.248L25.3282 50.6859H27.3125L21.6748 45.248H19.6905Z" fill="black" stroke="black" stroke-width="1.02293"/>
<path d="M15.7277 45.248L21.3654 50.6859H23.3516L17.712 45.248H15.7277Z" fill="black" stroke="black" stroke-width="1.02293"/>
<path d="M11.7921 45.248L17.4317 50.6859H19.4141L13.7764 45.248H11.7921Z" fill="black" stroke="black" stroke-width="1.02293"/>
<path d="M8.69012 45.248V46.0766L13.4689 50.6859H15.4531L9.81541 45.248H8.69012Z" fill="black" stroke="black" stroke-width="1.02293"/>
<path d="M8.69271 47.9688V49.8845L9.52354 50.6841H11.5078L8.69271 47.9688Z" fill="black" stroke="black" stroke-width="1.02293"/>
<path d="M166.051 28.989H167.109V7.8418L145.185 7.8418V8.86305L166.051 8.86305V28.989Z" fill="black" stroke="black" stroke-width="1.35241"/>
<path d="M8.6882 39.6875H12.2266V43.1004H8.6882V39.6875Z" fill="black" stroke="black" stroke-width="1.35241"/>
<path d="M169.322 38.2656H174.301V56.9111H169.322V38.2656Z" fill="black" stroke="black" stroke-width="1.35241"/>
<mask id="path-18-outside-1_123_195" maskUnits="userSpaceOnUse" x="44" y="20" width="86" height="22" fill="black">
<rect fill="white" x="44" y="20" width="86" height="22"/>
<path d="M49.88 21.72C51.0667 21.72 52.04 21.8733 52.8 22.18C53.5733 22.4733 54.1467 22.92 54.52 23.52C54.8933 24.12 55.08 24.8733 55.08 25.78C55.08 26.54 54.94 27.1733 54.66 27.68C54.38 28.1867 54.02 28.5933 53.58 28.9C53.1533 29.1933 52.7 29.4267 52.22 29.6L56.14 36H54.04L50.58 30.1H47.74V36H45.94V21.72H49.88ZM49.78 23.28H47.74V28.58H49.88C50.6533 28.58 51.2867 28.48 51.78 28.28C52.2733 28.0667 52.6333 27.76 52.86 27.36C53.1 26.96 53.22 26.46 53.22 25.86C53.22 25.2333 53.0933 24.7333 52.84 24.36C52.6 23.9867 52.2267 23.7133 51.72 23.54C51.2133 23.3667 50.5667 23.28 49.78 23.28ZM63.2814 25.08C64.2014 25.08 64.9881 25.28 65.6414 25.68C66.3081 26.08 66.8147 26.6467 67.1614 27.38C67.5214 28.1 67.7014 28.9467 67.7014 29.92V30.98H60.3614C60.3881 32.1933 60.6947 33.12 61.2814 33.76C61.8814 34.3867 62.7147 34.7 63.7814 34.7C64.4614 34.7 65.0614 34.64 65.5814 34.52C66.1147 34.3867 66.6614 34.2 67.2214 33.96V35.5C66.6747 35.74 66.1347 35.9133 65.6014 36.02C65.0681 36.14 64.4347 36.2 63.7014 36.2C62.6881 36.2 61.7881 35.9933 61.0014 35.58C60.2281 35.1667 59.6214 34.5533 59.1814 33.74C58.7547 32.9133 58.5414 31.9067 58.5414 30.72C58.5414 29.5467 58.7347 28.54 59.1214 27.7C59.5214 26.86 60.0747 26.2133 60.7814 25.76C61.5014 25.3067 62.3347 25.08 63.2814 25.08ZM63.2614 26.52C62.4214 26.52 61.7547 26.7933 61.2614 27.34C60.7814 27.8733 60.4947 28.62 60.4014 29.58H65.8614C65.8614 28.9667 65.7681 28.4333 65.5814 27.98C65.3947 27.5267 65.1081 27.1733 64.7214 26.92C64.3481 26.6533 63.8614 26.52 63.2614 26.52ZM75.2305 25.08C75.9371 25.08 76.5705 25.2133 77.1305 25.48C77.7038 25.7467 78.1905 26.1533 78.5905 26.7H78.6905L78.9305 25.28H80.3305V36.18C80.3305 37.1933 80.1571 38.04 79.8105 38.72C79.4638 39.4133 78.9371 39.9333 78.2305 40.28C77.5238 40.6267 76.6238 40.8 75.5305 40.8C74.7571 40.8 74.0438 40.74 73.3905 40.62C72.7505 40.5133 72.1771 40.3467 71.6705 40.12V38.5C72.0171 38.6733 72.3971 38.82 72.8105 38.94C73.2238 39.0733 73.6705 39.1733 74.1505 39.24C74.6305 39.3067 75.1238 39.34 75.6305 39.34C76.5505 39.34 77.2705 39.0667 77.7905 38.52C78.3238 37.9867 78.5905 37.2533 78.5905 36.32V35.9C78.5905 35.74 78.5971 35.5133 78.6105 35.22C78.6238 34.9133 78.6371 34.7 78.6505 34.58H78.5705C78.1971 35.1267 77.7305 35.5333 77.1705 35.8C76.6238 36.0667 75.9838 36.2 75.2505 36.2C73.8638 36.2 72.7771 35.7133 71.9905 34.74C71.2171 33.7667 70.8305 32.4067 70.8305 30.66C70.8305 29.5133 71.0038 28.5267 71.3505 27.7C71.7105 26.86 72.2171 26.2133 72.8705 25.76C73.5238 25.3067 74.3105 25.08 75.2305 25.08ZM75.4705 26.56C74.8705 26.56 74.3571 26.72 73.9305 27.04C73.5171 27.36 73.1971 27.8267 72.9705 28.44C72.7571 29.0533 72.6505 29.8 72.6505 30.68C72.6505 32 72.8905 33.0133 73.3705 33.72C73.8638 34.4133 74.5771 34.76 75.5105 34.76C76.0571 34.76 76.5238 34.6933 76.9105 34.56C77.2971 34.4133 77.6171 34.1933 77.8705 33.9C78.1238 33.5933 78.3105 33.2067 78.4305 32.74C78.5505 32.2733 78.6105 31.72 78.6105 31.08V30.66C78.6105 29.6867 78.4971 28.9 78.2705 28.3C78.0571 27.7 77.7171 27.26 77.2505 26.98C76.7838 26.7 76.1905 26.56 75.4705 26.56ZM86.4952 25.28V36H84.7352V25.28H86.4952ZM85.6352 21.26C85.9018 21.26 86.1352 21.3533 86.3352 21.54C86.5485 21.7133 86.6552 21.9933 86.6552 22.38C86.6552 22.7533 86.5485 23.0333 86.3352 23.22C86.1352 23.4067 85.9018 23.5 85.6352 23.5C85.3418 23.5 85.0952 23.4067 84.8952 23.22C84.6952 23.0333 84.5952 22.7533 84.5952 22.38C84.5952 21.9933 84.6952 21.7133 84.8952 21.54C85.0952 21.3533 85.3418 21.26 85.6352 21.26ZM97.8714 33.04C97.8714 33.7333 97.6981 34.3133 97.3514 34.78C97.0047 35.2467 96.5114 35.6 95.8714 35.84C95.2314 36.08 94.4714 36.2 93.5914 36.2C92.8447 36.2 92.1981 36.14 91.6514 36.02C91.1181 35.9 90.6447 35.7333 90.2314 35.52V33.92C90.6581 34.1333 91.1714 34.3333 91.7714 34.52C92.3847 34.6933 93.0047 34.78 93.6314 34.78C94.5247 34.78 95.1714 34.64 95.5714 34.36C95.9714 34.0667 96.1714 33.68 96.1714 33.2C96.1714 32.9333 96.0981 32.6933 95.9514 32.48C95.8047 32.2667 95.5381 32.0533 95.1514 31.84C94.7781 31.6267 94.2381 31.3867 93.5314 31.12C92.8381 30.8533 92.2447 30.5867 91.7514 30.32C91.2581 30.0533 90.8781 29.7333 90.6114 29.36C90.3447 28.9867 90.2114 28.5067 90.2114 27.92C90.2114 27.0133 90.5781 26.3133 91.3114 25.82C92.0581 25.3267 93.0314 25.08 94.2314 25.08C94.8847 25.08 95.4914 25.1467 96.0514 25.28C96.6247 25.4 97.1581 25.5733 97.6514 25.8L97.0514 27.2C96.7581 27.0667 96.4447 26.9533 96.1114 26.86C95.7914 26.7533 95.4647 26.6733 95.1314 26.62C94.7981 26.5533 94.4581 26.52 94.1114 26.52C93.3914 26.52 92.8381 26.64 92.4514 26.88C92.0781 27.1067 91.8914 27.42 91.8914 27.82C91.8914 28.1133 91.9781 28.3667 92.1514 28.58C92.3247 28.78 92.6114 28.98 93.0114 29.18C93.4247 29.3667 93.9714 29.5933 94.6514 29.86C95.3314 30.1133 95.9114 30.3733 96.3914 30.64C96.8714 30.9067 97.2381 31.2333 97.4914 31.62C97.7447 31.9933 97.8714 32.4667 97.8714 33.04ZM105.042 34.76C105.308 34.76 105.582 34.74 105.862 34.7C106.142 34.6467 106.368 34.5933 106.542 34.54V35.88C106.355 35.9733 106.088 36.0467 105.742 36.1C105.395 36.1667 105.062 36.2 104.742 36.2C104.182 36.2 103.662 36.1067 103.182 35.92C102.715 35.72 102.335 35.38 102.042 34.9C101.748 34.42 101.602 33.7467 101.602 32.88V26.64H100.082V25.8L101.622 25.1L102.322 22.82H103.362V25.28H106.462V26.64H103.362V32.84C103.362 33.4933 103.515 33.98 103.822 34.3C104.142 34.6067 104.548 34.76 105.042 34.76ZM113.828 25.08C114.748 25.08 115.535 25.28 116.188 25.68C116.855 26.08 117.362 26.6467 117.708 27.38C118.068 28.1 118.248 28.9467 118.248 29.92V30.98H110.908C110.935 32.1933 111.242 33.12 111.828 33.76C112.428 34.3867 113.262 34.7 114.328 34.7C115.008 34.7 115.608 34.64 116.128 34.52C116.662 34.3867 117.208 34.2 117.768 33.96V35.5C117.222 35.74 116.682 35.9133 116.148 36.02C115.615 36.14 114.982 36.2 114.248 36.2C113.235 36.2 112.335 35.9933 111.548 35.58C110.775 35.1667 110.168 34.5533 109.728 33.74C109.302 32.9133 109.088 31.9067 109.088 30.72C109.088 29.5467 109.282 28.54 109.668 27.7C110.068 26.86 110.622 26.2133 111.328 25.76C112.048 25.3067 112.882 25.08 113.828 25.08ZM113.808 26.52C112.968 26.52 112.302 26.7933 111.808 27.34C111.328 27.8733 111.042 28.62 110.948 29.58H116.408C116.408 28.9667 116.315 28.4333 116.128 27.98C115.942 27.5267 115.655 27.1733 115.268 26.92C114.895 26.6533 114.408 26.52 113.808 26.52ZM126.977 25.08C127.177 25.08 127.391 25.0933 127.617 25.12C127.857 25.1333 128.064 25.16 128.237 25.2L128.017 26.82C127.844 26.78 127.651 26.7467 127.437 26.72C127.237 26.6933 127.044 26.68 126.857 26.68C126.444 26.68 126.051 26.7667 125.677 26.94C125.304 27.1133 124.971 27.36 124.677 27.68C124.384 27.9867 124.151 28.36 123.977 28.8C123.817 29.24 123.737 29.7333 123.737 30.28V36H121.977V25.28H123.417L123.617 27.24H123.697C123.924 26.84 124.197 26.48 124.517 26.16C124.837 25.8267 125.204 25.5667 125.617 25.38C126.031 25.18 126.484 25.08 126.977 25.08Z"/>
</mask>
<path d="M49.88 21.72C51.0667 21.72 52.04 21.8733 52.8 22.18C53.5733 22.4733 54.1467 22.92 54.52 23.52C54.8933 24.12 55.08 24.8733 55.08 25.78C55.08 26.54 54.94 27.1733 54.66 27.68C54.38 28.1867 54.02 28.5933 53.58 28.9C53.1533 29.1933 52.7 29.4267 52.22 29.6L56.14 36H54.04L50.58 30.1H47.74V36H45.94V21.72H49.88ZM49.78 23.28H47.74V28.58H49.88C50.6533 28.58 51.2867 28.48 51.78 28.28C52.2733 28.0667 52.6333 27.76 52.86 27.36C53.1 26.96 53.22 26.46 53.22 25.86C53.22 25.2333 53.0933 24.7333 52.84 24.36C52.6 23.9867 52.2267 23.7133 51.72 23.54C51.2133 23.3667 50.5667 23.28 49.78 23.28ZM63.2814 25.08C64.2014 25.08 64.9881 25.28 65.6414 25.68C66.3081 26.08 66.8147 26.6467 67.1614 27.38C67.5214 28.1 67.7014 28.9467 67.7014 29.92V30.98H60.3614C60.3881 32.1933 60.6947 33.12 61.2814 33.76C61.8814 34.3867 62.7147 34.7 63.7814 34.7C64.4614 34.7 65.0614 34.64 65.5814 34.52C66.1147 34.3867 66.6614 34.2 67.2214 33.96V35.5C66.6747 35.74 66.1347 35.9133 65.6014 36.02C65.0681 36.14 64.4347 36.2 63.7014 36.2C62.6881 36.2 61.7881 35.9933 61.0014 35.58C60.2281 35.1667 59.6214 34.5533 59.1814 33.74C58.7547 32.9133 58.5414 31.9067 58.5414 30.72C58.5414 29.5467 58.7347 28.54 59.1214 27.7C59.5214 26.86 60.0747 26.2133 60.7814 25.76C61.5014 25.3067 62.3347 25.08 63.2814 25.08ZM63.2614 26.52C62.4214 26.52 61.7547 26.7933 61.2614 27.34C60.7814 27.8733 60.4947 28.62 60.4014 29.58H65.8614C65.8614 28.9667 65.7681 28.4333 65.5814 27.98C65.3947 27.5267 65.1081 27.1733 64.7214 26.92C64.3481 26.6533 63.8614 26.52 63.2614 26.52ZM75.2305 25.08C75.9371 25.08 76.5705 25.2133 77.1305 25.48C77.7038 25.7467 78.1905 26.1533 78.5905 26.7H78.6905L78.9305 25.28H80.3305V36.18C80.3305 37.1933 80.1571 38.04 79.8105 38.72C79.4638 39.4133 78.9371 39.9333 78.2305 40.28C77.5238 40.6267 76.6238 40.8 75.5305 40.8C74.7571 40.8 74.0438 40.74 73.3905 40.62C72.7505 40.5133 72.1771 40.3467 71.6705 40.12V38.5C72.0171 38.6733 72.3971 38.82 72.8105 38.94C73.2238 39.0733 73.6705 39.1733 74.1505 39.24C74.6305 39.3067 75.1238 39.34 75.6305 39.34C76.5505 39.34 77.2705 39.0667 77.7905 38.52C78.3238 37.9867 78.5905 37.2533 78.5905 36.32V35.9C78.5905 35.74 78.5971 35.5133 78.6105 35.22C78.6238 34.9133 78.6371 34.7 78.6505 34.58H78.5705C78.1971 35.1267 77.7305 35.5333 77.1705 35.8C76.6238 36.0667 75.9838 36.2 75.2505 36.2C73.8638 36.2 72.7771 35.7133 71.9905 34.74C71.2171 33.7667 70.8305 32.4067 70.8305 30.66C70.8305 29.5133 71.0038 28.5267 71.3505 27.7C71.7105 26.86 72.2171 26.2133 72.8705 25.76C73.5238 25.3067 74.3105 25.08 75.2305 25.08ZM75.4705 26.56C74.8705 26.56 74.3571 26.72 73.9305 27.04C73.5171 27.36 73.1971 27.8267 72.9705 28.44C72.7571 29.0533 72.6505 29.8 72.6505 30.68C72.6505 32 72.8905 33.0133 73.3705 33.72C73.8638 34.4133 74.5771 34.76 75.5105 34.76C76.0571 34.76 76.5238 34.6933 76.9105 34.56C77.2971 34.4133 77.6171 34.1933 77.8705 33.9C78.1238 33.5933 78.3105 33.2067 78.4305 32.74C78.5505 32.2733 78.6105 31.72 78.6105 31.08V30.66C78.6105 29.6867 78.4971 28.9 78.2705 28.3C78.0571 27.7 77.7171 27.26 77.2505 26.98C76.7838 26.7 76.1905 26.56 75.4705 26.56ZM86.4952 25.28V36H84.7352V25.28H86.4952ZM85.6352 21.26C85.9018 21.26 86.1352 21.3533 86.3352 21.54C86.5485 21.7133 86.6552 21.9933 86.6552 22.38C86.6552 22.7533 86.5485 23.0333 86.3352 23.22C86.1352 23.4067 85.9018 23.5 85.6352 23.5C85.3418 23.5 85.0952 23.4067 84.8952 23.22C84.6952 23.0333 84.5952 22.7533 84.5952 22.38C84.5952 21.9933 84.6952 21.7133 84.8952 21.54C85.0952 21.3533 85.3418 21.26 85.6352 21.26ZM97.8714 33.04C97.8714 33.7333 97.6981 34.3133 97.3514 34.78C97.0047 35.2467 96.5114 35.6 95.8714 35.84C95.2314 36.08 94.4714 36.2 93.5914 36.2C92.8447 36.2 92.1981 36.14 91.6514 36.02C91.1181 35.9 90.6447 35.7333 90.2314 35.52V33.92C90.6581 34.1333 91.1714 34.3333 91.7714 34.52C92.3847 34.6933 93.0047 34.78 93.6314 34.78C94.5247 34.78 95.1714 34.64 95.5714 34.36C95.9714 34.0667 96.1714 33.68 96.1714 33.2C96.1714 32.9333 96.0981 32.6933 95.9514 32.48C95.8047 32.2667 95.5381 32.0533 95.1514 31.84C94.7781 31.6267 94.2381 31.3867 93.5314 31.12C92.8381 30.8533 92.2447 30.5867 91.7514 30.32C91.2581 30.0533 90.8781 29.7333 90.6114 29.36C90.3447 28.9867 90.2114 28.5067 90.2114 27.92C90.2114 27.0133 90.5781 26.3133 91.3114 25.82C92.0581 25.3267 93.0314 25.08 94.2314 25.08C94.8847 25.08 95.4914 25.1467 96.0514 25.28C96.6247 25.4 97.1581 25.5733 97.6514 25.8L97.0514 27.2C96.7581 27.0667 96.4447 26.9533 96.1114 26.86C95.7914 26.7533 95.4647 26.6733 95.1314 26.62C94.7981 26.5533 94.4581 26.52 94.1114 26.52C93.3914 26.52 92.8381 26.64 92.4514 26.88C92.0781 27.1067 91.8914 27.42 91.8914 27.82C91.8914 28.1133 91.9781 28.3667 92.1514 28.58C92.3247 28.78 92.6114 28.98 93.0114 29.18C93.4247 29.3667 93.9714 29.5933 94.6514 29.86C95.3314 30.1133 95.9114 30.3733 96.3914 30.64C96.8714 30.9067 97.2381 31.2333 97.4914 31.62C97.7447 31.9933 97.8714 32.4667 97.8714 33.04ZM105.042 34.76C105.308 34.76 105.582 34.74 105.862 34.7C106.142 34.6467 106.368 34.5933 106.542 34.54V35.88C106.355 35.9733 106.088 36.0467 105.742 36.1C105.395 36.1667 105.062 36.2 104.742 36.2C104.182 36.2 103.662 36.1067 103.182 35.92C102.715 35.72 102.335 35.38 102.042 34.9C101.748 34.42 101.602 33.7467 101.602 32.88V26.64H100.082V25.8L101.622 25.1L102.322 22.82H103.362V25.28H106.462V26.64H103.362V32.84C103.362 33.4933 103.515 33.98 103.822 34.3C104.142 34.6067 104.548 34.76 105.042 34.76ZM113.828 25.08C114.748 25.08 115.535 25.28 116.188 25.68C116.855 26.08 117.362 26.6467 117.708 27.38C118.068 28.1 118.248 28.9467 118.248 29.92V30.98H110.908C110.935 32.1933 111.242 33.12 111.828 33.76C112.428 34.3867 113.262 34.7 114.328 34.7C115.008 34.7 115.608 34.64 116.128 34.52C116.662 34.3867 117.208 34.2 117.768 33.96V35.5C117.222 35.74 116.682 35.9133 116.148 36.02C115.615 36.14 114.982 36.2 114.248 36.2C113.235 36.2 112.335 35.9933 111.548 35.58C110.775 35.1667 110.168 34.5533 109.728 33.74C109.302 32.9133 109.088 31.9067 109.088 30.72C109.088 29.5467 109.282 28.54 109.668 27.7C110.068 26.86 110.622 26.2133 111.328 25.76C112.048 25.3067 112.882 25.08 113.828 25.08ZM113.808 26.52C112.968 26.52 112.302 26.7933 111.808 27.34C111.328 27.8733 111.042 28.62 110.948 29.58H116.408C116.408 28.9667 116.315 28.4333 116.128 27.98C115.942 27.5267 115.655 27.1733 115.268 26.92C114.895 26.6533 114.408 26.52 113.808 26.52ZM126.977 25.08C127.177 25.08 127.391 25.0933 127.617 25.12C127.857 25.1333 128.064 25.16 128.237 25.2L128.017 26.82C127.844 26.78 127.651 26.7467 127.437 26.72C127.237 26.6933 127.044 26.68 126.857 26.68C126.444 26.68 126.051 26.7667 125.677 26.94C125.304 27.1133 124.971 27.36 124.677 27.68C124.384 27.9867 124.151 28.36 123.977 28.8C123.817 29.24 123.737 29.7333 123.737 30.28V36H121.977V25.28H123.417L123.617 27.24H123.697C123.924 26.84 124.197 26.48 124.517 26.16C124.837 25.8267 125.204 25.5667 125.617 25.38C126.031 25.18 126.484 25.08 126.977 25.08Z" fill="black"/>
<path d="M52.8 22.18L52.4258 23.1073L52.4355 23.1113L52.4453 23.115L52.8 22.18ZM54.52 23.52L53.6709 24.0483L54.52 23.52ZM54.66 27.68L55.5352 28.1637L55.5352 28.1637L54.66 27.68ZM53.58 28.9L54.1465 29.7241L54.1518 29.7204L53.58 28.9ZM52.22 29.6L51.8804 28.6594L50.7265 29.0761L51.3672 30.1223L52.22 29.6ZM56.14 36V37H57.9252L56.9928 35.4777L56.14 36ZM54.04 36L53.1774 36.5059L53.4672 37H54.04V36ZM50.58 30.1L51.4426 29.5941L51.1528 29.1H50.58V30.1ZM47.74 30.1V29.1H46.74V30.1H47.74ZM47.74 36V37H48.74V36H47.74ZM45.94 36H44.94V37H45.94V36ZM45.94 21.72V20.72H44.94V21.72H45.94ZM47.74 23.28V22.28H46.74V23.28H47.74ZM47.74 28.58H46.74V29.58H47.74V28.58ZM51.78 28.28L52.1557 29.2067L52.1664 29.2024L52.1769 29.1979L51.78 28.28ZM52.86 27.36L52.0025 26.8455L51.9961 26.8562L51.99 26.867L52.86 27.36ZM52.84 24.36L51.9988 24.9008L52.0055 24.9112L52.0125 24.9215L52.84 24.36ZM51.72 23.54L51.3963 24.4862L51.72 23.54ZM49.88 22.72C50.9911 22.72 51.8254 22.8651 52.4258 23.1073L53.1742 21.2526C52.2546 20.8816 51.1423 20.72 49.88 20.72V22.72ZM52.4453 23.115C53.05 23.3444 53.4323 23.6648 53.6709 24.0483L55.3691 22.9917C54.861 22.1752 54.0966 21.6023 53.1547 21.245L52.4453 23.115ZM53.6709 24.0483C53.9213 24.4507 54.08 25.0079 54.08 25.78H56.08C56.08 24.7387 55.8654 23.7893 55.3691 22.9917L53.6709 24.0483ZM54.08 25.78C54.08 26.4221 53.9613 26.8769 53.7848 27.1963L55.5352 28.1637C55.9187 27.4698 56.08 26.6579 56.08 25.78H54.08ZM53.7848 27.1963C53.5728 27.5798 53.3128 27.8673 53.0082 28.0796L54.1518 29.7204C54.7272 29.3194 55.1872 28.7935 55.5352 28.1637L53.7848 27.1963ZM53.0135 28.076C52.6561 28.3216 52.2789 28.5155 51.8804 28.6594L52.5596 30.5406C53.1211 30.3378 53.6506 30.065 54.1465 29.724L53.0135 28.076ZM51.3672 30.1223L55.2872 36.5223L56.9928 35.4777L53.0728 29.0777L51.3672 30.1223ZM56.14 35H54.04V37H56.14V35ZM54.9026 35.4941L51.4426 29.5941L49.7174 30.6059L53.1774 36.5059L54.9026 35.4941ZM50.58 29.1H47.74V31.1H50.58V29.1ZM46.74 30.1V36H48.74V30.1H46.74ZM47.74 35H45.94V37H47.74V35ZM46.94 36V21.72H44.94V36H46.94ZM45.94 22.72H49.88V20.72H45.94V22.72ZM49.78 22.28H47.74V24.28H49.78V22.28ZM46.74 23.28V28.58H48.74V23.28H46.74ZM47.74 29.58H49.88V27.58H47.74V29.58ZM49.88 29.58C50.7287 29.58 51.5019 29.4718 52.1557 29.2067L51.4043 27.3533C51.0714 27.4882 50.5779 27.58 49.88 27.58V29.58ZM52.1769 29.1979C52.8349 28.9133 53.3787 28.4731 53.73 27.853L51.99 26.867C51.888 27.0469 51.7117 27.22 51.3831 27.3621L52.1769 29.1979ZM53.7175 27.8745C54.0739 27.2805 54.22 26.5903 54.22 25.86H52.22C52.22 26.3297 52.1261 26.6395 52.0025 26.8455L53.7175 27.8745ZM54.22 25.86C54.22 25.1085 54.0692 24.3905 53.6675 23.7985L52.0125 24.9215C52.1175 25.0762 52.22 25.3582 52.22 25.86H54.22ZM53.6812 23.8192C53.2956 23.2195 52.7181 22.8245 52.0437 22.5938L51.3963 24.4862C51.7353 24.6021 51.9044 24.7539 51.9988 24.9008L53.6812 23.8192ZM52.0437 22.5938C51.3963 22.3724 50.6301 22.28 49.78 22.28V24.28C50.5033 24.28 51.0304 24.361 51.3963 24.4862L52.0437 22.5938ZM65.6414 25.68L65.1192 26.5329L65.1269 26.5375L65.6414 25.68ZM67.1614 27.38L66.2573 27.8074L66.262 27.8173L66.267 27.8272L67.1614 27.38ZM67.7014 30.98V31.98H68.7014V30.98H67.7014ZM60.3614 30.98V29.98H59.3392L59.3616 31.002L60.3614 30.98ZM61.2814 33.76L60.5443 34.4357L60.5516 34.4437L60.5591 34.4516L61.2814 33.76ZM65.5814 34.52L65.8063 35.4944L65.8151 35.4923L65.8239 35.4901L65.5814 34.52ZM67.2214 33.96H68.2214V32.4435L66.8275 33.0409L67.2214 33.96ZM67.2214 35.5L67.6234 36.4156L68.2214 36.1531V35.5H67.2214ZM65.6014 36.02L65.4053 35.0394L65.3936 35.0418L65.3819 35.0444L65.6014 36.02ZM61.0014 35.58L60.53 36.462L60.5363 36.4652L61.0014 35.58ZM59.1814 33.74L58.2928 34.1986L58.2972 34.2073L58.3019 34.2158L59.1814 33.74ZM59.1214 27.7L58.2185 27.27L58.213 27.2819L59.1214 27.7ZM60.7814 25.76L60.2486 24.9137L60.2415 24.9183L60.7814 25.76ZM61.2614 27.34L60.519 26.67L60.5181 26.671L61.2614 27.34ZM60.4014 29.58L59.4061 29.4832L59.2995 30.58H60.4014V29.58ZM65.8614 29.58V30.58H66.8614V29.58H65.8614ZM65.5814 27.98L64.6567 28.3607V28.3608L65.5814 27.98ZM64.7214 26.92L64.1402 27.7337L64.1565 27.7454L64.1734 27.7565L64.7214 26.92ZM63.2814 26.08C64.0544 26.08 64.6521 26.2468 65.1193 26.5329L66.1636 24.8271C65.3241 24.3132 64.3484 24.08 63.2814 24.08V26.08ZM65.1269 26.5375C65.6165 26.8312 65.9913 27.2446 66.2573 27.8074L68.0655 26.9526C67.6382 26.0487 66.9997 25.3288 66.1559 24.8225L65.1269 26.5375ZM66.267 27.8272C66.5445 28.3823 66.7014 29.0699 66.7014 29.92H68.7014C68.7014 28.8235 68.4983 27.8177 68.0558 26.9328L66.267 27.8272ZM66.7014 29.92V30.98H68.7014V29.92H66.7014ZM67.7014 29.98H60.3614V31.98H67.7014V29.98ZM59.3616 31.002C59.3915 32.3617 59.7386 33.5568 60.5443 34.4357L62.0186 33.0843C61.6509 32.6832 61.3846 32.0249 61.3612 30.958L59.3616 31.002ZM60.5591 34.4516C61.3895 35.3189 62.5089 35.7 63.7814 35.7V33.7C62.9206 33.7 62.3733 33.4545 62.0037 33.0684L60.5591 34.4516ZM63.7814 35.7C64.5176 35.7 65.1957 35.6353 65.8063 35.4944L65.3565 33.5456C64.9272 33.6447 64.4053 33.7 63.7814 33.7V35.7ZM65.8239 35.4901C66.4142 35.3426 67.0115 35.1379 67.6153 34.8791L66.8275 33.0409C66.3113 33.2621 65.8153 33.4308 65.3389 33.5499L65.8239 35.4901ZM66.2214 33.96V35.5H68.2214V33.96H66.2214ZM66.8194 34.5844C66.3325 34.7981 65.8614 34.9482 65.4053 35.0394L65.7975 37.0006C66.4081 36.8785 67.017 36.6819 67.6234 36.4156L66.8194 34.5844ZM65.3819 35.0444C64.9403 35.1438 64.3842 35.2 63.7014 35.2V37.2C64.4853 37.2 65.1959 37.1362 65.8209 36.9956L65.3819 35.0444ZM63.7014 35.2C62.8272 35.2 62.0907 35.0227 61.4665 34.6948L60.5363 36.4652C61.4854 36.9639 62.549 37.2 63.7014 37.2V35.2ZM61.4728 34.6981C60.8821 34.3823 60.413 33.915 60.0609 33.2642L58.3019 34.2158C58.8298 35.1917 59.5741 35.951 60.53 36.4619L61.4728 34.6981ZM60.07 33.2814C59.7339 32.6302 59.5414 31.7899 59.5414 30.72H57.5414C57.5414 32.0235 57.7755 33.1965 58.2928 34.1986L60.07 33.2814ZM59.5414 30.72C59.5414 29.6535 59.7174 28.7967 60.0298 28.1181L58.213 27.2819C57.7521 28.2833 57.5414 29.4398 57.5414 30.72H59.5414ZM60.0243 28.1299C60.353 27.4396 60.7883 26.9436 61.3214 26.6017L60.2415 24.9183C59.3611 25.483 58.6898 26.2804 58.2185 27.2701L60.0243 28.1299ZM61.3142 26.6062C61.8571 26.2644 62.5014 26.08 63.2814 26.08V24.08C62.1681 24.08 61.1457 24.3489 60.2486 24.9138L61.3142 26.6062ZM63.2614 25.52C62.1824 25.52 61.2296 25.8826 60.519 26.67L62.0038 28.01C62.2799 27.704 62.6604 27.52 63.2614 27.52V25.52ZM60.5181 26.671C59.8531 27.4099 59.5131 28.3829 59.4061 29.4832L61.3967 29.6768C61.4764 28.8571 61.7097 28.3367 62.0047 28.009L60.5181 26.671ZM60.4014 30.58H65.8614V28.58H60.4014V30.58ZM66.8614 29.58C66.8614 28.8677 66.7533 28.1995 66.5061 27.5992L64.6567 28.3608C64.7829 28.6671 64.8614 29.0656 64.8614 29.58H66.8614ZM66.5061 27.5992C66.2476 26.9714 65.8352 26.4542 65.2694 26.0835L64.1734 27.7565C64.381 27.8925 64.5419 28.0819 64.6567 28.3607L66.5061 27.5992ZM65.3026 26.1063C64.7143 25.686 64.0061 25.52 63.2614 25.52V27.52C63.7168 27.52 63.9818 27.6206 64.1402 27.7337L65.3026 26.1063ZM77.1305 25.48L76.7005 26.3829L76.7087 26.3867L77.1305 25.48ZM78.5905 26.7L77.7834 27.2905L78.0831 27.7H78.5905V26.7ZM78.6905 26.7V27.7H79.5356L79.6765 26.8666L78.6905 26.7ZM78.9305 25.28V24.28H78.0853L77.9445 25.1133L78.9305 25.28ZM80.3305 25.28H81.3305V24.28H80.3305V25.28ZM79.8105 38.72L78.9195 38.2658L78.916 38.2728L79.8105 38.72ZM78.2305 40.28L78.6709 41.1778L78.2305 40.28ZM73.3905 40.62L73.5711 39.6365L73.563 39.635L73.5549 39.6336L73.3905 40.62ZM71.6705 40.12H70.6705V40.7681L71.2621 41.0328L71.6705 40.12ZM71.6705 38.5L72.1177 37.6056L70.6705 36.882V38.5H71.6705ZM72.8105 38.94L73.1175 37.9883L73.1034 37.9838L73.0893 37.9797L72.8105 38.94ZM74.1505 39.24L74.288 38.2495H74.288L74.1505 39.24ZM77.7905 38.52L77.0834 37.8129L77.0745 37.8217L77.0659 37.8308L77.7905 38.52ZM78.6105 35.22L79.6094 35.2654L79.6095 35.2634L78.6105 35.22ZM78.6505 34.58L79.6444 34.6904L79.7677 33.58H78.6505V34.58ZM78.5705 34.58V33.58H78.0424L77.7447 34.016L78.5705 34.58ZM77.1705 35.8L76.7405 34.8971L76.732 34.9012L77.1705 35.8ZM71.9905 34.74L71.2075 35.3621L71.2127 35.3686L71.9905 34.74ZM71.3505 27.7L70.4313 27.3061L70.4283 27.3133L71.3505 27.7ZM72.8705 25.76L72.3004 24.9384L72.3004 24.9384L72.8705 25.76ZM73.9305 27.04L73.3305 26.24L73.3243 26.2446L73.3183 26.2493L73.9305 27.04ZM72.9705 28.44L72.0325 28.0933L72.0291 28.1024L72.026 28.1115L72.9705 28.44ZM73.3705 33.72L72.5433 34.2819L72.5494 34.2909L72.5557 34.2998L73.3705 33.72ZM76.9105 34.56L77.2365 35.5054L77.2509 35.5004L77.2651 35.495L76.9105 34.56ZM77.8705 33.9L78.6273 34.5536L78.6345 34.5453L78.6414 34.5369L77.8705 33.9ZM78.4305 32.74L79.399 32.989L78.4305 32.74ZM78.2705 28.3L77.3283 28.635L77.3315 28.6442L77.335 28.6534L78.2705 28.3ZM77.2505 26.98L77.765 26.1225V26.1225L77.2505 26.98ZM75.2305 26.08C75.8092 26.08 76.2924 26.1885 76.7005 26.3829L77.5604 24.5771C76.8485 24.2382 76.0651 24.08 75.2305 24.08V26.08ZM76.7087 26.3867C77.1181 26.5771 77.4758 26.8701 77.7834 27.2905L79.3975 26.1095C78.9051 25.4366 78.2895 24.9162 77.5522 24.5733L76.7087 26.3867ZM78.5905 27.7H78.6905V25.7H78.5905V27.7ZM79.6765 26.8666L79.9165 25.4467L77.9445 25.1133L77.7045 26.5333L79.6765 26.8666ZM78.9305 26.28H80.3305V24.28H78.9305V26.28ZM79.3305 25.28V36.18H81.3305V25.28H79.3305ZM79.3305 36.18C79.3305 37.085 79.175 37.7648 78.9196 38.2658L80.7014 39.1742C81.1393 38.3152 81.3305 37.3016 81.3305 36.18H79.3305ZM78.916 38.2728C78.6689 38.767 78.3034 39.1304 77.79 39.3822L78.6709 41.1778C79.5709 40.7363 80.2587 40.0596 80.7049 39.1672L78.916 38.2728ZM77.79 39.3822C77.2631 39.6407 76.527 39.8 75.5305 39.8V41.8C76.7206 41.8 77.7845 41.6126 78.6709 41.1778L77.79 39.3822ZM75.5305 39.8C74.8081 39.8 74.1561 39.7439 73.5711 39.6365L73.2098 41.6035C73.9315 41.7361 74.7061 41.8 75.5305 41.8V39.8ZM73.5549 39.6336C72.9852 39.5387 72.4958 39.3937 72.0788 39.2072L71.2621 41.0328C71.8584 41.2996 72.5157 41.488 73.2261 41.6064L73.5549 39.6336ZM72.6705 40.12V38.5H70.6705V40.12H72.6705ZM71.2233 39.3944C71.6295 39.5975 72.0666 39.7653 72.5317 39.9003L73.0893 37.9797C72.7277 37.8747 72.4048 37.7491 72.1177 37.6056L71.2233 39.3944ZM72.5035 39.8917C72.978 40.0448 73.4819 40.1567 74.0129 40.2305L74.288 38.2495C73.859 38.1899 73.4696 38.1019 73.1175 37.9883L72.5035 39.8917ZM74.0129 40.2305C74.5405 40.3038 75.0799 40.34 75.6305 40.34V38.34C75.1677 38.34 74.7204 38.3096 74.288 38.2495L74.0129 40.2305ZM75.6305 40.34C76.7599 40.34 77.766 39.9967 78.515 39.2092L77.0659 37.8308C76.7749 38.1367 76.3411 38.34 75.6305 38.34V40.34ZM78.4976 39.2271C79.2609 38.4638 79.5905 37.4518 79.5905 36.32H77.5905C77.5905 37.0549 77.3867 37.5095 77.0834 37.8129L78.4976 39.2271ZM79.5905 36.32V35.9H77.5905V36.32H79.5905ZM79.5905 35.9C79.5905 35.7628 79.5963 35.5538 79.6094 35.2654L77.6115 35.1746C77.5979 35.4728 77.5905 35.7172 77.5905 35.9H79.5905ZM79.6095 35.2634C79.6229 34.9554 79.6352 34.773 79.6444 34.6904L77.6566 34.4696C77.6391 34.627 77.6247 34.8713 77.6114 35.1766L79.6095 35.2634ZM78.6505 33.58H78.5705V35.58H78.6505V33.58ZM77.7447 34.016C77.4641 34.4269 77.1302 34.7116 76.7405 34.8971L77.6004 36.7029C78.3308 36.3551 78.9302 35.8264 79.3963 35.144L77.7447 34.016ZM76.732 34.9012C76.3472 35.089 75.8627 35.2 75.2505 35.2V37.2C76.1049 37.2 76.9004 37.0444 77.6089 36.6988L76.732 34.9012ZM75.2505 35.2C74.1288 35.2 73.3429 34.8225 72.7682 34.1114L71.2127 35.3686C72.2114 36.6042 73.5988 37.2 75.2505 37.2V35.2ZM72.7734 34.1179C72.1878 33.3809 71.8305 32.2705 71.8305 30.66H69.8305C69.8305 32.5428 70.2464 34.1525 71.2075 35.3621L72.7734 34.1179ZM71.8305 30.66C71.8305 29.6106 71.9895 28.7619 72.2727 28.0867L70.4283 27.3133C70.0181 28.2914 69.8305 29.4161 69.8305 30.66H71.8305ZM72.2696 28.0939C72.567 27.4001 72.9633 26.9127 73.4405 26.5816L72.3004 24.9384C71.4709 25.5139 70.854 26.3199 70.4313 27.3061L72.2696 28.0939ZM73.4405 26.5816C73.9013 26.2619 74.4813 26.08 75.2305 26.08V24.08C74.1397 24.08 73.1463 24.3514 72.3004 24.9384L73.4405 26.5816ZM75.4705 25.56C74.6825 25.56 73.9516 25.7741 73.3305 26.24L74.5305 27.84C74.7626 27.6659 75.0585 27.56 75.4705 27.56V25.56ZM73.3183 26.2493C72.7239 26.7095 72.3078 27.3482 72.0325 28.0933L73.9085 28.7866C74.0864 28.3051 74.3104 28.0105 74.5426 27.8307L73.3183 26.2493ZM72.026 28.1115C71.7654 28.8605 71.6505 29.7252 71.6505 30.68H73.6505C73.6505 29.8748 73.7488 29.2461 73.915 28.7685L72.026 28.1115ZM71.6505 30.68C71.6505 32.0989 71.9047 33.3417 72.5433 34.2819L74.1977 33.1581C73.8763 32.6849 73.6505 31.9011 73.6505 30.68H71.6505ZM72.5557 34.2998C73.2568 35.2852 74.2901 35.76 75.5105 35.76V33.76C74.8642 33.76 74.4708 33.5415 74.1853 33.1402L72.5557 34.2998ZM75.5105 35.76C76.1331 35.76 76.7163 35.6847 77.2365 35.5054L76.5845 33.6146C76.3313 33.7019 75.9812 33.76 75.5105 33.76V35.76ZM77.2651 35.495C77.7964 35.2935 78.2581 34.9811 78.6273 34.5536L77.1136 33.2464C76.9762 33.4056 76.7979 33.5332 76.5558 33.625L77.2651 35.495ZM78.6414 34.5369C79.0059 34.0956 79.25 33.5684 79.399 32.989L77.462 32.491C77.371 32.8449 77.2417 33.091 77.0995 33.2631L78.6414 34.5369ZM79.399 32.989C79.5454 32.4194 79.6105 31.7784 79.6105 31.08H77.6105C77.6105 31.6616 77.5555 32.1272 77.462 32.491L79.399 32.989ZM79.6105 31.08V30.66H77.6105V31.08H79.6105ZM79.6105 30.66C79.6105 29.622 79.4914 28.7022 79.2059 27.9466L77.335 28.6534C77.5029 29.0978 77.6105 29.7513 77.6105 30.66H79.6105ZM79.2127 27.965C78.9355 27.1855 78.4633 26.5415 77.765 26.1225L76.736 27.8375C76.971 27.9785 77.1787 28.2145 77.3283 28.635L79.2127 27.965ZM77.765 26.1225C77.1004 25.7238 76.3148 25.56 75.4705 25.56V27.56C76.0662 27.56 76.4672 27.6762 76.736 27.8375L77.765 26.1225ZM86.4952 25.28H87.4952V24.28H86.4952V25.28ZM86.4952 36V37H87.4952V36H86.4952ZM84.7352 36H83.7352V37H84.7352V36ZM84.7352 25.28V24.28H83.7352V25.28H84.7352ZM86.3352 21.54L85.6528 22.2711L85.6779 22.2945L85.7046 22.3161L86.3352 21.54ZM86.3352 23.22L85.6767 22.4674L85.6646 22.478L85.6528 22.4889L86.3352 23.22ZM84.8952 23.22L85.5775 22.4889L85.5775 22.4889L84.8952 23.22ZM84.8952 21.54L85.5501 22.2957L85.564 22.2836L85.5775 22.2711L84.8952 21.54ZM85.4952 25.28V36H87.4952V25.28H85.4952ZM86.4952 35H84.7352V37H86.4952V35ZM85.7352 36V25.28H83.7352V36H85.7352ZM84.7352 26.28H86.4952V24.28H84.7352V26.28ZM85.6352 22.26C85.6432 22.26 85.6463 22.2607 85.6454 22.2605C85.6444 22.2603 85.6419 22.2597 85.6388 22.2585C85.6357 22.2573 85.6347 22.2565 85.6362 22.2574C85.6378 22.2585 85.6435 22.2623 85.6528 22.2711L87.0175 20.8089C86.6376 20.4544 86.1623 20.26 85.6352 20.26V22.26ZM85.7046 22.3161C85.6863 22.3013 85.6704 22.284 85.6582 22.2667C85.6463 22.2498 85.6414 22.238 85.6407 22.236C85.6401 22.2346 85.6552 22.2747 85.6552 22.38H87.6552C87.6552 21.8206 87.4969 21.1955 86.9657 20.7639L85.7046 22.3161ZM85.6552 22.38C85.6552 22.4738 85.6415 22.5118 85.6407 22.514C85.6405 22.5144 85.6431 22.5076 85.6504 22.497C85.6579 22.4861 85.6671 22.4758 85.6767 22.4674L86.9937 23.9726C87.4876 23.5404 87.6552 22.9448 87.6552 22.38H85.6552ZM85.6528 22.4889C85.6435 22.4977 85.6378 22.5015 85.6362 22.5026C85.6347 22.5035 85.6357 22.5027 85.6388 22.5015C85.6419 22.5003 85.6444 22.4997 85.6454 22.4995C85.6463 22.4993 85.6432 22.5 85.6352 22.5V24.5C86.1623 24.5 86.6376 24.3056 87.0175 23.9511L85.6528 22.4889ZM85.6352 22.5C85.6149 22.5 85.6017 22.4984 85.5942 22.4971C85.5905 22.4965 85.5879 22.4958 85.5864 22.4954C85.5849 22.495 85.5842 22.4948 85.584 22.4947C85.584 22.4947 85.5841 22.4947 85.5845 22.4949C85.5849 22.4951 85.5851 22.4952 85.585 22.4952C85.585 22.4952 85.5844 22.4948 85.5833 22.4939C85.5821 22.493 85.5802 22.4915 85.5775 22.4889L84.2128 23.9511C84.6121 24.3237 85.1086 24.5 85.6352 24.5V22.5ZM85.5775 22.4889C85.589 22.4997 85.5984 22.5113 85.6051 22.5217C85.6116 22.5319 85.6131 22.537 85.6119 22.5337C85.6089 22.5252 85.5952 22.4801 85.5952 22.38H83.5952C83.5952 22.9258 83.7446 23.514 84.2128 23.9511L85.5775 22.4889ZM85.5952 22.38C85.5952 22.2687 85.6101 22.2214 85.6119 22.2163C85.6123 22.2152 85.6088 22.2253 85.5978 22.2419C85.5866 22.2589 85.5706 22.2779 85.5501 22.2957L84.2402 20.7843C83.7355 21.2217 83.5952 21.8399 83.5952 22.38H85.5952ZM85.5775 22.2711C85.5802 22.2685 85.5821 22.267 85.5833 22.2661C85.5844 22.2652 85.585 22.2648 85.585 22.2648C85.5851 22.2648 85.5849 22.2649 85.5845 22.2651C85.5841 22.2652 85.584 22.2653 85.584 22.2653C85.5842 22.2652 85.5849 22.265 85.5864 22.2646C85.5879 22.2642 85.5905 22.2635 85.5942 22.2629C85.6017 22.2616 85.6149 22.26 85.6352 22.26V20.26C85.1086 20.26 84.6121 20.4363 84.2128 20.8089L85.5775 22.2711ZM97.3514 34.78L96.5487 34.1837L97.3514 34.78ZM95.8714 35.84L95.5203 34.9037L95.8714 35.84ZM91.6514 36.02L91.4319 36.9956L91.437 36.9967L91.6514 36.02ZM90.2314 35.52H89.2314V36.1292L89.7728 36.4086L90.2314 35.52ZM90.2314 33.92L90.6786 33.0256L89.2314 32.302V33.92H90.2314ZM91.7714 34.52L91.4743 35.4749L91.4868 35.4787L91.4995 35.4823L91.7714 34.52ZM95.5714 34.36L96.1449 35.1792L96.1539 35.1729L96.1628 35.1664L95.5714 34.36ZM95.9514 32.48L96.7754 31.9135L95.9514 32.48ZM95.1514 31.84L94.6553 32.7082L94.6618 32.712L94.6683 32.7156L95.1514 31.84ZM93.5314 31.12L93.1724 32.0534L93.1783 32.0556L93.5314 31.12ZM90.6114 29.36L89.7977 29.9412V29.9412L90.6114 29.36ZM91.3114 25.82L90.7601 24.9856L90.7532 24.9903L91.3114 25.82ZM96.0514 25.28L95.8198 26.2528L95.8331 26.256L95.8465 26.2588L96.0514 25.28ZM97.6514 25.8L98.5706 26.1939L98.9544 25.2982L98.0689 24.8913L97.6514 25.8ZM97.0514 27.2L96.6376 28.1104L97.568 28.5333L97.9706 27.5939L97.0514 27.2ZM96.1114 26.86L95.7952 27.8087L95.8183 27.8164L95.8418 27.823L96.1114 26.86ZM95.1314 26.62L94.9353 27.6006L94.9543 27.6044L94.9734 27.6074L95.1314 26.62ZM92.4514 26.88L92.9704 27.7348L92.9788 27.7296L92.4514 26.88ZM92.1514 28.58L91.3753 29.2106L91.3853 29.2229L91.3957 29.2349L92.1514 28.58ZM93.0114 29.18L92.5642 30.0744L92.5818 30.0833L92.5998 30.0914L93.0114 29.18ZM94.6514 29.86L94.2863 30.791L94.2943 30.7941L94.3023 30.7971L94.6514 29.86ZM96.3914 30.64L95.9058 31.5142H95.9058L96.3914 30.64ZM97.4914 31.62L96.6549 32.168L96.6594 32.1748L96.6639 32.1815L97.4914 31.62ZM96.8714 33.04C96.8714 33.5611 96.744 33.9208 96.5487 34.1837L98.1542 35.3763C98.6522 34.7059 98.8714 33.9055 98.8714 33.04H96.8714ZM96.5487 34.1837C96.3356 34.4704 96.0124 34.7191 95.5203 34.9037L96.2225 36.7763C97.0104 36.4809 97.6738 36.0229 98.1542 35.3763L96.5487 34.1837ZM95.5203 34.9037C95.0196 35.0914 94.3843 35.2 93.5914 35.2V37.2C94.5585 37.2 95.4432 37.0686 96.2225 36.7763L95.5203 34.9037ZM93.5914 35.2C92.8945 35.2 92.3232 35.1437 91.8658 35.0433L91.437 36.9967C92.073 37.1363 92.7949 37.2 93.5914 37.2V35.2ZM91.8709 35.0444C91.4066 34.9399 91.0159 34.7995 90.69 34.6314L89.7728 36.4086C90.2736 36.6671 90.8296 36.8601 91.4319 36.9956L91.8709 35.0444ZM91.2314 35.52V33.92H89.2314V35.52H91.2314ZM89.7842 34.8144C90.2716 35.0581 90.8379 35.2769 91.4743 35.4749L92.0685 33.5651C91.5049 33.3898 91.0446 33.2085 90.6786 33.0256L89.7842 34.8144ZM91.4995 35.4823C92.1997 35.6802 92.9112 35.78 93.6314 35.78V33.78C93.0983 33.78 92.5697 33.7064 92.0434 33.5577L91.4995 35.4823ZM93.6314 35.78C94.5824 35.78 95.4868 35.6399 96.1449 35.1792L94.9979 33.5408C94.856 33.6401 94.467 33.78 93.6314 33.78V35.78ZM96.1628 35.1664C96.8095 34.6921 97.1714 34.0109 97.1714 33.2H95.1714C95.1714 33.3491 95.1333 33.4412 94.98 33.5536L96.1628 35.1664ZM97.1714 33.2C97.1714 32.7375 97.0403 32.2988 96.7754 31.9135L95.1274 33.0465C95.1558 33.0879 95.1714 33.1292 95.1714 33.2H97.1714ZM96.7754 31.9135C96.4991 31.5116 96.0738 31.2068 95.6345 30.9644L94.6683 32.7156C95.0023 32.8999 95.1103 33.0218 95.1274 33.0465L96.7754 31.9135ZM95.6475 30.9718C95.2066 30.7198 94.6096 30.458 93.8845 30.1844L93.1783 32.0556C93.8666 32.3153 94.3496 32.5336 94.6553 32.7082L95.6475 30.9718ZM93.8904 30.1867C93.225 29.9307 92.6728 29.6813 92.2269 29.4403L91.2759 31.1997C91.8167 31.492 92.4511 31.7759 93.1724 32.0533L93.8904 30.1867ZM92.2269 29.4403C91.8383 29.2302 91.5858 29.0036 91.4251 28.7788L89.7977 29.9412C90.1704 30.463 90.6778 30.8764 91.2759 31.1997L92.2269 29.4403ZM91.4251 28.7788C91.3095 28.6169 91.2114 28.3564 91.2114 27.92H89.2114C89.2114 28.6569 89.3799 29.3564 89.7977 29.9412L91.4251 28.7788ZM91.2114 27.92C91.2114 27.3359 91.4209 26.9516 91.8696 26.6497L90.7532 24.9903C89.7352 25.6751 89.2114 26.6908 89.2114 27.92H91.2114ZM91.8627 26.6543C92.3987 26.3002 93.1621 26.08 94.2314 26.08V24.08C92.9007 24.08 91.7175 24.3532 90.7602 24.9857L91.8627 26.6543ZM94.2314 26.08C94.817 26.08 95.3451 26.1398 95.8198 26.2528L96.283 24.3072C95.6378 24.1536 94.9525 24.08 94.2314 24.08V26.08ZM95.8465 26.2588C96.3523 26.3647 96.8137 26.5156 97.2339 26.7087L98.0689 24.8913C97.5024 24.631 96.8972 24.4353 96.2563 24.3012L95.8465 26.2588ZM96.7323 25.4061L96.1323 26.8061L97.9706 27.5939L98.5706 26.1939L96.7323 25.4061ZM97.4652 26.2896C97.1219 26.1336 96.7601 26.0032 96.381 25.897L95.8418 27.823C96.1294 27.9035 96.3942 27.9997 96.6376 28.1104L97.4652 26.2896ZM96.4276 25.9113C96.056 25.7874 95.6764 25.6945 95.2894 25.6326L94.9734 27.6074C95.2531 27.6522 95.5268 27.7192 95.7952 27.8087L96.4276 25.9113ZM95.3275 25.6394C94.9283 25.5596 94.5226 25.52 94.1114 25.52V27.52C94.3935 27.52 94.6678 27.5471 94.9353 27.6006L95.3275 25.6394ZM94.1114 25.52C93.304 25.52 92.5361 25.6505 91.924 26.0304L92.9788 27.7296C93.14 27.6295 93.4788 27.52 94.1114 27.52V25.52ZM91.9324 26.0252C91.2935 26.4132 90.8914 27.0336 90.8914 27.82H92.8914C92.8914 27.8089 92.8921 27.8012 92.8926 27.7965C92.8932 27.7918 92.8938 27.7896 92.8938 27.7894C92.8939 27.7893 92.8936 27.7903 92.8928 27.7922C92.8921 27.794 92.8912 27.7956 92.8905 27.7968C92.8852 27.8058 92.896 27.78 92.9704 27.7348L91.9324 26.0252ZM90.8914 27.82C90.8914 28.3264 91.047 28.8065 91.3753 29.2106L92.9275 27.9494C92.9091 27.9268 92.8914 27.9002 92.8914 27.82H90.8914ZM91.3957 29.2349C91.6947 29.5799 92.1166 29.8506 92.5642 30.0744L93.4586 28.2856C93.1062 28.1094 92.9548 27.9801 92.9071 27.9251L91.3957 29.2349ZM92.5998 30.0914C93.0348 30.2878 93.5988 30.5214 94.2863 30.791L95.0165 28.929C94.344 28.6653 93.8147 28.4455 93.423 28.2686L92.5998 30.0914ZM94.3023 30.7971C94.9493 31.0381 95.481 31.2782 95.9058 31.5142L96.877 29.7658C96.3418 29.4685 95.7136 29.1886 95.0005 28.9229L94.3023 30.7971ZM95.9058 31.5142C96.2706 31.7169 96.5057 31.9402 96.6549 32.168L98.3279 31.072C97.9705 30.5265 97.4722 30.0965 96.877 29.7658L95.9058 31.5142ZM96.6639 32.1815C96.7779 32.3494 96.8714 32.6128 96.8714 33.04H98.8714C98.8714 32.3206 98.7116 31.6372 98.3189 31.0585L96.6639 32.1815ZM105.862 34.7L106.003 35.6899L106.026 35.6867L106.049 35.6823L105.862 34.7ZM106.542 34.54H107.542V33.186L106.248 33.5842L106.542 34.54ZM106.542 35.88L106.989 36.7744L107.542 36.498V35.88H106.542ZM105.742 36.1L105.59 35.1116L105.571 35.1145L105.553 35.118L105.742 36.1ZM103.182 35.92L102.788 36.8391L102.803 36.8458L102.819 36.852L103.182 35.92ZM102.042 34.9L101.188 35.4214L102.042 34.9ZM101.602 26.64H102.602V25.64H101.602V26.64ZM100.082 26.64H99.0817V27.64H100.082V26.64ZM100.082 25.8L99.6679 24.8896L99.0817 25.1561V25.8H100.082ZM101.622 25.1L102.036 26.0104L102.446 25.824L102.578 25.3935L101.622 25.1ZM102.322 22.82V21.82H101.583L101.366 22.5265L102.322 22.82ZM103.362 22.82H104.362V21.82H103.362V22.82ZM103.362 25.28H102.362V26.28H103.362V25.28ZM106.462 25.28H107.462V24.28H106.462V25.28ZM106.462 26.64V27.64H107.462V26.64H106.462ZM103.362 26.64V25.64H102.362V26.64H103.362ZM103.822 34.3L103.1 34.9919L103.114 35.0073L103.13 35.022L103.822 34.3ZM105.042 35.76C105.358 35.76 105.679 35.7362 106.003 35.6899L105.72 33.7101C105.484 33.7438 105.258 33.76 105.042 33.76V35.76ZM106.049 35.6823C106.347 35.6255 106.613 35.5642 106.836 35.4958L106.248 33.5842C106.123 33.6225 105.936 33.6678 105.675 33.7177L106.049 35.6823ZM105.542 34.54V35.88H107.542V34.54H105.542ZM106.095 34.9856C106.043 35.0115 105.893 35.0649 105.59 35.1116L105.894 37.0884C106.283 37.0284 106.667 36.9352 106.989 36.7744L106.095 34.9856ZM105.553 35.118C105.262 35.1739 104.992 35.2 104.742 35.2V37.2C105.131 37.2 105.528 37.1594 105.931 37.082L105.553 35.118ZM104.742 35.2C104.295 35.2 103.899 35.1259 103.544 34.988L102.819 36.852C103.425 37.0874 104.069 37.2 104.742 37.2V35.2ZM103.576 35.0009C103.32 34.8913 103.092 34.7015 102.895 34.3785L101.188 35.4214C101.578 36.0585 102.11 36.5487 102.788 36.8391L103.576 35.0009ZM102.895 34.3785C102.736 34.1187 102.602 33.6542 102.602 32.88H100.602C100.602 33.8391 100.761 34.7213 101.188 35.4214L102.895 34.3785ZM102.602 32.88V26.64H100.602V32.88H102.602ZM101.602 25.64H100.082V27.64H101.602V25.64ZM101.082 26.64V25.8H99.0817V26.64H101.082ZM100.496 26.7104L102.036 26.0104L101.208 24.1896L99.6679 24.8896L100.496 26.7104ZM102.578 25.3935L103.278 23.1135L101.366 22.5265L100.666 24.8065L102.578 25.3935ZM102.322 23.82H103.362V21.82H102.322V23.82ZM102.362 22.82V25.28H104.362V22.82H102.362ZM103.362 26.28H106.462V24.28H103.362V26.28ZM105.462 25.28V26.64H107.462V25.28H105.462ZM106.462 25.64H103.362V27.64H106.462V25.64ZM102.362 26.64V32.84H104.362V26.64H102.362ZM102.362 32.84C102.362 33.6303 102.546 34.4137 103.1 34.9919L104.544 33.6081C104.484 33.5463 104.362 33.3563 104.362 32.84H102.362ZM103.13 35.022C103.658 35.5279 104.322 35.76 105.042 35.76V33.76C104.775 33.76 104.626 33.6855 104.514 33.578L103.13 35.022ZM116.188 25.68L115.666 26.5329L115.674 26.5375L116.188 25.68ZM117.708 27.38L116.804 27.8074L116.809 27.8173L116.814 27.8272L117.708 27.38ZM118.248 30.98V31.98H119.248V30.98H118.248ZM110.908 30.98V29.98H109.886L109.909 31.002L110.908 30.98ZM111.828 33.76L111.091 34.4357L111.098 34.4437L111.106 34.4516L111.828 33.76ZM116.128 34.52L116.353 35.4944L116.362 35.4923L116.371 35.4901L116.128 34.52ZM117.768 33.96H118.768V32.4435L117.374 33.0409L117.768 33.96ZM117.768 35.5L118.17 36.4156L118.768 36.1531V35.5H117.768ZM116.148 36.02L115.952 35.0394L115.94 35.0418L115.929 35.0444L116.148 36.02ZM111.548 35.58L111.077 36.462L111.083 36.4652L111.548 35.58ZM109.728 33.74L108.84 34.1986L108.844 34.2073L108.849 34.2158L109.728 33.74ZM109.668 27.7L108.765 27.27L108.76 27.2819L109.668 27.7ZM111.328 25.76L110.795 24.9137L110.788 24.9183L111.328 25.76ZM111.808 27.34L111.066 26.67L111.065 26.671L111.808 27.34ZM110.948 29.58L109.953 29.4832L109.846 30.58H110.948V29.58ZM116.408 29.58V30.58H117.408V29.58H116.408ZM116.128 27.98L115.204 28.3607V28.3608L116.128 27.98ZM115.268 26.92L114.687 27.7337L114.703 27.7454L114.72 27.7565L115.268 26.92ZM113.828 26.08C114.601 26.08 115.199 26.2468 115.666 26.5329L116.71 24.8271C115.871 24.3132 114.895 24.08 113.828 24.08V26.08ZM115.674 26.5375C116.163 26.8312 116.538 27.2446 116.804 27.8074L118.612 26.9526C118.185 26.0487 117.547 25.3288 116.703 24.8225L115.674 26.5375ZM116.814 27.8272C117.091 28.3823 117.248 29.0699 117.248 29.92H119.248C119.248 28.8235 119.045 27.8177 118.603 26.9328L116.814 27.8272ZM117.248 29.92V30.98H119.248V29.92H117.248ZM118.248 29.98H110.908V31.98H118.248V29.98ZM109.909 31.002C109.938 32.3617 110.285 33.5568 111.091 34.4357L112.565 33.0843C112.198 32.6832 111.931 32.0249 111.908 30.958L109.909 31.002ZM111.106 34.4516C111.936 35.3189 113.056 35.7 114.328 35.7V33.7C113.467 33.7 112.92 33.4545 112.551 33.0684L111.106 34.4516ZM114.328 35.7C115.064 35.7 115.743 35.6353 116.353 35.4944L115.903 33.5456C115.474 33.6447 114.952 33.7 114.328 33.7V35.7ZM116.371 35.4901C116.961 35.3426 117.558 35.1379 118.162 34.8791L117.374 33.0409C116.858 33.2621 116.362 33.4308 115.886 33.5499L116.371 35.4901ZM116.768 33.96V35.5H118.768V33.96H116.768ZM117.366 34.5844C116.879 34.7981 116.408 34.9482 115.952 35.0394L116.344 37.0006C116.955 36.8785 117.564 36.6819 118.17 36.4156L117.366 34.5844ZM115.929 35.0444C115.487 35.1438 114.931 35.2 114.248 35.2V37.2C115.032 37.2 115.743 37.1362 116.368 36.9956L115.929 35.0444ZM114.248 35.2C113.374 35.2 112.638 35.0227 112.013 34.6948L111.083 36.4652C112.032 36.9639 113.096 37.2 114.248 37.2V35.2ZM112.02 34.6981C111.429 34.3823 110.96 33.915 110.608 33.2642L108.849 34.2158C109.377 35.1917 110.121 35.951 111.077 36.4619L112.02 34.6981ZM110.617 33.2814C110.281 32.6302 110.088 31.7899 110.088 30.72H108.088C108.088 32.0235 108.322 33.1965 108.84 34.1986L110.617 33.2814ZM110.088 30.72C110.088 29.6535 110.264 28.7967 110.577 28.1181L108.76 27.2819C108.299 28.2833 108.088 29.4398 108.088 30.72H110.088ZM110.571 28.1299C110.9 27.4396 111.335 26.9436 111.868 26.6017L110.788 24.9183C109.908 25.483 109.237 26.2804 108.765 27.2701L110.571 28.1299ZM111.861 26.6062C112.404 26.2644 113.048 26.08 113.828 26.08V24.08C112.715 24.08 111.693 24.3489 110.795 24.9138L111.861 26.6062ZM113.808 25.52C112.729 25.52 111.776 25.8826 111.066 26.67L112.551 28.01C112.827 27.704 113.207 27.52 113.808 27.52V25.52ZM111.065 26.671C110.4 27.4099 110.06 28.3829 109.953 29.4832L111.944 29.6768C112.023 28.8571 112.257 28.3367 112.552 28.009L111.065 26.671ZM110.948 30.58H116.408V28.58H110.948V30.58ZM117.408 29.58C117.408 28.8677 117.3 28.1995 117.053 27.5992L115.204 28.3608C115.33 28.6671 115.408 29.0656 115.408 29.58H117.408ZM117.053 27.5992C116.794 26.9714 116.382 26.4542 115.816 26.0835L114.72 27.7565C114.928 27.8925 115.089 28.0819 115.204 28.3607L117.053 27.5992ZM115.85 26.1063C115.261 25.686 114.553 25.52 113.808 25.52V27.52C114.264 27.52 114.529 27.6206 114.687 27.7337L115.85 26.1063ZM127.617 25.12L127.501 26.1132L127.531 26.1168L127.562 26.1185L127.617 25.12ZM128.237 25.2L129.228 25.3346L129.351 24.4307L128.462 24.2256L128.237 25.2ZM128.017 26.82L127.792 27.7944L128.861 28.0409L129.008 26.9546L128.017 26.82ZM127.437 26.72L127.305 27.7113L127.313 27.7123L127.437 26.72ZM125.677 26.94L126.098 27.847L125.677 26.94ZM124.677 27.68L125.4 28.3712L125.407 28.3636L125.414 28.3557L124.677 27.68ZM123.977 28.8L123.047 28.4335L123.042 28.4458L123.038 28.4583L123.977 28.8ZM123.737 36V37H124.737V36H123.737ZM121.977 36H120.977V37H121.977V36ZM121.977 25.28V24.28H120.977V25.28H121.977ZM123.417 25.28L124.412 25.1785L124.32 24.28H123.417V25.28ZM123.617 27.24L122.623 27.3415L122.714 28.24H123.617V27.24ZM123.697 27.24V28.24H124.28L124.567 27.733L123.697 27.24ZM124.517 26.16L125.224 26.8671L125.232 26.8599L125.239 26.8525L124.517 26.16ZM125.617 25.38L126.029 26.2914L126.041 26.2859L126.053 26.2802L125.617 25.38ZM126.977 26.08C127.133 26.08 127.307 26.0904 127.501 26.1132L127.734 24.1268C127.474 24.0962 127.221 24.08 126.977 24.08V26.08ZM127.562 26.1185C127.763 26.1296 127.91 26.1508 128.012 26.1744L128.462 24.2256C128.218 24.1692 127.951 24.137 127.673 24.1215L127.562 26.1185ZM127.246 25.0654L127.026 26.6854L129.008 26.9546L129.228 25.3346L127.246 25.0654ZM128.242 25.8456C128.03 25.7965 127.802 25.7578 127.561 25.7277L127.313 27.7123C127.499 27.7355 127.658 27.7635 127.792 27.7944L128.242 25.8456ZM127.57 25.7288C127.329 25.6967 127.092 25.68 126.857 25.68V27.68C126.996 27.68 127.146 27.6899 127.305 27.7112L127.57 25.7288ZM126.857 25.68C126.299 25.68 125.762 25.7981 125.256 26.033L126.098 27.847C126.339 27.7352 126.589 27.68 126.857 27.68V25.68ZM125.256 26.033C124.757 26.2648 124.318 26.5925 123.94 27.0043L125.414 28.3557C125.624 28.1275 125.851 27.9618 126.098 27.847L125.256 26.033ZM123.955 26.9888C123.562 27.3993 123.262 27.8866 123.047 28.4335L124.908 29.1665C125.039 28.8334 125.206 28.574 125.4 28.3712L123.955 26.9888ZM123.038 28.4583C122.832 29.0245 122.737 29.6359 122.737 30.28H124.737C124.737 29.8307 124.803 29.4555 124.917 29.1417L123.038 28.4583ZM122.737 30.28V36H124.737V30.28H122.737ZM123.737 35H121.977V37H123.737V35ZM122.977 36V25.28H120.977V36H122.977ZM121.977 26.28H123.417V24.28H121.977V26.28ZM122.423 25.3815L122.623 27.3415L124.612 27.1385L124.412 25.1785L122.423 25.3815ZM123.617 28.24H123.697V26.24H123.617V28.24ZM124.567 27.733C124.75 27.4101 124.969 27.1224 125.224 26.8671L123.81 25.4529C123.426 25.8376 123.098 26.2699 122.827 26.747L124.567 27.733ZM125.239 26.8525C125.472 26.6095 125.734 26.4245 126.029 26.2914L125.206 24.4686C124.674 24.7088 124.203 25.0439 123.796 25.4675L125.239 26.8525ZM126.053 26.2802C126.321 26.1507 126.623 26.08 126.977 26.08V24.08C126.345 24.08 125.741 24.2093 125.182 24.4798L126.053 26.2802Z" fill="black" mask="url(#path-18-outside-1_123_195)"/>
</svg>
